<svg width="284" height="160" viewBox="0 0 284 160" fill="none" xmlns="http://www.w3.org/2000/svg">
<rect x="63" y="1" width="158" height="158" rx="79" stroke="#333333" stroke-width="2"/>
<rect width="284" height="62" transform="translate(0 49)" fill="#F2F2F2"/>
<path d="M3.55336 59.06V73H1.73336V59.06H3.55336ZM11.9952 61.84C13.3286 61.84 14.4086 62.2467 15.2352 63.06C16.0619 63.86 16.4752 65.02 16.4752 66.54V73H14.6752V66.8C14.6752 65.7067 14.4019 64.8733 13.8552 64.3C13.3086 63.7133 12.5619 63.42 11.6152 63.42C10.6552 63.42 9.88857 63.72 9.31523 64.32C8.75523 64.92 8.47523 65.7933 8.47523 66.94V73H6.65523V62.04H8.47523V63.6C8.83523 63.04 9.3219 62.6067 9.93523 62.3C10.5619 61.9933 11.2486 61.84 11.9952 61.84ZM20.3882 60.26C20.0415 60.26 19.7482 60.14 19.5082 59.9C19.2682 59.66 19.1482 59.3667 19.1482 59.02C19.1482 58.6733 19.2682 58.38 19.5082 58.14C19.7482 57.9 20.0415 57.78 20.3882 57.78C20.7215 57.78 21.0015 57.9 21.2282 58.14C21.4682 58.38 21.5882 58.6733 21.5882 59.02C21.5882 59.3667 21.4682 59.66 21.2282 59.9C21.0015 60.14 20.7215 60.26 20.3882 60.26ZM21.2682 62.04V73H19.4482V62.04H21.2682ZM26.5901 63.54V70C26.5901 70.5333 26.7034 70.9133 26.9301 71.14C27.1567 71.3533 27.5501 71.46 28.1101 71.46H29.4501V73H27.8101C26.7967 73 26.0367 72.7667 25.5301 72.3C25.0234 71.8333 24.7701 71.0667 24.7701 70V63.54H23.3501V62.04H24.7701V59.28H26.5901V62.04H29.4501V63.54H26.5901ZM32.5952 60.26C32.2486 60.26 31.9552 60.14 31.7152 59.9C31.4752 59.66 31.3552 59.3667 31.3552 59.02C31.3552 58.6733 31.4752 58.38 31.7152 58.14C31.9552 57.9 32.2486 57.78 32.5952 57.78C32.9286 57.78 33.2086 57.9 33.4352 58.14C33.6752 58.38 33.7952 58.6733 33.7952 59.02C33.7952 59.3667 33.6752 59.66 33.4352 59.9C33.2086 60.14 32.9286 60.26 32.5952 60.26ZM33.4752 62.04V73H31.6552V62.04H33.4752ZM35.8971 67.48C35.8971 66.36 36.1238 65.38 36.5771 64.54C37.0304 63.6867 37.6504 63.0267 38.4371 62.56C39.2371 62.0933 40.1238 61.86 41.0971 61.86C42.0571 61.86 42.8904 62.0667 43.5971 62.48C44.3038 62.8933 44.8304 63.4133 45.1771 64.04V62.04H47.0171V73H45.1771V70.96C44.8171 71.6 44.2771 72.1333 43.5571 72.56C42.8504 72.9733 42.0238 73.18 41.0771 73.18C40.1038 73.18 39.2238 72.94 38.4371 72.46C37.6504 71.98 37.0304 71.3067 36.5771 70.44C36.1238 69.5733 35.8971 68.5867 35.8971 67.48ZM45.1771 67.5C45.1771 66.6733 45.0104 65.9533 44.6771 65.34C44.3438 64.7267 43.8904 64.26 43.3171 63.94C42.7571 63.6067 42.1371 63.44 41.4571 63.44C40.7771 63.44 40.1571 63.6 39.5971 63.92C39.0371 64.24 38.5904 64.7067 38.2571 65.32C37.9238 65.9333 37.7571 66.6533 37.7571 67.48C37.7571 68.32 37.9238 69.0533 38.2571 69.68C38.5904 70.2933 39.0371 70.7667 39.5971 71.1C40.1571 71.42 40.7771 71.58 41.4571 71.58C42.1371 71.58 42.7571 71.42 43.3171 71.1C43.8904 70.7667 44.3438 70.2933 44.6771 69.68C45.0104 69.0533 45.1771 68.3267 45.1771 67.5ZM52.3127 63.54V70C52.3127 70.5333 52.4261 70.9133 52.6527 71.14C52.8794 71.3533 53.2727 71.46 53.8327 71.46H55.1727V73H53.5327C52.5194 73 51.7594 72.7667 51.2527 72.3C50.7461 71.8333 50.4927 71.0667 50.4927 70V63.54H49.0727V62.04H50.4927V59.28H52.3127V62.04H55.1727V63.54H52.3127ZM58.3179 60.26C57.9712 60.26 57.6779 60.14 57.4379 59.9C57.1979 59.66 57.0779 59.3667 57.0779 59.02C57.0779 58.6733 57.1979 58.38 57.4379 58.14C57.6779 57.9 57.9712 57.78 58.3179 57.78C58.6512 57.78 58.9312 57.9 59.1579 58.14C59.3979 58.38 59.5179 58.6733 59.5179 59.02C59.5179 59.3667 59.3979 59.66 59.1579 59.9C58.9312 60.14 58.6512 60.26 58.3179 60.26ZM59.1979 62.04V73H57.3779V62.04H59.1979ZM66.3798 71.32L69.7798 62.04H71.7198L67.4198 73H65.2998L60.9998 62.04H62.9598L66.3798 71.32ZM83.5107 67.1C83.5107 67.4467 83.4907 67.8133 83.4507 68.2H74.6907C74.7574 69.28 75.124 70.1267 75.7907 70.74C76.4707 71.34 77.2907 71.64 78.2507 71.64C79.0374 71.64 79.6907 71.46 80.2107 71.1C80.744 70.7267 81.1174 70.2333 81.3307 69.62H83.2907C82.9974 70.6733 82.4107 71.5333 81.5307 72.2C80.6507 72.8533 79.5574 73.18 78.2507 73.18C77.2107 73.18 76.2774 72.9467 75.4507 72.48C74.6374 72.0133 73.9974 71.3533 73.5307 70.5C73.064 69.6333 72.8307 68.6333 72.8307 67.5C72.8307 66.3667 73.0574 65.3733 73.5107 64.52C73.964 63.6667 74.5974 63.0133 75.4107 62.56C76.2374 62.0933 77.184 61.86 78.2507 61.86C79.2907 61.86 80.2107 62.0867 81.0107 62.54C81.8107 62.9933 82.424 63.62 82.8507 64.42C83.2907 65.2067 83.5107 66.1 83.5107 67.1ZM81.6307 66.72C81.6307 66.0267 81.4774 65.4333 81.1707 64.94C80.864 64.4333 80.444 64.0533 79.9107 63.8C79.3907 63.5333 78.8107 63.4 78.1707 63.4C77.2507 63.4 76.464 63.6933 75.8107 64.28C75.1707 64.8667 74.804 65.68 74.7107 66.72H81.6307ZM90.9051 62.18C90.9984 60.9533 91.4717 59.9933 92.3251 59.3C93.1784 58.6067 94.2851 58.26 95.6451 58.26C96.5517 58.26 97.3317 58.4267 97.9851 58.76C98.6517 59.08 99.1517 59.52 99.4851 60.08C99.8317 60.64 100.005 61.2733 100.005 61.98C100.005 62.8067 99.7651 63.52 99.2851 64.12C98.8184 64.72 98.2051 65.1067 97.4451 65.28V65.38C98.3117 65.5933 98.9984 66.0133 99.5051 66.64C100.012 67.2667 100.265 68.0867 100.265 69.1C100.265 69.86 100.092 70.5467 99.7451 71.16C99.3984 71.76 98.8784 72.2333 98.1851 72.58C97.4917 72.9267 96.6584 73.1 95.6851 73.1C94.2717 73.1 93.1117 72.7333 92.2051 72C91.2984 71.2533 90.7917 70.2 90.6851 68.84H92.4451C92.5384 69.64 92.8651 70.2933 93.4251 70.8C93.9851 71.3067 94.7317 71.56 95.6651 71.56C96.5984 71.56 97.3051 71.32 97.7851 70.84C98.2784 70.3467 98.5251 69.7133 98.5251 68.94C98.5251 67.94 98.1917 67.22 97.5251 66.78C96.8584 66.34 95.8517 66.12 94.5051 66.12H94.0451V64.6H94.5251C95.7517 64.5867 96.6784 64.3867 97.3051 64C97.9317 63.6 98.2451 62.9867 98.2451 62.16C98.2451 61.4533 98.0117 60.8867 97.5451 60.46C97.0917 60.0333 96.4384 59.82 95.5851 59.82C94.7584 59.82 94.0917 60.0333 93.5851 60.46C93.0784 60.8867 92.7784 61.46 92.6851 62.18H90.9051ZM115.954 64.9V66.44H107.974V64.9H115.954ZM126.522 59.06V73H124.702V59.06H126.522ZM134.964 61.84C136.297 61.84 137.377 62.2467 138.204 63.06C139.031 63.86 139.444 65.02 139.444 66.54V73H137.644V66.8C137.644 65.7067 137.371 64.8733 136.824 64.3C136.277 63.7133 135.531 63.42 134.584 63.42C133.624 63.42 132.857 63.72 132.284 64.32C131.724 64.92 131.444 65.7933 131.444 66.94V73H129.624V62.04H131.444V63.6C131.804 63.04 132.291 62.6067 132.904 62.3C133.531 61.9933 134.217 61.84 134.964 61.84ZM144.637 63.54V70C144.637 70.5333 144.75 70.9133 144.977 71.14C145.204 71.3533 145.597 71.46 146.157 71.46H147.497V73H145.857C144.844 73 144.084 72.7667 143.577 72.3C143.07 71.8333 142.817 71.0667 142.817 70V63.54H141.397V62.04H142.817V59.28H144.637V62.04H147.497V63.54H144.637ZM159.702 67.1C159.702 67.4467 159.682 67.8133 159.642 68.2H150.882C150.949 69.28 151.315 70.1267 151.982 70.74C152.662 71.34 153.482 71.64 154.442 71.64C155.229 71.64 155.882 71.46 156.402 71.1C156.935 70.7267 157.309 70.2333 157.522 69.62H159.482C159.189 70.6733 158.602 71.5333 157.722 72.2C156.842 72.8533 155.749 73.18 154.442 73.18C153.402 73.18 152.469 72.9467 151.642 72.48C150.829 72.0133 150.189 71.3533 149.722 70.5C149.255 69.6333 149.022 68.6333 149.022 67.5C149.022 66.3667 149.249 65.3733 149.702 64.52C150.155 63.6667 150.789 63.0133 151.602 62.56C152.429 62.0933 153.375 61.86 154.442 61.86C155.482 61.86 156.402 62.0867 157.202 62.54C158.002 62.9933 158.615 63.62 159.042 64.42C159.482 65.2067 159.702 66.1 159.702 67.1ZM157.822 66.72C157.822 66.0267 157.669 65.4333 157.362 64.94C157.055 64.4333 156.635 64.0533 156.102 63.8C155.582 63.5333 155.002 63.4 154.362 63.4C153.442 63.4 152.655 63.6933 152.002 64.28C151.362 64.8667 150.995 65.68 150.902 66.72H157.822ZM163.924 63.82C164.244 63.1933 164.698 62.7067 165.284 62.36C165.884 62.0133 166.611 61.84 167.464 61.84V63.72H166.984C164.944 63.72 163.924 64.8267 163.924 67.04V73H162.104V62.04H163.924V63.82ZM168.885 67.48C168.885 66.36 169.112 65.38 169.565 64.54C170.019 63.6867 170.639 63.0267 171.425 62.56C172.225 62.0933 173.112 61.86 174.085 61.86C175.045 61.86 175.879 62.0667 176.585 62.48C177.292 62.8933 177.819 63.4133 178.165 64.04V62.04H180.005V73H178.165V70.96C177.805 71.6 177.265 72.1333 176.545 72.56C175.839 72.9733 175.012 73.18 174.065 73.18C173.092 73.18 172.212 72.94 171.425 72.46C170.639 71.98 170.019 71.3067 169.565 70.44C169.112 69.5733 168.885 68.5867 168.885 67.48ZM178.165 67.5C178.165 66.6733 177.999 65.9533 177.665 65.34C177.332 64.7267 176.879 64.26 176.305 63.94C175.745 63.6067 175.125 63.44 174.445 63.44C173.765 63.44 173.145 63.6 172.585 63.92C172.025 64.24 171.579 64.7067 171.245 65.32C170.912 65.9333 170.745 66.6533 170.745 67.48C170.745 68.32 170.912 69.0533 171.245 69.68C171.579 70.2933 172.025 70.7667 172.585 71.1C173.145 71.42 173.765 71.58 174.445 71.58C175.125 71.58 175.745 71.42 176.305 71.1C176.879 70.7667 177.332 70.2933 177.665 69.68C177.999 69.0533 178.165 68.3267 178.165 67.5ZM182.401 67.5C182.401 66.3667 182.628 65.38 183.081 64.54C183.534 63.6867 184.161 63.0267 184.961 62.56C185.774 62.0933 186.701 61.86 187.741 61.86C189.088 61.86 190.194 62.1867 191.061 62.84C191.941 63.4933 192.521 64.4 192.801 65.56H190.841C190.654 64.8933 190.288 64.3667 189.741 63.98C189.208 63.5933 188.541 63.4 187.741 63.4C186.701 63.4 185.861 63.76 185.221 64.48C184.581 65.1867 184.261 66.1933 184.261 67.5C184.261 68.82 184.581 69.84 185.221 70.56C185.861 71.28 186.701 71.64 187.741 71.64C188.541 71.64 189.208 71.4533 189.741 71.08C190.274 70.7067 190.641 70.1733 190.841 69.48H192.801C192.508 70.6 191.921 71.5 191.041 72.18C190.161 72.8467 189.061 73.18 187.741 73.18C186.701 73.18 185.774 72.9467 184.961 72.48C184.161 72.0133 183.534 71.3533 183.081 70.5C182.628 69.6467 182.401 68.6467 182.401 67.5ZM197.449 63.54V70C197.449 70.5333 197.563 70.9133 197.789 71.14C198.016 71.3533 198.409 71.46 198.969 71.46H200.309V73H198.669C197.656 73 196.896 72.7667 196.389 72.3C195.883 71.8333 195.629 71.0667 195.629 70V63.54H194.209V62.04H195.629V59.28H197.449V62.04H200.309V63.54H197.449ZM203.455 60.26C203.108 60.26 202.815 60.14 202.575 59.9C202.335 59.66 202.215 59.3667 202.215 59.02C202.215 58.6733 202.335 58.38 202.575 58.14C202.815 57.9 203.108 57.78 203.455 57.78C203.788 57.78 204.068 57.9 204.295 58.14C204.535 58.38 204.655 58.6733 204.655 59.02C204.655 59.3667 204.535 59.66 204.295 59.9C204.068 60.14 203.788 60.26 203.455 60.26ZM204.335 62.04V73H202.515V62.04H204.335ZM212.216 73.18C211.19 73.18 210.256 72.9467 209.416 72.48C208.59 72.0133 207.936 71.3533 207.456 70.5C206.99 69.6333 206.756 68.6333 206.756 67.5C206.756 66.38 206.996 65.3933 207.476 64.54C207.97 63.6733 208.636 63.0133 209.476 62.56C210.316 62.0933 211.256 61.86 212.296 61.86C213.336 61.86 214.276 62.0933 215.116 62.56C215.956 63.0133 216.616 63.6667 217.096 64.52C217.59 65.3733 217.836 66.3667 217.836 67.5C217.836 68.6333 217.583 69.6333 217.076 70.5C216.583 71.3533 215.91 72.0133 215.056 72.48C214.203 72.9467 213.256 73.18 212.216 73.18ZM212.216 71.58C212.87 71.58 213.483 71.4267 214.056 71.12C214.63 70.8133 215.09 70.3533 215.436 69.74C215.796 69.1267 215.976 68.38 215.976 67.5C215.976 66.62 215.803 65.8733 215.456 65.26C215.11 64.6467 214.656 64.1933 214.096 63.9C213.536 63.5933 212.93 63.44 212.276 63.44C211.61 63.44 210.996 63.5933 210.436 63.9C209.89 64.1933 209.45 64.6467 209.116 65.26C208.783 65.8733 208.616 66.62 208.616 67.5C208.616 68.3933 208.776 69.1467 209.096 69.76C209.43 70.3733 209.87 70.8333 210.416 71.14C210.963 71.4333 211.563 71.58 212.216 71.58ZM225.569 61.84C226.903 61.84 227.983 62.2467 228.809 63.06C229.636 63.86 230.049 65.02 230.049 66.54V73H228.249V66.8C228.249 65.7067 227.976 64.8733 227.429 64.3C226.883 63.7133 226.136 63.42 225.189 63.42C224.229 63.42 223.463 63.72 222.889 64.32C222.329 64.92 222.049 65.7933 222.049 66.94V73H220.229V62.04H222.049V63.6C222.409 63.04 222.896 62.6067 223.509 62.3C224.136 61.9933 224.823 61.84 225.569 61.84ZM237.674 67.5C237.674 66.3667 237.901 65.38 238.354 64.54C238.808 63.6867 239.434 63.0267 240.234 62.56C241.048 62.0933 241.974 61.86 243.014 61.86C244.361 61.86 245.468 62.1867 246.334 62.84C247.214 63.4933 247.794 64.4 248.074 65.56H246.114C245.928 64.8933 245.561 64.3667 245.014 63.98C244.481 63.5933 243.814 63.4 243.014 63.4C241.974 63.4 241.134 63.76 240.494 64.48C239.854 65.1867 239.534 66.1933 239.534 67.5C239.534 68.82 239.854 69.84 240.494 70.56C241.134 71.28 241.974 71.64 243.014 71.64C243.814 71.64 244.481 71.4533 245.014 71.08C245.548 70.7067 245.914 70.1733 246.114 69.48H248.074C247.781 70.6 247.194 71.5 246.314 72.18C245.434 72.8467 244.334 73.18 243.014 73.18C241.974 73.18 241.048 72.9467 240.234 72.48C239.434 72.0133 238.808 71.3533 238.354 70.5C237.901 69.6467 237.674 68.6467 237.674 67.5ZM252.323 63.82C252.643 63.1933 253.096 62.7067 253.683 62.36C254.283 62.0133 255.01 61.84 255.863 61.84V63.72H255.383C253.343 63.72 252.323 64.8267 252.323 67.04V73H250.503V62.04H252.323V63.82ZM257.284 67.48C257.284 66.36 257.51 65.38 257.964 64.54C258.417 63.6867 259.037 63.0267 259.824 62.56C260.624 62.0933 261.51 61.86 262.484 61.86C263.444 61.86 264.277 62.0667 264.984 62.48C265.69 62.8933 266.217 63.4133 266.564 64.04V62.04H268.404V73H266.564V70.96C266.204 71.6 265.664 72.1333 264.944 72.56C264.237 72.9733 263.41 73.18 262.464 73.18C261.49 73.18 260.61 72.94 259.824 72.46C259.037 71.98 258.417 71.3067 257.964 70.44C257.51 69.5733 257.284 68.5867 257.284 67.48ZM266.564 67.5C266.564 66.6733 266.397 65.9533 266.064 65.34C265.73 64.7267 265.277 64.26 264.704 63.94C264.144 63.6067 263.524 63.44 262.844 63.44C262.164 63.44 261.544 63.6 260.984 63.92C260.424 64.24 259.977 64.7067 259.644 65.32C259.31 65.9333 259.144 66.6533 259.144 67.48C259.144 68.32 259.31 69.0533 259.644 69.68C259.977 70.2933 260.424 70.7667 260.984 71.1C261.544 71.42 262.164 71.58 262.844 71.58C263.524 71.58 264.144 71.42 264.704 71.1C265.277 70.7667 265.73 70.2933 266.064 69.68C266.397 69.0533 266.564 68.3267 266.564 67.5ZM275.939 63.54H273.639V73H271.819V63.54H270.399V62.04H271.819V61.26C271.819 60.0333 272.133 59.14 272.759 58.58C273.399 58.0067 274.419 57.72 275.819 57.72V59.24C275.019 59.24 274.453 59.4 274.119 59.72C273.799 60.0267 273.639 60.54 273.639 61.26V62.04H275.939V63.54ZM280.281 63.54V70C280.281 70.5333 280.395 70.9133 280.621 71.14C280.848 71.3533 281.241 71.46 281.801 71.46H283.141V73H281.501C280.488 73 279.728 72.7667 279.221 72.3C278.715 71.8333 278.461 71.0667 278.461 70V63.54H277.041V62.04H278.461V59.28H280.281V62.04H283.141V63.54H280.281ZM11.74 92.8C12.5533 92.9733 13.2067 93.38 13.7 94.02C14.1933 94.6467 14.44 95.3667 14.44 96.18C14.44 97.3533 14.0267 98.2867 13.2 98.98C12.3867 99.66 11.2467 100 9.78 100H3.24V85.96H9.56C10.9867 85.96 12.1 86.2867 12.9 86.94C13.7133 87.5933 14.12 88.48 14.12 89.6C14.12 90.4267 13.9 91.1133 13.46 91.66C13.0333 92.2067 12.46 92.5867 11.74 92.8ZM6.66 91.64H8.9C9.46 91.64 9.88667 91.52 10.18 91.28C10.4867 91.0267 10.64 90.66 10.64 90.18C10.64 89.7 10.4867 89.3333 10.18 89.08C9.88667 88.8267 9.46 88.7 8.9 88.7H6.66V91.64ZM9.18 97.24C9.75333 97.24 10.1933 97.1133 10.5 96.86C10.82 96.5933 10.98 96.2133 10.98 95.72C10.98 95.2267 10.8133 94.84 10.48 94.56C10.16 94.28 9.71333 94.14 9.14 94.14H6.66V97.24H9.18ZM18.1436 87.68C17.5436 87.68 17.0503 87.5067 16.6636 87.16C16.2903 86.8 16.1036 86.36 16.1036 85.84C16.1036 85.3067 16.2903 84.8667 16.6636 84.52C17.0503 84.16 17.5436 83.98 18.1436 83.98C18.7303 83.98 19.2103 84.16 19.5836 84.52C19.9703 84.8667 20.1636 85.3067 20.1636 85.84C20.1636 86.36 19.9703 86.8 19.5836 87.16C19.2103 87.5067 18.7303 87.68 18.1436 87.68ZM19.8436 88.84V100H16.4236V88.84H19.8436ZM25.522 97.18H30.362V100H21.702V97.28L26.342 91.66H21.742V88.84H30.262V91.56L25.522 97.18ZM42.7022 97.1V100H40.9622C39.7222 100 38.7555 99.7 38.0622 99.1C37.3689 98.4867 37.0222 97.4933 37.0222 96.12V91.68H35.6622V88.84H37.0222V86.12H40.4422V88.84H42.6822V91.68H40.4422V96.16C40.4422 96.4933 40.5222 96.7333 40.6822 96.88C40.8422 97.0267 41.1089 97.1 41.4822 97.1H42.7022ZM43.9272 94.4C43.9272 93.2533 44.1405 92.2467 44.5672 91.38C45.0072 90.5133 45.6005 89.8467 46.3472 89.38C47.0939 88.9133 47.9272 88.68 48.8472 88.68C49.6339 88.68 50.3205 88.84 50.9072 89.16C51.5072 89.48 51.9672 89.9 52.2872 90.42V88.84H55.7072V100H52.2872V98.42C51.9539 98.94 51.4872 99.36 50.8872 99.68C50.3005 100 49.6139 100.16 48.8272 100.16C47.9205 100.16 47.0939 99.9267 46.3472 99.46C45.6005 98.98 45.0072 98.3067 44.5672 97.44C44.1405 96.56 43.9272 95.5467 43.9272 94.4ZM52.2872 94.42C52.2872 93.5667 52.0472 92.8933 51.5672 92.4C51.1005 91.9067 50.5272 91.66 49.8472 91.66C49.1672 91.66 48.5872 91.9067 48.1072 92.4C47.6405 92.88 47.4072 93.5467 47.4072 94.4C47.4072 95.2533 47.6405 95.9333 48.1072 96.44C48.5872 96.9333 49.1672 97.18 49.8472 97.18C50.5272 97.18 51.1005 96.9333 51.5672 96.44C52.0472 95.9467 52.2872 95.2733 52.2872 94.42ZM62.4214 88.68C63.2081 88.68 63.8947 88.84 64.4814 89.16C65.0814 89.48 65.5414 89.9 65.8614 90.42V88.84H69.2814V99.98C69.2814 101.007 69.0747 101.933 68.6614 102.76C68.2614 103.6 67.6414 104.267 66.8014 104.76C65.9747 105.253 64.9414 105.5 63.7014 105.5C62.0481 105.5 60.7081 105.107 59.6814 104.32C58.6547 103.547 58.0681 102.493 57.9214 101.16H61.3014C61.4081 101.587 61.6614 101.92 62.0614 102.16C62.4614 102.413 62.9547 102.54 63.5414 102.54C64.2481 102.54 64.8081 102.333 65.2214 101.92C65.6481 101.52 65.8614 100.873 65.8614 99.98V98.4C65.5281 98.92 65.0681 99.3467 64.4814 99.68C63.8947 100 63.2081 100.16 62.4214 100.16C61.5014 100.16 60.6681 99.9267 59.9214 99.46C59.1747 98.98 58.5814 98.3067 58.1414 97.44C57.7147 96.56 57.5014 95.5467 57.5014 94.4C57.5014 93.2533 57.7147 92.2467 58.1414 91.38C58.5814 90.5133 59.1747 89.8467 59.9214 89.38C60.6681 88.9133 61.5014 88.68 62.4214 88.68ZM65.8614 94.42C65.8614 93.5667 65.6214 92.8933 65.1414 92.4C64.6747 91.9067 64.1014 91.66 63.4214 91.66C62.7414 91.66 62.1614 91.9067 61.6814 92.4C61.2147 92.88 60.9814 93.5467 60.9814 94.4C60.9814 95.2533 61.2147 95.9333 61.6814 96.44C62.1614 96.9333 62.7414 97.18 63.4214 97.18C64.1014 97.18 64.6747 96.9333 65.1414 96.44C65.6214 95.9467 65.8614 95.2733 65.8614 94.42ZM75.9956 88.68C76.7823 88.68 77.469 88.84 78.0556 89.16C78.6556 89.48 79.1156 89.9 79.4356 90.42V88.84H82.8556V99.98C82.8556 101.007 82.649 101.933 82.2356 102.76C81.8356 103.6 81.2156 104.267 80.3756 104.76C79.549 105.253 78.5156 105.5 77.2756 105.5C75.6223 105.5 74.2823 105.107 73.2556 104.32C72.229 103.547 71.6423 102.493 71.4956 101.16H74.8756C74.9823 101.587 75.2356 101.92 75.6356 102.16C76.0356 102.413 76.529 102.54 77.1156 102.54C77.8223 102.54 78.3823 102.333 78.7956 101.92C79.2223 101.52 79.4356 100.873 79.4356 99.98V98.4C79.1023 98.92 78.6423 99.3467 78.0556 99.68C77.469 100 76.7823 100.16 75.9956 100.16C75.0756 100.16 74.2423 99.9267 73.4956 99.46C72.749 98.98 72.1556 98.3067 71.7156 97.44C71.289 96.56 71.0756 95.5467 71.0756 94.4C71.0756 93.2533 71.289 92.2467 71.7156 91.38C72.1556 90.5133 72.749 89.8467 73.4956 89.38C74.2423 88.9133 75.0756 88.68 75.9956 88.68ZM79.4356 94.42C79.4356 93.5667 79.1956 92.8933 78.7156 92.4C78.249 91.9067 77.6756 91.66 76.9956 91.66C76.3156 91.66 75.7356 91.9067 75.2556 92.4C74.789 92.88 74.5556 93.5467 74.5556 94.4C74.5556 95.2533 74.789 95.9333 75.2556 96.44C75.7356 96.9333 76.3156 97.18 76.9956 97.18C77.6756 97.18 78.249 96.9333 78.7156 96.44C79.1956 95.9467 79.4356 95.2733 79.4356 94.42ZM87.0498 87.68C86.4498 87.68 85.9565 87.5067 85.5698 87.16C85.1965 86.8 85.0098 86.36 85.0098 85.84C85.0098 85.3067 85.1965 84.8667 85.5698 84.52C85.9565 84.16 86.4498 83.98 87.0498 83.98C87.6365 83.98 88.1165 84.16 88.4898 84.52C88.8765 84.8667 89.0698 85.3067 89.0698 85.84C89.0698 86.36 88.8765 86.8 88.4898 87.16C88.1165 87.5067 87.6365 87.68 87.0498 87.68ZM88.7498 88.84V100H85.3298V88.84H88.7498ZM98.0283 88.72C99.3349 88.72 100.375 89.1467 101.148 90C101.935 90.84 102.328 92 102.328 93.48V100H98.9283V93.94C98.9283 93.1933 98.7349 92.6133 98.3483 92.2C97.9616 91.7867 97.4416 91.58 96.7883 91.58C96.1349 91.58 95.6149 91.7867 95.2283 92.2C94.8416 92.6133 94.6483 93.1933 94.6483 93.94V100H91.2283V88.84H94.6483V90.32C94.9949 89.8267 95.4616 89.44 96.0483 89.16C96.6349 88.8667 97.2949 88.72 98.0283 88.72ZM108.945 88.68C109.732 88.68 110.418 88.84 111.005 89.16C111.605 89.48 112.065 89.9 112.385 90.42V88.84H115.805V99.98C115.805 101.007 115.598 101.933 115.185 102.76C114.785 103.6 114.165 104.267 113.325 104.76C112.498 105.253 111.465 105.5 110.225 105.5C108.572 105.5 107.232 105.107 106.205 104.32C105.178 103.547 104.592 102.493 104.445 101.16H107.825C107.932 101.587 108.185 101.92 108.585 102.16C108.985 102.413 109.478 102.54 110.065 102.54C110.772 102.54 111.332 102.333 111.745 101.92C112.172 101.52 112.385 100.873 112.385 99.98V98.4C112.052 98.92 111.592 99.3467 111.005 99.68C110.418 100 109.732 100.16 108.945 100.16C108.025 100.16 107.192 99.9267 106.445 99.46C105.698 98.98 105.105 98.3067 104.665 97.44C104.238 96.56 104.025 95.5467 104.025 94.4C104.025 93.2533 104.238 92.2467 104.665 91.38C105.105 90.5133 105.698 89.8467 106.445 89.38C107.192 88.9133 108.025 88.68 108.945 88.68ZM112.385 94.42C112.385 93.5667 112.145 92.8933 111.665 92.4C111.198 91.9067 110.625 91.66 109.945 91.66C109.265 91.66 108.685 91.9067 108.205 92.4C107.738 92.88 107.505 93.5467 107.505 94.4C107.505 95.2533 107.738 95.9333 108.205 96.44C108.685 96.9333 109.265 97.18 109.945 97.18C110.625 97.18 111.198 96.9333 111.665 96.44C112.145 95.9467 112.385 95.2733 112.385 94.42ZM132.657 94.54H129.177V98.1H125.937V94.54H122.457V91.48H125.937V87.9H129.177V91.48H132.657V94.54ZM147.814 92.8C148.628 92.9733 149.281 93.38 149.774 94.02C150.268 94.6467 150.514 95.3667 150.514 96.18C150.514 97.3533 150.101 98.2867 149.274 98.98C148.461 99.66 147.321 100 145.854 100H139.314V85.96H145.634C147.061 85.96 148.174 86.2867 148.974 86.94C149.788 87.5933 150.194 88.48 150.194 89.6C150.194 90.4267 149.974 91.1133 149.534 91.66C149.108 92.2067 148.534 92.5867 147.814 92.8ZM142.734 91.64H144.974C145.534 91.64 145.961 91.52 146.254 91.28C146.561 91.0267 146.714 90.66 146.714 90.18C146.714 89.7 146.561 89.3333 146.254 89.08C145.961 88.8267 145.534 88.7 144.974 88.7H142.734V91.64ZM145.254 97.24C145.828 97.24 146.268 97.1133 146.574 96.86C146.894 96.5933 147.054 96.2133 147.054 95.72C147.054 95.2267 146.888 94.84 146.554 94.56C146.234 94.28 145.788 94.14 145.214 94.14H142.734V97.24H145.254ZM154.218 87.68C153.618 87.68 153.124 87.5067 152.738 87.16C152.364 86.8 152.178 86.36 152.178 85.84C152.178 85.3067 152.364 84.8667 152.738 84.52C153.124 84.16 153.618 83.98 154.218 83.98C154.804 83.98 155.284 84.16 155.658 84.52C156.044 84.8667 156.238 85.3067 156.238 85.84C156.238 86.36 156.044 86.8 155.658 87.16C155.284 87.5067 154.804 87.68 154.218 87.68ZM155.918 88.84V100H152.498V88.84H155.918ZM161.596 97.18H166.436V100H157.776V97.28L162.416 91.66H157.816V88.84H166.336V91.56L161.596 97.18ZM175.976 90.42C176.31 89.9 176.77 89.48 177.356 89.16C177.943 88.84 178.63 88.68 179.416 88.68C180.336 88.68 181.17 88.9133 181.916 89.38C182.663 89.8467 183.25 90.5133 183.676 91.38C184.116 92.2467 184.336 93.2533 184.336 94.4C184.336 95.5467 184.116 96.56 183.676 97.44C183.25 98.3067 182.663 98.98 181.916 99.46C181.17 99.9267 180.336 100.16 179.416 100.16C178.643 100.16 177.956 100 177.356 99.68C176.77 99.36 176.31 98.9467 175.976 98.44V105.32H172.556V88.84H175.976V90.42ZM180.856 94.4C180.856 93.5467 180.616 92.88 180.136 92.4C179.67 91.9067 179.09 91.66 178.396 91.66C177.716 91.66 177.136 91.9067 176.656 92.4C176.19 92.8933 175.956 93.5667 175.956 94.42C175.956 95.2733 176.19 95.9467 176.656 96.44C177.136 96.9333 177.716 97.18 178.396 97.18C179.076 97.18 179.656 96.9333 180.136 96.44C180.616 95.9333 180.856 95.2533 180.856 94.4ZM189.551 90.7C189.951 90.0867 190.451 89.6067 191.051 89.26C191.651 88.9 192.317 88.72 193.051 88.72V92.34H192.111C191.257 92.34 190.617 92.5267 190.191 92.9C189.764 93.26 189.551 93.9 189.551 94.82V100H186.131V88.84H189.551V90.7ZM199.765 100.16C198.672 100.16 197.685 99.9267 196.805 99.46C195.939 98.9933 195.252 98.3267 194.745 97.46C194.252 96.5933 194.005 95.58 194.005 94.42C194.005 93.2733 194.259 92.2667 194.765 91.4C195.272 90.52 195.965 89.8467 196.845 89.38C197.725 88.9133 198.712 88.68 199.805 88.68C200.899 88.68 201.885 88.9133 202.765 89.38C203.645 89.8467 204.339 90.52 204.845 91.4C205.352 92.2667 205.605 93.2733 205.605 94.42C205.605 95.5667 205.345 96.58 204.825 97.46C204.319 98.3267 203.619 98.9933 202.725 99.46C201.845 99.9267 200.859 100.16 199.765 100.16ZM199.765 97.2C200.419 97.2 200.972 96.96 201.425 96.48C201.892 96 202.125 95.3133 202.125 94.42C202.125 93.5267 201.899 92.84 201.445 92.36C201.005 91.88 200.459 91.64 199.805 91.64C199.139 91.64 198.585 91.88 198.145 92.36C197.705 92.8267 197.485 93.5133 197.485 94.42C197.485 95.3133 197.699 96 198.125 96.48C198.565 96.96 199.112 97.2 199.765 97.2ZM221.66 88.72C223.046 88.72 224.146 89.14 224.96 89.98C225.786 90.82 226.2 91.9867 226.2 93.48V100H222.8V93.94C222.8 93.22 222.606 92.6667 222.22 92.28C221.846 91.88 221.326 91.68 220.66 91.68C219.993 91.68 219.466 91.88 219.08 92.28C218.706 92.6667 218.52 93.22 218.52 93.94V100H215.12V93.94C215.12 93.22 214.926 92.6667 214.54 92.28C214.166 91.88 213.646 91.68 212.98 91.68C212.313 91.68 211.786 91.88 211.4 92.28C211.026 92.6667 210.84 93.22 210.84 93.94V100H207.42V88.84H210.84V90.24C211.186 89.7733 211.64 89.4067 212.2 89.14C212.76 88.86 213.393 88.72 214.1 88.72C214.94 88.72 215.686 88.9 216.34 89.26C217.006 89.62 217.526 90.1333 217.9 90.8C218.286 90.1867 218.813 89.6867 219.48 89.3C220.146 88.9133 220.873 88.72 221.66 88.72ZM232.012 90.42C232.345 89.9 232.805 89.48 233.392 89.16C233.978 88.84 234.665 88.68 235.452 88.68C236.372 88.68 237.205 88.9133 237.952 89.38C238.698 89.8467 239.285 90.5133 239.712 91.38C240.152 92.2467 240.372 93.2533 240.372 94.4C240.372 95.5467 240.152 96.56 239.712 97.44C239.285 98.3067 238.698 98.98 237.952 99.46C237.205 99.9267 236.372 100.16 235.452 100.16C234.678 100.16 233.992 100 233.392 99.68C232.805 99.36 232.345 98.9467 232.012 98.44V105.32H228.592V88.84H232.012V90.42ZM236.892 94.4C236.892 93.5467 236.652 92.88 236.172 92.4C235.705 91.9067 235.125 91.66 234.432 91.66C233.752 91.66 233.172 91.9067 232.692 92.4C232.225 92.8933 231.992 93.5667 231.992 94.42C231.992 95.2733 232.225 95.9467 232.692 96.44C233.172 96.9333 233.752 97.18 234.432 97.18C235.112 97.18 235.692 96.9333 236.172 96.44C236.652 95.9333 236.892 95.2533 236.892 94.4ZM248.386 97.1V100H246.646C245.406 100 244.439 99.7 243.746 99.1C243.052 98.4867 242.706 97.4933 242.706 96.12V91.68H241.346V88.84H242.706V86.12H246.126V88.84H248.366V91.68H246.126V96.16C246.126 96.4933 246.206 96.7333 246.366 96.88C246.526 97.0267 246.792 97.1 247.166 97.1H248.386ZM252.011 87.68C251.411 87.68 250.917 87.5067 250.531 87.16C250.157 86.8 249.971 86.36 249.971 85.84C249.971 85.3067 250.157 84.8667 250.531 84.52C250.917 84.16 251.411 83.98 252.011 83.98C252.597 83.98 253.077 84.16 253.451 84.52C253.837 84.8667 254.031 85.3067 254.031 85.84C254.031 86.36 253.837 86.8 253.451 87.16C253.077 87.5067 252.597 87.68 252.011 87.68ZM253.711 88.84V100H250.291V88.84H253.711ZM262.989 88.72C264.296 88.72 265.336 89.1467 266.109 90C266.896 90.84 267.289 92 267.289 93.48V100H263.889V93.94C263.889 93.1933 263.696 92.6133 263.309 92.2C262.923 91.7867 262.403 91.58 261.749 91.58C261.096 91.58 260.576 91.7867 260.189 92.2C259.803 92.6133 259.609 93.1933 259.609 93.94V100H256.189V88.84H259.609V90.32C259.956 89.8267 260.423 89.44 261.009 89.16C261.596 88.8667 262.256 88.72 262.989 88.72ZM273.906 88.68C274.692 88.68 275.379 88.84 275.966 89.16C276.566 89.48 277.026 89.9 277.346 90.42V88.84H280.766V99.98C280.766 101.007 280.559 101.933 280.146 102.76C279.746 103.6 279.126 104.267 278.286 104.76C277.459 105.253 276.426 105.5 275.186 105.5C273.532 105.5 272.192 105.107 271.166 104.32C270.139 103.547 269.552 102.493 269.406 101.16H272.786C272.892 101.587 273.146 101.92 273.546 102.16C273.946 102.413 274.439 102.54 275.026 102.54C275.732 102.54 276.292 102.333 276.706 101.92C277.132 101.52 277.346 100.873 277.346 99.98V98.4C277.012 98.92 276.552 99.3467 275.966 99.68C275.379 100 274.692 100.16 273.906 100.16C272.986 100.16 272.152 99.9267 271.406 99.46C270.659 98.98 270.066 98.3067 269.626 97.44C269.199 96.56 268.986 95.5467 268.986 94.4C268.986 93.2533 269.199 92.2467 269.626 91.38C270.066 90.5133 270.659 89.8467 271.406 89.38C272.152 88.9133 272.986 88.68 273.906 88.68ZM277.346 94.42C277.346 93.5667 277.106 92.8933 276.626 92.4C276.159 91.9067 275.586 91.66 274.906 91.66C274.226 91.66 273.646 91.9067 273.166 92.4C272.699 92.88 272.466 93.5467 272.466 94.4C272.466 95.2533 272.699 95.9333 273.166 96.44C273.646 96.9333 274.226 97.18 274.906 97.18C275.586 97.18 276.159 96.9333 276.626 96.44C277.106 95.9467 277.346 95.2733 277.346 94.42Z" fill="#333333"/>
</svg>
