<svg width="337" height="160" viewBox="0 0 337 160" fill="none" xmlns="http://www.w3.org/2000/svg">
<rect x="88.835" y="1" width="158" height="158" rx="79" stroke="#333333" stroke-width="2"/>
<rect width="215" height="62" transform="translate(60.335 48.543)" fill="#F2F2F2"/>
<path d="M1.81996 58.603V72.543H-3.89218e-05V58.603H1.81996ZM10.2618 61.383C11.5952 61.383 12.6752 61.7896 13.5018 62.603C14.3285 63.403 14.7418 64.563 14.7418 66.083V72.543H12.9418V66.343C12.9418 65.2496 12.6685 64.4163 12.1218 63.843C11.5752 63.2563 10.8285 62.963 9.88184 62.963C8.92184 62.963 8.15517 63.263 7.58184 63.863C7.02184 64.463 6.74184 65.3363 6.74184 66.483V72.543H4.92184V61.583H6.74184V63.143C7.10184 62.583 7.5885 62.1496 8.20184 61.843C8.8285 61.5363 9.51517 61.383 10.2618 61.383ZM18.6548 59.803C18.3081 59.803 18.0148 59.683 17.7748 59.443C17.5348 59.203 17.4148 58.9096 17.4148 58.563C17.4148 58.2163 17.5348 57.923 17.7748 57.683C18.0148 57.443 18.3081 57.323 18.6548 57.323C18.9881 57.323 19.2681 57.443 19.4948 57.683C19.7348 57.923 19.8548 58.2163 19.8548 58.563C19.8548 58.9096 19.7348 59.203 19.4948 59.443C19.2681 59.683 18.9881 59.803 18.6548 59.803ZM19.5348 61.583V72.543H17.7148V61.583H19.5348ZM24.8567 63.083V69.543C24.8567 70.0763 24.97 70.4563 25.1967 70.683C25.4233 70.8963 25.8167 71.003 26.3767 71.003H27.7167V72.543H26.0767C25.0633 72.543 24.3033 72.3096 23.7967 71.843C23.29 71.3763 23.0367 70.6096 23.0367 69.543V63.083H21.6167V61.583H23.0367V58.823H24.8567V61.583H27.7167V63.083H24.8567ZM30.8618 59.803C30.5152 59.803 30.2218 59.683 29.9818 59.443C29.7418 59.203 29.6218 58.9096 29.6218 58.563C29.6218 58.2163 29.7418 57.923 29.9818 57.683C30.2218 57.443 30.5152 57.323 30.8618 57.323C31.1952 57.323 31.4752 57.443 31.7018 57.683C31.9418 57.923 32.0618 58.2163 32.0618 58.563C32.0618 58.9096 31.9418 59.203 31.7018 59.443C31.4752 59.683 31.1952 59.803 30.8618 59.803ZM31.7418 61.583V72.543H29.9218V61.583H31.7418ZM34.1637 67.023C34.1637 65.903 34.3904 64.923 34.8437 64.083C35.297 63.2296 35.917 62.5696 36.7037 62.103C37.5037 61.6363 38.3904 61.403 39.3637 61.403C40.3237 61.403 41.157 61.6096 41.8637 62.023C42.5704 62.4363 43.097 62.9563 43.4437 63.583V61.583H45.2837V72.543H43.4437V70.503C43.0837 71.143 42.5437 71.6763 41.8237 72.103C41.117 72.5163 40.2904 72.723 39.3437 72.723C38.3704 72.723 37.4904 72.483 36.7037 72.003C35.917 71.523 35.297 70.8496 34.8437 69.983C34.3904 69.1163 34.1637 68.1296 34.1637 67.023ZM43.4437 67.043C43.4437 66.2163 43.277 65.4963 42.9437 64.883C42.6104 64.2696 42.157 63.803 41.5837 63.483C41.0237 63.1496 40.4037 62.983 39.7237 62.983C39.0437 62.983 38.4237 63.143 37.8637 63.463C37.3037 63.783 36.857 64.2496 36.5237 64.863C36.1904 65.4763 36.0237 66.1963 36.0237 67.023C36.0237 67.863 36.1904 68.5963 36.5237 69.223C36.857 69.8363 37.3037 70.3096 37.8637 70.643C38.4237 70.963 39.0437 71.123 39.7237 71.123C40.4037 71.123 41.0237 70.963 41.5837 70.643C42.157 70.3096 42.6104 69.8363 42.9437 69.223C43.277 68.5963 43.4437 67.8696 43.4437 67.043ZM50.5793 63.083V69.543C50.5793 70.0763 50.6927 70.4563 50.9193 70.683C51.146 70.8963 51.5393 71.003 52.0993 71.003H53.4393V72.543H51.7993C50.786 72.543 50.026 72.3096 49.5193 71.843C49.0127 71.3763 48.7593 70.6096 48.7593 69.543V63.083H47.3393V61.583H48.7593V58.823H50.5793V61.583H53.4393V63.083H50.5793ZM56.5845 59.803C56.2378 59.803 55.9445 59.683 55.7045 59.443C55.4645 59.203 55.3445 58.9096 55.3445 58.563C55.3445 58.2163 55.4645 57.923 55.7045 57.683C55.9445 57.443 56.2378 57.323 56.5845 57.323C56.9178 57.323 57.1978 57.443 57.4245 57.683C57.6645 57.923 57.7845 58.2163 57.7845 58.563C57.7845 58.9096 57.6645 59.203 57.4245 59.443C57.1978 59.683 56.9178 59.803 56.5845 59.803ZM57.4645 61.583V72.543H55.6445V61.583H57.4645ZM64.6464 70.863L68.0464 61.583H69.9864L65.6864 72.543H63.5664L59.2664 61.583H61.2264L64.6464 70.863ZM81.7773 66.643C81.7773 66.9896 81.7573 67.3563 81.7173 67.743H72.9573C73.024 68.823 73.3906 69.6696 74.0573 70.283C74.7373 70.883 75.5573 71.183 76.5173 71.183C77.304 71.183 77.9573 71.003 78.4773 70.643C79.0106 70.2696 79.384 69.7763 79.5973 69.163H81.5573C81.264 70.2163 80.6773 71.0763 79.7973 71.743C78.9173 72.3963 77.824 72.723 76.5173 72.723C75.4773 72.723 74.544 72.4896 73.7173 72.023C72.904 71.5563 72.264 70.8963 71.7973 70.043C71.3306 69.1763 71.0973 68.1763 71.0973 67.043C71.0973 65.9096 71.324 64.9163 71.7773 64.063C72.2306 63.2096 72.864 62.5563 73.6773 62.103C74.504 61.6363 75.4506 61.403 76.5173 61.403C77.5573 61.403 78.4773 61.6296 79.2773 62.083C80.0773 62.5363 80.6906 63.163 81.1173 63.963C81.5573 64.7496 81.7773 65.643 81.7773 66.643ZM79.8973 66.263C79.8973 65.5696 79.744 64.9763 79.4373 64.483C79.1306 63.9763 78.7106 63.5963 78.1773 63.343C77.6573 63.0763 77.0773 62.943 76.4373 62.943C75.5173 62.943 74.7306 63.2363 74.0773 63.823C73.4373 64.4096 73.0706 65.223 72.9773 66.263H79.8973ZM88.7717 69.323V67.943L95.7917 58.223H97.9717V67.743H99.9717V69.323H97.9717V72.543H96.1717V69.323H88.7717ZM96.2517 60.123L90.8717 67.743H96.2517V60.123ZM115.022 64.443V65.983H107.042V64.443H115.022ZM131.649 58.603V60.083H125.589V64.783H130.509V66.263H125.589V72.543H123.769V58.603H131.649ZM143.848 66.643C143.848 66.9896 143.828 67.3563 143.788 67.743H135.028C135.094 68.823 135.461 69.6696 136.128 70.283C136.808 70.883 137.628 71.183 138.588 71.183C139.374 71.183 140.028 71.003 140.548 70.643C141.081 70.2696 141.454 69.7763 141.668 69.163H143.628C143.334 70.2163 142.748 71.0763 141.868 71.743C140.988 72.3963 139.894 72.723 138.588 72.723C137.548 72.723 136.614 72.4896 135.788 72.023C134.974 71.5563 134.334 70.8963 133.868 70.043C133.401 69.1763 133.168 68.1763 133.168 67.043C133.168 65.9096 133.394 64.9163 133.848 64.063C134.301 63.2096 134.934 62.5563 135.748 62.103C136.574 61.6363 137.521 61.403 138.588 61.403C139.628 61.403 140.548 61.6296 141.348 62.083C142.148 62.5363 142.761 63.163 143.188 63.963C143.628 64.7496 143.848 65.643 143.848 66.643ZM141.968 66.263C141.968 65.5696 141.814 64.9763 141.508 64.483C141.201 63.9763 140.781 63.5963 140.248 63.343C139.728 63.0763 139.148 62.943 138.508 62.943C137.588 62.943 136.801 63.2363 136.148 63.823C135.508 64.4096 135.141 65.223 135.048 66.263H141.968ZM156.25 66.643C156.25 66.9896 156.23 67.3563 156.19 67.743H147.43C147.497 68.823 147.863 69.6696 148.53 70.283C149.21 70.883 150.03 71.183 150.99 71.183C151.777 71.183 152.43 71.003 152.95 70.643C153.483 70.2696 153.857 69.7763 154.07 69.163H156.03C155.737 70.2163 155.15 71.0763 154.27 71.743C153.39 72.3963 152.297 72.723 150.99 72.723C149.95 72.723 149.017 72.4896 148.19 72.023C147.377 71.5563 146.737 70.8963 146.27 70.043C145.803 69.1763 145.57 68.1763 145.57 67.043C145.57 65.9096 145.797 64.9163 146.25 64.063C146.703 63.2096 147.337 62.5563 148.15 62.103C148.977 61.6363 149.923 61.403 150.99 61.403C152.03 61.403 152.95 61.6296 153.75 62.083C154.55 62.5363 155.163 63.163 155.59 63.963C156.03 64.7496 156.25 65.643 156.25 66.643ZM154.37 66.263C154.37 65.5696 154.217 64.9763 153.91 64.483C153.603 63.9763 153.183 63.5963 152.65 63.343C152.13 63.0763 151.55 62.943 150.91 62.943C149.99 62.943 149.203 63.2363 148.55 63.823C147.91 64.4096 147.543 65.223 147.45 66.263H154.37ZM157.972 67.023C157.972 65.903 158.199 64.923 158.652 64.083C159.106 63.2296 159.726 62.5696 160.512 62.103C161.312 61.6363 162.206 61.403 163.192 61.403C164.046 61.403 164.839 61.603 165.572 62.003C166.306 62.3896 166.866 62.903 167.252 63.543V57.743H169.092V72.543H167.252V70.483C166.892 71.1363 166.359 71.6763 165.652 72.103C164.946 72.5163 164.119 72.723 163.172 72.723C162.199 72.723 161.312 72.483 160.512 72.003C159.726 71.523 159.106 70.8496 158.652 69.983C158.199 69.1163 157.972 68.1296 157.972 67.023ZM167.252 67.043C167.252 66.2163 167.086 65.4963 166.752 64.883C166.419 64.2696 165.966 63.803 165.392 63.483C164.832 63.1496 164.212 62.983 163.532 62.983C162.852 62.983 162.232 63.143 161.672 63.463C161.112 63.783 160.666 64.2496 160.332 64.863C159.999 65.4763 159.832 66.1963 159.832 67.023C159.832 67.863 159.999 68.5963 160.332 69.223C160.666 69.8363 161.112 70.3096 161.672 70.643C162.232 70.963 162.852 71.123 163.532 71.123C164.212 71.123 164.832 70.963 165.392 70.643C165.966 70.3096 166.419 69.8363 166.752 69.223C167.086 68.5963 167.252 67.8696 167.252 67.043ZM173.988 63.623C174.361 62.9696 174.908 62.4363 175.628 62.023C176.348 61.6096 177.168 61.403 178.088 61.403C179.075 61.403 179.961 61.6363 180.748 62.103C181.535 62.5696 182.155 63.2296 182.608 64.083C183.061 64.923 183.288 65.903 183.288 67.023C183.288 68.1296 183.061 69.1163 182.608 69.983C182.155 70.8496 181.528 71.523 180.728 72.003C179.941 72.483 179.061 72.723 178.088 72.723C177.141 72.723 176.308 72.5163 175.588 72.103C174.881 71.6896 174.348 71.163 173.988 70.523V72.543H172.168V57.743H173.988V63.623ZM181.428 67.023C181.428 66.1963 181.261 65.4763 180.928 64.863C180.595 64.2496 180.141 63.783 179.568 63.463C179.008 63.143 178.388 62.983 177.708 62.983C177.041 62.983 176.421 63.1496 175.848 63.483C175.288 63.803 174.835 64.2763 174.488 64.903C174.155 65.5163 173.988 66.2296 173.988 67.043C173.988 67.8696 174.155 68.5963 174.488 69.223C174.835 69.8363 175.288 70.3096 175.848 70.643C176.421 70.963 177.041 71.123 177.708 71.123C178.388 71.123 179.008 70.963 179.568 70.643C180.141 70.3096 180.595 69.8363 180.928 69.223C181.261 68.5963 181.428 67.863 181.428 67.023ZM185.004 67.023C185.004 65.903 185.23 64.923 185.684 64.083C186.137 63.2296 186.757 62.5696 187.544 62.103C188.344 61.6363 189.23 61.403 190.204 61.403C191.164 61.403 191.997 61.6096 192.704 62.023C193.41 62.4363 193.937 62.9563 194.284 63.583V61.583H196.124V72.543H194.284V70.503C193.924 71.143 193.384 71.6763 192.664 72.103C191.957 72.5163 191.13 72.723 190.184 72.723C189.21 72.723 188.33 72.483 187.544 72.003C186.757 71.523 186.137 70.8496 185.684 69.983C185.23 69.1163 185.004 68.1296 185.004 67.023ZM194.284 67.043C194.284 66.2163 194.117 65.4963 193.784 64.883C193.45 64.2696 192.997 63.803 192.424 63.483C191.864 63.1496 191.244 62.983 190.564 62.983C189.884 62.983 189.264 63.143 188.704 63.463C188.144 63.783 187.697 64.2496 187.364 64.863C187.03 65.4763 186.864 66.1963 186.864 67.023C186.864 67.863 187.03 68.5963 187.364 69.223C187.697 69.8363 188.144 70.3096 188.704 70.643C189.264 70.963 189.884 71.123 190.564 71.123C191.244 71.123 191.864 70.963 192.424 70.643C192.997 70.3096 193.45 69.8363 193.784 69.223C194.117 68.5963 194.284 67.8696 194.284 67.043ZM198.519 67.043C198.519 65.9096 198.746 64.923 199.199 64.083C199.653 63.2296 200.279 62.5696 201.079 62.103C201.893 61.6363 202.819 61.403 203.859 61.403C205.206 61.403 206.313 61.7296 207.179 62.383C208.059 63.0363 208.639 63.943 208.919 65.103H206.959C206.773 64.4363 206.406 63.9096 205.859 63.523C205.326 63.1363 204.659 62.943 203.859 62.943C202.819 62.943 201.979 63.303 201.339 64.023C200.699 64.7296 200.379 65.7363 200.379 67.043C200.379 68.363 200.699 69.383 201.339 70.103C201.979 70.823 202.819 71.183 203.859 71.183C204.659 71.183 205.326 70.9963 205.859 70.623C206.393 70.2496 206.759 69.7163 206.959 69.023H208.919C208.626 70.143 208.039 71.043 207.159 71.723C206.279 72.3896 205.179 72.723 203.859 72.723C202.819 72.723 201.893 72.4896 201.079 72.023C200.279 71.5563 199.653 70.8963 199.199 70.043C198.746 69.1896 198.519 68.1896 198.519 67.043ZM217.468 72.543L213.168 67.703V72.543H211.348V57.743H213.168V66.443L217.388 61.583H219.928L214.768 67.043L219.948 72.543H217.468ZM240.153 61.383C241.006 61.383 241.766 61.563 242.433 61.923C243.099 62.2696 243.626 62.7963 244.013 63.503C244.399 64.2096 244.593 65.0696 244.593 66.083V72.543H242.793V66.343C242.793 65.2496 242.519 64.4163 241.973 63.843C241.439 63.2563 240.713 62.963 239.793 62.963C238.846 62.963 238.093 63.2696 237.533 63.883C236.973 64.483 236.693 65.3563 236.693 66.503V72.543H234.893V66.343C234.893 65.2496 234.619 64.4163 234.073 63.843C233.539 63.2563 232.813 62.963 231.893 62.963C230.946 62.963 230.193 63.2696 229.633 63.883C229.073 64.483 228.793 65.3563 228.793 66.503V72.543H226.973V61.583H228.793V63.163C229.153 62.5896 229.633 62.1496 230.233 61.843C230.846 61.5363 231.519 61.383 232.253 61.383C233.173 61.383 233.986 61.5896 234.693 62.003C235.399 62.4163 235.926 63.023 236.273 63.823C236.579 63.0496 237.086 62.4496 237.793 62.023C238.499 61.5963 239.286 61.383 240.153 61.383ZM257.578 66.643C257.578 66.9896 257.558 67.3563 257.518 67.743H248.758C248.825 68.823 249.191 69.6696 249.858 70.283C250.538 70.883 251.358 71.183 252.318 71.183C253.105 71.183 253.758 71.003 254.278 70.643C254.811 70.2696 255.185 69.7763 255.398 69.163H257.358C257.065 70.2163 256.478 71.0763 255.598 71.743C254.718 72.3963 253.625 72.723 252.318 72.723C251.278 72.723 250.345 72.4896 249.518 72.023C248.705 71.5563 248.065 70.8963 247.598 70.043C247.131 69.1763 246.898 68.1763 246.898 67.043C246.898 65.9096 247.125 64.9163 247.578 64.063C248.031 63.2096 248.665 62.5563 249.478 62.103C250.305 61.6363 251.251 61.403 252.318 61.403C253.358 61.403 254.278 61.6296 255.078 62.083C255.878 62.5363 256.491 63.163 256.918 63.963C257.358 64.7496 257.578 65.643 257.578 66.643ZM255.698 66.263C255.698 65.5696 255.545 64.9763 255.238 64.483C254.931 63.9763 254.511 63.5963 253.978 63.343C253.458 63.0763 252.878 62.943 252.238 62.943C251.318 62.943 250.531 63.2363 249.878 63.823C249.238 64.4096 248.871 65.223 248.778 66.263H255.698ZM259.3 67.043C259.3 65.9096 259.527 64.923 259.98 64.083C260.434 63.2296 261.06 62.5696 261.86 62.103C262.674 61.6363 263.6 61.403 264.64 61.403C265.987 61.403 267.094 61.7296 267.96 62.383C268.84 63.0363 269.42 63.943 269.7 65.103H267.74C267.554 64.4363 267.187 63.9096 266.64 63.523C266.107 63.1363 265.44 62.943 264.64 62.943C263.6 62.943 262.76 63.303 262.12 64.023C261.48 64.7296 261.16 65.7363 261.16 67.043C261.16 68.363 261.48 69.383 262.12 70.103C262.76 70.823 263.6 71.183 264.64 71.183C265.44 71.183 266.107 70.9963 266.64 70.623C267.174 70.2496 267.54 69.7163 267.74 69.023H269.7C269.407 70.143 268.82 71.043 267.94 71.723C267.06 72.3896 265.96 72.723 264.64 72.723C263.6 72.723 262.674 72.4896 261.86 72.023C261.06 71.5563 260.434 70.8963 259.98 70.043C259.527 69.1896 259.3 68.1896 259.3 67.043ZM277.569 61.383C278.396 61.383 279.142 61.563 279.809 61.923C280.476 62.2696 280.996 62.7963 281.369 63.503C281.756 64.2096 281.949 65.0696 281.949 66.083V72.543H280.149V66.343C280.149 65.2496 279.876 64.4163 279.329 63.843C278.782 63.2563 278.036 62.963 277.089 62.963C276.129 62.963 275.362 63.263 274.789 63.863C274.229 64.463 273.949 65.3363 273.949 66.483V72.543H272.129V57.743H273.949V63.143C274.309 62.583 274.802 62.1496 275.429 61.843C276.069 61.5363 276.782 61.383 277.569 61.383ZM284.242 67.023C284.242 65.903 284.469 64.923 284.922 64.083C285.375 63.2296 285.995 62.5696 286.782 62.103C287.582 61.6363 288.469 61.403 289.442 61.403C290.402 61.403 291.235 61.6096 291.942 62.023C292.649 62.4363 293.175 62.9563 293.522 63.583V61.583H295.362V72.543H293.522V70.503C293.162 71.143 292.622 71.6763 291.902 72.103C291.195 72.5163 290.369 72.723 289.422 72.723C288.449 72.723 287.569 72.483 286.782 72.003C285.995 71.523 285.375 70.8496 284.922 69.983C284.469 69.1163 284.242 68.1296 284.242 67.023ZM293.522 67.043C293.522 66.2163 293.355 65.4963 293.022 64.883C292.689 64.2696 292.235 63.803 291.662 63.483C291.102 63.1496 290.482 62.983 289.802 62.983C289.122 62.983 288.502 63.143 287.942 63.463C287.382 63.783 286.935 64.2496 286.602 64.863C286.269 65.4763 286.102 66.1963 286.102 67.023C286.102 67.863 286.269 68.5963 286.602 69.223C286.935 69.8363 287.382 70.3096 287.942 70.643C288.502 70.963 289.122 71.123 289.802 71.123C290.482 71.123 291.102 70.963 291.662 70.643C292.235 70.3096 292.689 69.8363 293.022 69.223C293.355 68.5963 293.522 67.8696 293.522 67.043ZM303.777 61.383C305.111 61.383 306.191 61.7896 307.017 62.603C307.844 63.403 308.257 64.563 308.257 66.083V72.543H306.457V66.343C306.457 65.2496 306.184 64.4163 305.637 63.843C305.091 63.2563 304.344 62.963 303.397 62.963C302.437 62.963 301.671 63.263 301.097 63.863C300.537 64.463 300.257 65.3363 300.257 66.483V72.543H298.437V61.583H300.257V63.143C300.617 62.583 301.104 62.1496 301.717 61.843C302.344 61.5363 303.031 61.383 303.777 61.383ZM312.17 59.803C311.824 59.803 311.53 59.683 311.29 59.443C311.05 59.203 310.93 58.9096 310.93 58.563C310.93 58.2163 311.05 57.923 311.29 57.683C311.53 57.443 311.824 57.323 312.17 57.323C312.504 57.323 312.784 57.443 313.01 57.683C313.25 57.923 313.37 58.2163 313.37 58.563C313.37 58.9096 313.25 59.203 313.01 59.443C312.784 59.683 312.504 59.803 312.17 59.803ZM313.05 61.583V72.543H311.23V61.583H313.05ZM315.472 67.043C315.472 65.9096 315.699 64.923 316.152 64.083C316.606 63.2296 317.232 62.5696 318.032 62.103C318.846 61.6363 319.772 61.403 320.812 61.403C322.159 61.403 323.266 61.7296 324.132 62.383C325.012 63.0363 325.592 63.943 325.872 65.103H323.912C323.726 64.4363 323.359 63.9096 322.812 63.523C322.279 63.1363 321.612 62.943 320.812 62.943C319.772 62.943 318.932 63.303 318.292 64.023C317.652 64.7296 317.332 65.7363 317.332 67.043C317.332 68.363 317.652 69.383 318.292 70.103C318.932 70.823 319.772 71.183 320.812 71.183C321.612 71.183 322.279 70.9963 322.812 70.623C323.346 70.2496 323.712 69.7163 323.912 69.023H325.872C325.579 70.143 324.992 71.043 324.112 71.723C323.232 72.3896 322.132 72.723 320.812 72.723C319.772 72.723 318.846 72.4896 318.032 72.023C317.232 71.5563 316.606 70.8963 316.152 70.043C315.699 69.1896 315.472 68.1896 315.472 67.043ZM332.181 72.723C331.341 72.723 330.587 72.583 329.921 72.303C329.254 72.0096 328.727 71.6096 328.341 71.103C327.954 70.583 327.741 69.9896 327.701 69.323H329.581C329.634 69.8696 329.887 70.3163 330.341 70.663C330.807 71.0096 331.414 71.183 332.161 71.183C332.854 71.183 333.401 71.0296 333.801 70.723C334.201 70.4163 334.401 70.0296 334.401 69.563C334.401 69.083 334.187 68.7296 333.761 68.503C333.334 68.263 332.674 68.0296 331.781 67.803C330.967 67.5896 330.301 67.3763 329.781 67.163C329.274 66.9363 328.834 66.6096 328.461 66.183C328.101 65.743 327.921 65.1696 327.921 64.463C327.921 63.903 328.087 63.3896 328.421 62.923C328.754 62.4563 329.227 62.0896 329.841 61.823C330.454 61.543 331.154 61.403 331.941 61.403C333.154 61.403 334.134 61.7096 334.881 62.323C335.627 62.9363 336.027 63.7763 336.081 64.843H334.261C334.221 64.2696 333.987 63.8096 333.561 63.463C333.147 63.1163 332.587 62.943 331.881 62.943C331.227 62.943 330.707 63.083 330.321 63.363C329.934 63.643 329.741 64.0096 329.741 64.463C329.741 64.823 329.854 65.123 330.081 65.363C330.321 65.5896 330.614 65.7763 330.961 65.923C331.321 66.0563 331.814 66.2096 332.441 66.383C333.227 66.5963 333.867 66.8096 334.361 67.023C334.854 67.223 335.274 67.5296 335.621 67.943C335.981 68.3563 336.167 68.8963 336.181 69.563C336.181 70.163 336.014 70.703 335.681 71.183C335.347 71.663 334.874 72.043 334.261 72.323C333.661 72.5896 332.967 72.723 332.181 72.723ZM100.2 90.863H96.7004L98.9404 85.503H101.24L100.2 90.863ZM104.74 90.863H101.26L103.5 85.503H105.78L104.74 90.863ZM111.421 96.903H115.901V99.543H108.001V85.503H111.421V96.903ZM122.612 99.703C121.519 99.703 120.532 99.4696 119.652 99.003C118.785 98.5363 118.099 97.8696 117.592 97.003C117.099 96.1363 116.852 95.123 116.852 93.963C116.852 92.8163 117.105 91.8096 117.612 90.943C118.119 90.063 118.812 89.3896 119.692 88.923C120.572 88.4563 121.559 88.223 122.652 88.223C123.745 88.223 124.732 88.4563 125.612 88.923C126.492 89.3896 127.185 90.063 127.692 90.943C128.199 91.8096 128.452 92.8163 128.452 93.963C128.452 95.1096 128.192 96.123 127.672 97.003C127.165 97.8696 126.465 98.5363 125.572 99.003C124.692 99.4696 123.705 99.703 122.612 99.703ZM122.612 96.743C123.265 96.743 123.819 96.503 124.272 96.023C124.739 95.543 124.972 94.8563 124.972 93.963C124.972 93.0696 124.745 92.383 124.292 91.903C123.852 91.423 123.305 91.183 122.652 91.183C121.985 91.183 121.432 91.423 120.992 91.903C120.552 92.3696 120.332 93.0563 120.332 93.963C120.332 94.8563 120.545 95.543 120.972 96.023C121.412 96.503 121.959 96.743 122.612 96.743ZM135.286 96.343L137.706 88.383H141.346L137.386 99.543H133.166L129.206 88.383H132.866L135.286 96.343ZM153.306 93.783C153.306 94.103 153.286 94.4363 153.246 94.783H145.506C145.559 95.4763 145.779 96.0096 146.166 96.383C146.566 96.743 147.053 96.923 147.626 96.923C148.479 96.923 149.073 96.563 149.406 95.843H153.046C152.859 96.5763 152.519 97.2363 152.026 97.823C151.546 98.4096 150.939 98.8696 150.206 99.203C149.473 99.5363 148.653 99.703 147.746 99.703C146.653 99.703 145.679 99.4696 144.826 99.003C143.973 98.5363 143.306 97.8696 142.826 97.003C142.346 96.1363 142.106 95.123 142.106 93.963C142.106 92.803 142.339 91.7896 142.806 90.923C143.286 90.0563 143.953 89.3896 144.806 88.923C145.659 88.4563 146.639 88.223 147.746 88.223C148.826 88.223 149.786 88.4496 150.626 88.903C151.466 89.3563 152.119 90.003 152.586 90.843C153.066 91.683 153.306 92.663 153.306 93.783ZM149.806 92.883C149.806 92.2963 149.606 91.8296 149.206 91.483C148.806 91.1363 148.306 90.963 147.706 90.963C147.133 90.963 146.646 91.1296 146.246 91.463C145.859 91.7963 145.619 92.2696 145.526 92.883H149.806ZM155.89 85.503H159.39L157.15 90.863H154.85L155.89 85.503ZM160.43 85.503H163.93L161.69 90.863H159.39L160.43 85.503ZM169.489 93.943C169.489 92.7963 169.702 91.7896 170.129 90.923C170.569 90.0563 171.162 89.3896 171.909 88.923C172.655 88.4563 173.489 88.223 174.409 88.223C175.195 88.223 175.882 88.383 176.469 88.703C177.069 89.023 177.529 89.443 177.849 89.963V88.383H181.269V99.543H177.849V97.963C177.515 98.483 177.049 98.903 176.449 99.223C175.862 99.543 175.175 99.703 174.389 99.703C173.482 99.703 172.655 99.4696 171.909 99.003C171.162 98.523 170.569 97.8496 170.129 96.983C169.702 96.103 169.489 95.0896 169.489 93.943ZM177.849 93.963C177.849 93.1096 177.609 92.4363 177.129 91.943C176.662 91.4496 176.089 91.203 175.409 91.203C174.729 91.203 174.149 91.4496 173.669 91.943C173.202 92.423 172.969 93.0896 172.969 93.943C172.969 94.7963 173.202 95.4763 173.669 95.983C174.149 96.4763 174.729 96.723 175.409 96.723C176.089 96.723 176.662 96.4763 177.129 95.983C177.609 95.4896 177.849 94.8163 177.849 93.963ZM191.401 90.243C191.801 89.6296 192.301 89.1496 192.901 88.803C193.501 88.443 194.168 88.263 194.901 88.263V91.883H193.961C193.108 91.883 192.468 92.0696 192.041 92.443C191.615 92.803 191.401 93.443 191.401 94.363V99.543H187.981V88.383H191.401V90.243ZM207.056 93.783C207.056 94.103 207.036 94.4363 206.996 94.783H199.256C199.309 95.4763 199.529 96.0096 199.916 96.383C200.316 96.743 200.803 96.923 201.376 96.923C202.229 96.923 202.823 96.563 203.156 95.843H206.796C206.609 96.5763 206.269 97.2363 205.776 97.823C205.296 98.4096 204.689 98.8696 203.956 99.203C203.223 99.5363 202.403 99.703 201.496 99.703C200.403 99.703 199.429 99.4696 198.576 99.003C197.723 98.5363 197.056 97.8696 196.576 97.003C196.096 96.1363 195.856 95.123 195.856 93.963C195.856 92.803 196.089 91.7896 196.556 90.923C197.036 90.0563 197.703 89.3896 198.556 88.923C199.409 88.4563 200.389 88.223 201.496 88.223C202.576 88.223 203.536 88.4496 204.376 88.903C205.216 89.3563 205.869 90.003 206.336 90.843C206.816 91.683 207.056 92.663 207.056 93.783ZM203.556 92.883C203.556 92.2963 203.356 91.8296 202.956 91.483C202.556 91.1363 202.056 90.963 201.456 90.963C200.883 90.963 200.396 91.1296 199.996 91.463C199.609 91.7963 199.369 92.2696 199.276 92.883H203.556ZM212.28 89.963C212.613 89.443 213.073 89.023 213.66 88.703C214.247 88.383 214.933 88.223 215.72 88.223C216.64 88.223 217.473 88.4563 218.22 88.923C218.967 89.3896 219.553 90.0563 219.98 90.923C220.42 91.7896 220.64 92.7963 220.64 93.943C220.64 95.0896 220.42 96.103 219.98 96.983C219.553 97.8496 218.967 98.523 218.22 99.003C217.473 99.4696 216.64 99.703 215.72 99.703C214.947 99.703 214.26 99.543 213.66 99.223C213.073 98.903 212.613 98.4896 212.28 97.983V104.863H208.86V88.383H212.28V89.963ZM217.16 93.943C217.16 93.0896 216.92 92.423 216.44 91.943C215.973 91.4496 215.393 91.203 214.7 91.203C214.02 91.203 213.44 91.4496 212.96 91.943C212.493 92.4363 212.26 93.1096 212.26 93.963C212.26 94.8163 212.493 95.4896 212.96 95.983C213.44 96.4763 214.02 96.723 214.7 96.723C215.38 96.723 215.96 96.4763 216.44 95.983C216.92 95.4763 217.16 94.7963 217.16 93.943ZM225.854 84.743V99.543H222.434V84.743H225.854ZM239.733 88.383L232.733 104.843H229.053L231.613 99.163L227.073 88.383H230.893L233.473 95.363L236.033 88.383H239.733Z" fill="#333333"/>
</svg>
