<svg width="344" height="160" viewBox="0 0 344 160" fill="none" xmlns="http://www.w3.org/2000/svg">
<rect x="93" y="1" width="158" height="158" rx="79" stroke="#333333" stroke-width="2"/>
<rect width="344" height="62" transform="translate(0 49)" fill="#F2F2F2"/>
<path d="M54.8131 59.06V73H52.9931V59.06H54.8131ZM63.255 61.84C64.5883 61.84 65.6683 62.2467 66.495 63.06C67.3217 63.86 67.735 65.02 67.735 66.54V73H65.935V66.8C65.935 65.7067 65.6617 64.8733 65.115 64.3C64.5683 63.7133 63.8217 63.42 62.875 63.42C61.915 63.42 61.1483 63.72 60.575 64.32C60.015 64.92 59.735 65.7933 59.735 66.94V73H57.915V62.04H59.735V63.6C60.095 63.04 60.5817 62.6067 61.195 62.3C61.8217 61.9933 62.5083 61.84 63.255 61.84ZM71.648 60.26C71.3013 60.26 71.008 60.14 70.768 59.9C70.528 59.66 70.408 59.3667 70.408 59.02C70.408 58.6733 70.528 58.38 70.768 58.14C71.008 57.9 71.3013 57.78 71.648 57.78C71.9813 57.78 72.2613 57.9 72.488 58.14C72.728 58.38 72.848 58.6733 72.848 59.02C72.848 59.3667 72.728 59.66 72.488 59.9C72.2613 60.14 71.9813 60.26 71.648 60.26ZM72.528 62.04V73H70.708V62.04H72.528ZM77.8498 63.54V70C77.8498 70.5333 77.9632 70.9133 78.1898 71.14C78.4165 71.3533 78.8098 71.46 79.3698 71.46H80.7098V73H79.0698C78.0565 73 77.2965 72.7667 76.7898 72.3C76.2832 71.8333 76.0298 71.0667 76.0298 70V63.54H74.6098V62.04H76.0298V59.28H77.8498V62.04H80.7098V63.54H77.8498ZM83.855 60.26C83.5083 60.26 83.215 60.14 82.975 59.9C82.735 59.66 82.615 59.3667 82.615 59.02C82.615 58.6733 82.735 58.38 82.975 58.14C83.215 57.9 83.5083 57.78 83.855 57.78C84.1883 57.78 84.4683 57.9 84.695 58.14C84.935 58.38 85.055 58.6733 85.055 59.02C85.055 59.3667 84.935 59.66 84.695 59.9C84.4683 60.14 84.1883 60.26 83.855 60.26ZM84.735 62.04V73H82.915V62.04H84.735ZM87.1569 67.48C87.1569 66.36 87.3835 65.38 87.8369 64.54C88.2902 63.6867 88.9102 63.0267 89.6969 62.56C90.4969 62.0933 91.3835 61.86 92.3569 61.86C93.3169 61.86 94.1502 62.0667 94.8569 62.48C95.5635 62.8933 96.0902 63.4133 96.4369 64.04V62.04H98.2769V73H96.4369V70.96C96.0769 71.6 95.5369 72.1333 94.8169 72.56C94.1102 72.9733 93.2835 73.18 92.3369 73.18C91.3635 73.18 90.4835 72.94 89.6969 72.46C88.9102 71.98 88.2902 71.3067 87.8369 70.44C87.3835 69.5733 87.1569 68.5867 87.1569 67.48ZM96.4369 67.5C96.4369 66.6733 96.2702 65.9533 95.9369 65.34C95.6035 64.7267 95.1502 64.26 94.5769 63.94C94.0169 63.6067 93.3969 63.44 92.7169 63.44C92.0369 63.44 91.4169 63.6 90.8569 63.92C90.2969 64.24 89.8502 64.7067 89.5169 65.32C89.1835 65.9333 89.0169 66.6533 89.0169 67.48C89.0169 68.32 89.1835 69.0533 89.5169 69.68C89.8502 70.2933 90.2969 70.7667 90.8569 71.1C91.4169 71.42 92.0369 71.58 92.7169 71.58C93.3969 71.58 94.0169 71.42 94.5769 71.1C95.1502 70.7667 95.6035 70.2933 95.9369 69.68C96.2702 69.0533 96.4369 68.3267 96.4369 67.5ZM103.573 63.54V70C103.573 70.5333 103.686 70.9133 103.913 71.14C104.139 71.3533 104.533 71.46 105.092 71.46H106.433V73H104.793C103.779 73 103.019 72.7667 102.513 72.3C102.006 71.8333 101.753 71.0667 101.753 70V63.54H100.333V62.04H101.753V59.28H103.573V62.04H106.433V63.54H103.573ZM109.578 60.26C109.231 60.26 108.938 60.14 108.698 59.9C108.458 59.66 108.338 59.3667 108.338 59.02C108.338 58.6733 108.458 58.38 108.698 58.14C108.938 57.9 109.231 57.78 109.578 57.78C109.911 57.78 110.191 57.9 110.418 58.14C110.658 58.38 110.778 58.6733 110.778 59.02C110.778 59.3667 110.658 59.66 110.418 59.9C110.191 60.14 109.911 60.26 109.578 60.26ZM110.458 62.04V73H108.638V62.04H110.458ZM117.64 71.32L121.04 62.04H122.98L118.68 73H116.56L112.26 62.04H114.22L117.64 71.32ZM134.77 67.1C134.77 67.4467 134.75 67.8133 134.71 68.2H125.95C126.017 69.28 126.384 70.1267 127.05 70.74C127.73 71.34 128.55 71.64 129.51 71.64C130.297 71.64 130.95 71.46 131.47 71.1C132.004 70.7267 132.377 70.2333 132.59 69.62H134.55C134.257 70.6733 133.67 71.5333 132.79 72.2C131.91 72.8533 130.817 73.18 129.51 73.18C128.47 73.18 127.537 72.9467 126.71 72.48C125.897 72.0133 125.257 71.3533 124.79 70.5C124.324 69.6333 124.09 68.6333 124.09 67.5C124.09 66.3667 124.317 65.3733 124.77 64.52C125.224 63.6667 125.857 63.0133 126.67 62.56C127.497 62.0933 128.444 61.86 129.51 61.86C130.55 61.86 131.47 62.0867 132.27 62.54C133.07 62.9933 133.684 63.62 134.11 64.42C134.55 65.2067 134.77 66.1 134.77 67.1ZM132.89 66.72C132.89 66.0267 132.737 65.4333 132.43 64.94C132.124 64.4333 131.704 64.0533 131.17 63.8C130.65 63.5333 130.07 63.4 129.43 63.4C128.51 63.4 127.724 63.6933 127.07 64.28C126.43 64.8667 126.064 65.68 125.97 66.72H132.89ZM141.725 60.2V58.54H145.485V73H143.645V60.2H141.725ZM161.843 64.9V66.44H153.863V64.9H161.843ZM181.151 63.1C180.764 62.2867 180.204 61.66 179.471 61.22C178.737 60.7667 177.884 60.54 176.911 60.54C175.937 60.54 175.057 60.7667 174.271 61.22C173.497 61.66 172.884 62.3 172.431 63.14C171.991 63.9667 171.771 64.9267 171.771 66.02C171.771 67.1133 171.991 68.0733 172.431 68.9C172.884 69.7267 173.497 70.3667 174.271 70.82C175.057 71.26 175.937 71.48 176.911 71.48C178.271 71.48 179.391 71.0733 180.271 70.26C181.151 69.4467 181.664 68.3467 181.811 66.96H176.251V65.48H183.751V66.88C183.644 68.0267 183.284 69.08 182.671 70.04C182.057 70.9867 181.251 71.74 180.251 72.3C179.251 72.8467 178.137 73.12 176.911 73.12C175.617 73.12 174.437 72.82 173.371 72.22C172.304 71.6067 171.457 70.76 170.831 69.68C170.217 68.6 169.911 67.38 169.911 66.02C169.911 64.66 170.217 63.44 170.831 62.36C171.457 61.2667 172.304 60.42 173.371 59.82C174.437 59.2067 175.617 58.9 176.911 58.9C178.391 58.9 179.697 59.2667 180.831 60C181.977 60.7333 182.811 61.7667 183.331 63.1H181.151ZM187.977 63.82C188.297 63.1933 188.751 62.7067 189.337 62.36C189.937 62.0133 190.664 61.84 191.517 61.84V63.72H191.037C188.997 63.72 187.977 64.8267 187.977 67.04V73H186.157V62.04H187.977V63.82ZM198.398 73.18C197.371 73.18 196.438 72.9467 195.598 72.48C194.771 72.0133 194.118 71.3533 193.638 70.5C193.171 69.6333 192.938 68.6333 192.938 67.5C192.938 66.38 193.178 65.3933 193.658 64.54C194.151 63.6733 194.818 63.0133 195.658 62.56C196.498 62.0933 197.438 61.86 198.478 61.86C199.518 61.86 200.458 62.0933 201.298 62.56C202.138 63.0133 202.798 63.6667 203.278 64.52C203.771 65.3733 204.018 66.3667 204.018 67.5C204.018 68.6333 203.765 69.6333 203.258 70.5C202.765 71.3533 202.091 72.0133 201.238 72.48C200.385 72.9467 199.438 73.18 198.398 73.18ZM198.398 71.58C199.051 71.58 199.665 71.4267 200.238 71.12C200.811 70.8133 201.271 70.3533 201.618 69.74C201.978 69.1267 202.158 68.38 202.158 67.5C202.158 66.62 201.985 65.8733 201.638 65.26C201.291 64.6467 200.838 64.1933 200.278 63.9C199.718 63.5933 199.111 63.44 198.458 63.44C197.791 63.44 197.178 63.5933 196.618 63.9C196.071 64.1933 195.631 64.6467 195.298 65.26C194.965 65.8733 194.798 66.62 194.798 67.5C194.798 68.3933 194.958 69.1467 195.278 69.76C195.611 70.3733 196.051 70.8333 196.598 71.14C197.145 71.4333 197.745 71.58 198.398 71.58ZM221.011 62.04L217.591 73H215.711L213.071 64.3L210.431 73H208.551L205.111 62.04H206.971L209.491 71.24L212.211 62.04H214.071L216.731 71.26L219.211 62.04H221.011ZM225.037 63.54V70C225.037 70.5333 225.151 70.9133 225.377 71.14C225.604 71.3533 225.997 71.46 226.557 71.46H227.897V73H226.257C225.244 73 224.484 72.7667 223.977 72.3C223.471 71.8333 223.217 71.0667 223.217 70V63.54H221.797V62.04H223.217V59.28H225.037V62.04H227.897V63.54H225.037ZM235.543 61.84C236.369 61.84 237.116 62.02 237.783 62.38C238.449 62.7267 238.969 63.2533 239.343 63.96C239.729 64.6667 239.923 65.5267 239.923 66.54V73H238.123V66.8C238.123 65.7067 237.849 64.8733 237.303 64.3C236.756 63.7133 236.009 63.42 235.063 63.42C234.103 63.42 233.336 63.72 232.763 64.32C232.203 64.92 231.923 65.7933 231.923 66.94V73H230.103V58.2H231.923V63.6C232.283 63.04 232.776 62.6067 233.403 62.3C234.043 61.9933 234.756 61.84 235.543 61.84ZM250.048 58.2V73H248.228V58.2H250.048ZM263.149 67.1C263.149 67.4467 263.129 67.8133 263.089 68.2H254.329C254.396 69.28 254.763 70.1267 255.429 70.74C256.109 71.34 256.929 71.64 257.889 71.64C258.676 71.64 259.329 71.46 259.849 71.1C260.383 70.7267 260.756 70.2333 260.969 69.62H262.929C262.636 70.6733 262.049 71.5333 261.169 72.2C260.289 72.8533 259.196 73.18 257.889 73.18C256.849 73.18 255.916 72.9467 255.089 72.48C254.276 72.0133 253.636 71.3533 253.169 70.5C252.703 69.6333 252.469 68.6333 252.469 67.5C252.469 66.3667 252.696 65.3733 253.149 64.52C253.603 63.6667 254.236 63.0133 255.049 62.56C255.876 62.0933 256.823 61.86 257.889 61.86C258.929 61.86 259.849 62.0867 260.649 62.54C261.449 62.9933 262.063 63.62 262.489 64.42C262.929 65.2067 263.149 66.1 263.149 67.1ZM261.269 66.72C261.269 66.0267 261.116 65.4333 260.809 64.94C260.503 64.4333 260.083 64.0533 259.549 63.8C259.029 63.5333 258.449 63.4 257.809 63.4C256.889 63.4 256.103 63.6933 255.449 64.28C254.809 64.8667 254.443 65.68 254.349 66.72H261.269ZM269.632 71.32L273.032 62.04H274.972L270.672 73H268.552L264.252 62.04H266.212L269.632 71.32ZM286.763 67.1C286.763 67.4467 286.743 67.8133 286.703 68.2H277.943C278.009 69.28 278.376 70.1267 279.043 70.74C279.723 71.34 280.543 71.64 281.503 71.64C282.289 71.64 282.943 71.46 283.463 71.1C283.996 70.7267 284.369 70.2333 284.583 69.62H286.543C286.249 70.6733 285.663 71.5333 284.783 72.2C283.903 72.8533 282.809 73.18 281.503 73.18C280.463 73.18 279.529 72.9467 278.703 72.48C277.889 72.0133 277.249 71.3533 276.783 70.5C276.316 69.6333 276.083 68.6333 276.083 67.5C276.083 66.3667 276.309 65.3733 276.763 64.52C277.216 63.6667 277.849 63.0133 278.663 62.56C279.489 62.0933 280.436 61.86 281.503 61.86C282.543 61.86 283.463 62.0867 284.263 62.54C285.063 62.9933 285.676 63.62 286.103 64.42C286.543 65.2067 286.763 66.1 286.763 67.1ZM284.883 66.72C284.883 66.0267 284.729 65.4333 284.423 64.94C284.116 64.4333 283.696 64.0533 283.163 63.8C282.643 63.5333 282.063 63.4 281.423 63.4C280.503 63.4 279.716 63.6933 279.063 64.28C278.423 64.8667 278.056 65.68 277.963 66.72H284.883ZM290.985 58.2V73H289.165V58.2H290.985ZM1.00961 92.96C1.00961 91.5733 1.30961 90.34 1.90961 89.26C2.50961 88.1667 3.34294 87.32 4.40961 86.72C5.48961 86.1067 6.70961 85.8 8.06961 85.8C9.73628 85.8 11.1629 86.24 12.3496 87.12C13.5363 88 14.3296 89.2 14.7296 90.72H10.9696C10.6896 90.1333 10.2896 89.6867 9.76961 89.38C9.26294 89.0733 8.68294 88.92 8.02961 88.92C6.97628 88.92 6.12294 89.2867 5.46961 90.02C4.81628 90.7533 4.48961 91.7333 4.48961 92.96C4.48961 94.1867 4.81628 95.1667 5.46961 95.9C6.12294 96.6333 6.97628 97 8.02961 97C8.68294 97 9.26294 96.8467 9.76961 96.54C10.2896 96.2333 10.6896 95.7867 10.9696 95.2H14.7296C14.3296 96.72 13.5363 97.92 12.3496 98.8C11.1629 99.6667 9.73628 100.1 8.06961 100.1C6.70961 100.1 5.48961 99.8 4.40961 99.2C3.34294 98.5867 2.50961 97.74 1.90961 96.66C1.30961 95.58 1.00961 94.3467 1.00961 92.96ZM21.904 100.16C20.8107 100.16 19.824 99.9267 18.944 99.46C18.0773 98.9933 17.3907 98.3267 16.884 97.46C16.3907 96.5933 16.144 95.58 16.144 94.42C16.144 93.2733 16.3973 92.2667 16.904 91.4C17.4107 90.52 18.104 89.8467 18.984 89.38C19.864 88.9133 20.8507 88.68 21.944 88.68C23.0373 88.68 24.024 88.9133 24.904 89.38C25.784 89.8467 26.4773 90.52 26.984 91.4C27.4907 92.2667 27.744 93.2733 27.744 94.42C27.744 95.5667 27.484 96.58 26.964 97.46C26.4573 98.3267 25.7573 98.9933 24.864 99.46C23.984 99.9267 22.9973 100.16 21.904 100.16ZM21.904 97.2C22.5573 97.2 23.1107 96.96 23.564 96.48C24.0307 96 24.264 95.3133 24.264 94.42C24.264 93.5267 24.0373 92.84 23.584 92.36C23.144 91.88 22.5973 91.64 21.944 91.64C21.2773 91.64 20.724 91.88 20.284 92.36C19.844 92.8267 19.624 93.5133 19.624 94.42C19.624 95.3133 19.8373 96 20.264 96.48C20.704 96.96 21.2507 97.2 21.904 97.2ZM36.3584 88.72C37.665 88.72 38.705 89.1467 39.4784 90C40.265 90.84 40.6584 92 40.6584 93.48V100H37.2584V93.94C37.2584 93.1933 37.065 92.6133 36.6784 92.2C36.2917 91.7867 35.7717 91.58 35.1184 91.58C34.465 91.58 33.945 91.7867 33.5584 92.2C33.1717 92.6133 32.9784 93.1933 32.9784 93.94V100H29.5584V88.84H32.9784V90.32C33.325 89.8267 33.7917 89.44 34.3784 89.16C34.965 88.8667 35.625 88.72 36.3584 88.72ZM48.0549 96.8L50.4749 88.84H54.1149L50.1549 100H45.9349L41.9749 88.84H45.6349L48.0549 96.8ZM66.0745 94.24C66.0745 94.56 66.0545 94.8933 66.0145 95.24H58.2745C58.3278 95.9333 58.5478 96.4667 58.9345 96.84C59.3345 97.2 59.8211 97.38 60.3945 97.38C61.2478 97.38 61.8411 97.02 62.1745 96.3H65.8145C65.6278 97.0333 65.2878 97.6933 64.7945 98.28C64.3145 98.8667 63.7078 99.3267 62.9745 99.66C62.2411 99.9933 61.4211 100.16 60.5145 100.16C59.4211 100.16 58.4478 99.9267 57.5945 99.46C56.7411 98.9933 56.0745 98.3267 55.5945 97.46C55.1145 96.5933 54.8745 95.58 54.8745 94.42C54.8745 93.26 55.1078 92.2467 55.5745 91.38C56.0545 90.5133 56.7211 89.8467 57.5745 89.38C58.4278 88.9133 59.4078 88.68 60.5145 88.68C61.5945 88.68 62.5545 88.9067 63.3945 89.36C64.2345 89.8133 64.8878 90.46 65.3545 91.3C65.8345 92.14 66.0745 93.12 66.0745 94.24ZM62.5745 93.34C62.5745 92.7533 62.3745 92.2867 61.9745 91.94C61.5745 91.5933 61.0745 91.42 60.4745 91.42C59.9011 91.42 59.4145 91.5867 59.0145 91.92C58.6278 92.2533 58.3878 92.7267 58.2945 93.34H62.5745ZM71.2987 90.7C71.6987 90.0867 72.1987 89.6067 72.7987 89.26C73.3987 88.9 74.0653 88.72 74.7987 88.72V92.34H73.8587C73.0053 92.34 72.3653 92.5267 71.9387 92.9C71.512 93.26 71.2987 93.9 71.2987 94.82V100H67.8787V88.84H71.2987V90.7ZM82.6534 97.1V100H80.9134C79.6734 100 78.7067 99.7 78.0134 99.1C77.32 98.4867 76.9734 97.4933 76.9734 96.12V91.68H75.6134V88.84H76.9734V86.12H80.3934V88.84H82.6334V91.68H80.3934V96.16C80.3934 96.4933 80.4734 96.7333 80.6334 96.88C80.7934 97.0267 81.06 97.1 81.4334 97.1H82.6534ZM93.3366 100.16C92.3633 100.16 91.4966 99.9933 90.7366 99.66C89.9766 99.3267 89.3766 98.8733 88.9366 98.3C88.4966 97.7133 88.25 97.06 88.1966 96.34H91.5766C91.6166 96.7267 91.7966 97.04 92.1166 97.28C92.4366 97.52 92.83 97.64 93.2966 97.64C93.7233 97.64 94.05 97.56 94.2766 97.4C94.5166 97.2267 94.6366 97.0067 94.6366 96.74C94.6366 96.42 94.47 96.1867 94.1366 96.04C93.8033 95.88 93.2633 95.7067 92.5166 95.52C91.7166 95.3333 91.05 95.14 90.5166 94.94C89.9833 94.7267 89.5233 94.4 89.1366 93.96C88.75 93.5067 88.5566 92.9 88.5566 92.14C88.5566 91.5 88.73 90.92 89.0766 90.4C89.4366 89.8667 89.9566 89.4467 90.6366 89.14C91.33 88.8333 92.15 88.68 93.0966 88.68C94.4966 88.68 95.5966 89.0267 96.3966 89.72C97.21 90.4133 97.6766 91.3333 97.7966 92.48H94.6366C94.5833 92.0933 94.41 91.7867 94.1166 91.56C93.8366 91.3333 93.4633 91.22 92.9966 91.22C92.5966 91.22 92.29 91.3 92.0766 91.46C91.8633 91.6067 91.7566 91.8133 91.7566 92.08C91.7566 92.4 91.9233 92.64 92.2566 92.8C92.6033 92.96 93.1366 93.12 93.8566 93.28C94.6833 93.4933 95.3566 93.7067 95.8766 93.92C96.3966 94.12 96.85 94.4533 97.2366 94.92C97.6366 95.3733 97.8433 95.9867 97.8566 96.76C97.8566 97.4133 97.67 98 97.2966 98.52C96.9366 99.0267 96.41 99.4267 95.7166 99.72C95.0366 100.013 94.2433 100.16 93.3366 100.16ZM110.469 94.24C110.469 94.56 110.449 94.8933 110.409 95.24H102.669C102.722 95.9333 102.942 96.4667 103.329 96.84C103.729 97.2 104.216 97.38 104.789 97.38C105.642 97.38 106.236 97.02 106.569 96.3H110.209C110.022 97.0333 109.682 97.6933 109.189 98.28C108.709 98.8667 108.102 99.3267 107.369 99.66C106.636 99.9933 105.816 100.16 104.909 100.16C103.816 100.16 102.842 99.9267 101.989 99.46C101.136 98.9933 100.469 98.3267 99.989 97.46C99.509 96.5933 99.269 95.58 99.269 94.42C99.269 93.26 99.5023 92.2467 99.969 91.38C100.449 90.5133 101.116 89.8467 101.969 89.38C102.822 88.9133 103.802 88.68 104.909 88.68C105.989 88.68 106.949 88.9067 107.789 89.36C108.629 89.8133 109.282 90.46 109.749 91.3C110.229 92.14 110.469 93.12 110.469 94.24ZM106.969 93.34C106.969 92.7533 106.769 92.2867 106.369 91.94C105.969 91.5933 105.469 91.42 104.869 91.42C104.296 91.42 103.809 91.5867 103.409 91.92C103.022 92.2533 102.782 92.7267 102.689 93.34H106.969ZM111.593 94.4C111.593 93.2533 111.807 92.2467 112.233 91.38C112.673 90.5133 113.267 89.8467 114.013 89.38C114.76 88.9133 115.593 88.68 116.513 88.68C117.3 88.68 117.987 88.84 118.573 89.16C119.173 89.48 119.633 89.9 119.953 90.42V88.84H123.373V100H119.953V98.42C119.62 98.94 119.153 99.36 118.553 99.68C117.967 100 117.28 100.16 116.493 100.16C115.587 100.16 114.76 99.9267 114.013 99.46C113.267 98.98 112.673 98.3067 112.233 97.44C111.807 96.56 111.593 95.5467 111.593 94.4ZM119.953 94.42C119.953 93.5667 119.713 92.8933 119.233 92.4C118.767 91.9067 118.193 91.66 117.513 91.66C116.833 91.66 116.253 91.9067 115.773 92.4C115.307 92.88 115.073 93.5467 115.073 94.4C115.073 95.2533 115.307 95.9333 115.773 96.44C116.253 96.9333 116.833 97.18 117.513 97.18C118.193 97.18 118.767 96.9333 119.233 96.44C119.713 95.9467 119.953 95.2733 119.953 94.42ZM129.267 90.7C129.667 90.0867 130.167 89.6067 130.767 89.26C131.367 88.9 132.034 88.72 132.767 88.72V92.34H131.827C130.974 92.34 130.334 92.5267 129.907 92.9C129.481 93.26 129.267 93.9 129.267 94.82V100H125.847V88.84H129.267V90.7ZM133.722 94.42C133.722 93.26 133.955 92.2467 134.422 91.38C134.902 90.5133 135.562 89.8467 136.402 89.38C137.255 88.9133 138.229 88.68 139.322 88.68C140.722 88.68 141.889 89.0467 142.822 89.78C143.769 90.5133 144.389 91.5467 144.682 92.88H141.042C140.735 92.0267 140.142 91.6 139.262 91.6C138.635 91.6 138.135 91.8467 137.762 92.34C137.389 92.82 137.202 93.5133 137.202 94.42C137.202 95.3267 137.389 96.0267 137.762 96.52C138.135 97 138.635 97.24 139.262 97.24C140.142 97.24 140.735 96.8133 141.042 95.96H144.682C144.389 97.2667 143.769 98.2933 142.822 99.04C141.875 99.7867 140.709 100.16 139.322 100.16C138.229 100.16 137.255 99.9267 136.402 99.46C135.562 98.9933 134.902 98.3267 134.422 97.46C133.955 96.5933 133.722 95.58 133.722 94.42ZM153.371 88.72C154.651 88.72 155.678 89.1467 156.451 90C157.225 90.84 157.611 92 157.611 93.48V100H154.211V93.94C154.211 93.1933 154.018 92.6133 153.631 92.2C153.245 91.7867 152.725 91.58 152.071 91.58C151.418 91.58 150.898 91.7867 150.511 92.2C150.125 92.6133 149.931 93.1933 149.931 93.94V100H146.511V85.2H149.931V90.34C150.278 89.8467 150.751 89.4533 151.351 89.16C151.951 88.8667 152.625 88.72 153.371 88.72ZM163.546 94.44C163.546 93.3333 163.773 92.3467 164.226 91.48C164.693 90.6133 165.313 89.94 166.086 89.46C166.873 88.9667 167.726 88.72 168.646 88.72C169.353 88.72 169.986 88.8467 170.546 89.1C171.106 89.34 171.56 89.68 171.906 90.12V88.84H175.326V105.32H171.906V98.6C171.52 99.0667 171.046 99.44 170.486 99.72C169.94 100 169.313 100.14 168.606 100.14C167.7 100.14 166.86 99.9 166.086 99.42C165.313 98.94 164.693 98.2667 164.226 97.4C163.773 96.5333 163.546 95.5467 163.546 94.44ZM171.906 94.42C171.906 93.82 171.786 93.32 171.546 92.92C171.32 92.5067 171.02 92.2 170.646 92C170.273 91.7867 169.88 91.68 169.466 91.68C169.066 91.68 168.68 91.7867 168.306 92C167.933 92.2 167.626 92.5067 167.386 92.92C167.146 93.3333 167.026 93.84 167.026 94.44C167.026 95.04 167.146 95.5467 167.386 95.96C167.626 96.36 167.933 96.6667 168.306 96.88C168.68 97.08 169.066 97.18 169.466 97.18C169.866 97.18 170.253 97.08 170.626 96.88C171.013 96.6667 171.32 96.3533 171.546 95.94C171.786 95.5267 171.906 95.02 171.906 94.42ZM188.821 88.84V100H185.401V98.48C185.054 98.9733 184.581 99.3733 183.981 99.68C183.394 99.9733 182.741 100.12 182.021 100.12C181.167 100.12 180.414 99.9333 179.761 99.56C179.107 99.1733 178.601 98.62 178.241 97.9C177.881 97.18 177.701 96.3333 177.701 95.36V88.84H181.101V94.9C181.101 95.6467 181.294 96.2267 181.681 96.64C182.067 97.0533 182.587 97.26 183.241 97.26C183.907 97.26 184.434 97.0533 184.821 96.64C185.207 96.2267 185.401 95.6467 185.401 94.9V88.84H188.821ZM201.797 94.24C201.797 94.56 201.777 94.8933 201.737 95.24H193.997C194.05 95.9333 194.27 96.4667 194.657 96.84C195.057 97.2 195.544 97.38 196.117 97.38C196.97 97.38 197.564 97.02 197.897 96.3H201.537C201.35 97.0333 201.01 97.6933 200.517 98.28C200.037 98.8667 199.43 99.3267 198.697 99.66C197.964 99.9933 197.144 100.16 196.237 100.16C195.144 100.16 194.17 99.9267 193.317 99.46C192.464 98.9933 191.797 98.3267 191.317 97.46C190.837 96.5933 190.597 95.58 190.597 94.42C190.597 93.26 190.83 92.2467 191.297 91.38C191.777 90.5133 192.444 89.8467 193.297 89.38C194.15 88.9133 195.13 88.68 196.237 88.68C197.317 88.68 198.277 88.9067 199.117 89.36C199.957 89.8133 200.61 90.46 201.077 91.3C201.557 92.14 201.797 93.12 201.797 94.24ZM198.297 93.34C198.297 92.7533 198.097 92.2867 197.697 91.94C197.297 91.5933 196.797 91.42 196.197 91.42C195.624 91.42 195.137 91.5867 194.737 91.92C194.35 92.2533 194.11 92.7267 194.017 93.34H198.297ZM207.021 90.7C207.421 90.0867 207.921 89.6067 208.521 89.26C209.121 88.9 209.788 88.72 210.521 88.72V92.34H209.581C208.728 92.34 208.088 92.5267 207.661 92.9C207.235 93.26 207.021 93.9 207.021 94.82V100H203.601V88.84H207.021V90.7ZM223.556 88.84L216.556 105.3H212.876L215.436 99.62L210.896 88.84H214.716L217.296 95.82L219.856 88.84H223.556ZM235.251 97.1V100H233.511C232.271 100 231.304 99.7 230.611 99.1C229.918 98.4867 229.571 97.4933 229.571 96.12V91.68H228.211V88.84H229.571V86.12H232.991V88.84H235.231V91.68H232.991V96.16C232.991 96.4933 233.071 96.7333 233.231 96.88C233.391 97.0267 233.658 97.1 234.031 97.1H235.251ZM242.236 100.16C241.143 100.16 240.156 99.9267 239.276 99.46C238.409 98.9933 237.723 98.3267 237.216 97.46C236.723 96.5933 236.476 95.58 236.476 94.42C236.476 93.2733 236.729 92.2667 237.236 91.4C237.743 90.52 238.436 89.8467 239.316 89.38C240.196 88.9133 241.183 88.68 242.276 88.68C243.369 88.68 244.356 88.9133 245.236 89.38C246.116 89.8467 246.809 90.52 247.316 91.4C247.823 92.2667 248.076 93.2733 248.076 94.42C248.076 95.5667 247.816 96.58 247.296 97.46C246.789 98.3267 246.089 98.9933 245.196 99.46C244.316 99.9267 243.329 100.16 242.236 100.16ZM242.236 97.2C242.889 97.2 243.443 96.96 243.896 96.48C244.363 96 244.596 95.3133 244.596 94.42C244.596 93.5267 244.369 92.84 243.916 92.36C243.476 91.88 242.929 91.64 242.276 91.64C241.609 91.64 241.056 91.88 240.616 92.36C240.176 92.8267 239.956 93.5133 239.956 94.42C239.956 95.3133 240.169 96 240.596 96.48C241.036 96.96 241.583 97.2 242.236 97.2ZM253.449 94.44C253.449 93.3333 253.675 92.3467 254.129 91.48C254.595 90.6133 255.215 89.94 255.989 89.46C256.775 88.9667 257.629 88.72 258.549 88.72C259.255 88.72 259.889 88.8467 260.449 89.1C261.009 89.34 261.462 89.68 261.809 90.12V88.84H265.229V105.32H261.809V98.6C261.422 99.0667 260.949 99.44 260.389 99.72C259.842 100 259.215 100.14 258.509 100.14C257.602 100.14 256.762 99.9 255.989 99.42C255.215 98.94 254.595 98.2667 254.129 97.4C253.675 96.5333 253.449 95.5467 253.449 94.44ZM261.809 94.42C261.809 93.82 261.689 93.32 261.449 92.92C261.222 92.5067 260.922 92.2 260.549 92C260.175 91.7867 259.782 91.68 259.369 91.68C258.969 91.68 258.582 91.7867 258.209 92C257.835 92.2 257.529 92.5067 257.289 92.92C257.049 93.3333 256.929 93.84 256.929 94.44C256.929 95.04 257.049 95.5467 257.289 95.96C257.529 96.36 257.835 96.6667 258.209 96.88C258.582 97.08 258.969 97.18 259.369 97.18C259.769 97.18 260.155 97.08 260.529 96.88C260.915 96.6667 261.222 96.3533 261.449 95.94C261.689 95.5267 261.809 95.02 261.809 94.42ZM278.723 88.84V100H275.303V98.48C274.956 98.9733 274.483 99.3733 273.883 99.68C273.296 99.9733 272.643 100.12 271.923 100.12C271.07 100.12 270.316 99.9333 269.663 99.56C269.01 99.1733 268.503 98.62 268.143 97.9C267.783 97.18 267.603 96.3333 267.603 95.36V88.84H271.003V94.9C271.003 95.6467 271.196 96.2267 271.583 96.64C271.97 97.0533 272.49 97.26 273.143 97.26C273.81 97.26 274.336 97.0533 274.723 96.64C275.11 96.2267 275.303 95.6467 275.303 94.9V88.84H278.723ZM291.699 94.24C291.699 94.56 291.679 94.8933 291.639 95.24H283.899C283.953 95.9333 284.173 96.4667 284.559 96.84C284.959 97.2 285.446 97.38 286.019 97.38C286.873 97.38 287.466 97.02 287.799 96.3H291.439C291.253 97.0333 290.913 97.6933 290.419 98.28C289.939 98.8667 289.333 99.3267 288.599 99.66C287.866 99.9933 287.046 100.16 286.139 100.16C285.046 100.16 284.073 99.9267 283.219 99.46C282.366 98.9933 281.699 98.3267 281.219 97.46C280.739 96.5933 280.499 95.58 280.499 94.42C280.499 93.26 280.733 92.2467 281.199 91.38C281.679 90.5133 282.346 89.8467 283.199 89.38C284.053 88.9133 285.033 88.68 286.139 88.68C287.219 88.68 288.179 88.9067 289.019 89.36C289.859 89.8133 290.513 90.46 290.979 91.3C291.459 92.14 291.699 93.12 291.699 94.24ZM288.199 93.34C288.199 92.7533 287.999 92.2867 287.599 91.94C287.199 91.5933 286.699 91.42 286.099 91.42C285.526 91.42 285.039 91.5867 284.639 91.92C284.253 92.2533 284.013 92.7267 283.919 93.34H288.199ZM298.044 100.16C297.07 100.16 296.204 99.9933 295.444 99.66C294.684 99.3267 294.084 98.8733 293.644 98.3C293.204 97.7133 292.957 97.06 292.904 96.34H296.284C296.324 96.7267 296.504 97.04 296.824 97.28C297.144 97.52 297.537 97.64 298.004 97.64C298.43 97.64 298.757 97.56 298.984 97.4C299.224 97.2267 299.344 97.0067 299.344 96.74C299.344 96.42 299.177 96.1867 298.844 96.04C298.51 95.88 297.97 95.7067 297.224 95.52C296.424 95.3333 295.757 95.14 295.224 94.94C294.69 94.7267 294.23 94.4 293.844 93.96C293.457 93.5067 293.264 92.9 293.264 92.14C293.264 91.5 293.437 90.92 293.784 90.4C294.144 89.8667 294.664 89.4467 295.344 89.14C296.037 88.8333 296.857 88.68 297.804 88.68C299.204 88.68 300.304 89.0267 301.104 89.72C301.917 90.4133 302.384 91.3333 302.504 92.48H299.344C299.29 92.0933 299.117 91.7867 298.824 91.56C298.544 91.3333 298.17 91.22 297.704 91.22C297.304 91.22 296.997 91.3 296.784 91.46C296.57 91.6067 296.464 91.8133 296.464 92.08C296.464 92.4 296.63 92.64 296.964 92.8C297.31 92.96 297.844 93.12 298.564 93.28C299.39 93.4933 300.064 93.7067 300.584 93.92C301.104 94.12 301.557 94.4533 301.944 94.92C302.344 95.3733 302.55 95.9867 302.564 96.76C302.564 97.4133 302.377 98 302.004 98.52C301.644 99.0267 301.117 99.4267 300.424 99.72C299.744 100.013 298.95 100.16 298.044 100.16ZM310.876 97.1V100H309.136C307.896 100 306.929 99.7 306.236 99.1C305.543 98.4867 305.196 97.4933 305.196 96.12V91.68H303.836V88.84H305.196V86.12H308.616V88.84H310.856V91.68H308.616V96.16C308.616 96.4933 308.696 96.7333 308.856 96.88C309.016 97.0267 309.283 97.1 309.656 97.1H310.876ZM314.501 87.68C313.901 87.68 313.408 87.5067 313.021 87.16C312.648 86.8 312.461 86.36 312.461 85.84C312.461 85.3067 312.648 84.8667 313.021 84.52C313.408 84.16 313.901 83.98 314.501 83.98C315.088 83.98 315.568 84.16 315.941 84.52C316.328 84.8667 316.521 85.3067 316.521 85.84C316.521 86.36 316.328 86.8 315.941 87.16C315.568 87.5067 315.088 87.68 314.501 87.68ZM316.201 88.84V100H312.781V88.84H316.201ZM323.759 100.16C322.666 100.16 321.679 99.9267 320.799 99.46C319.933 98.9933 319.246 98.3267 318.739 97.46C318.246 96.5933 317.999 95.58 317.999 94.42C317.999 93.2733 318.253 92.2667 318.759 91.4C319.266 90.52 319.959 89.8467 320.839 89.38C321.719 88.9133 322.706 88.68 323.799 88.68C324.893 88.68 325.879 88.9133 326.759 89.38C327.639 89.8467 328.333 90.52 328.839 91.4C329.346 92.2667 329.599 93.2733 329.599 94.42C329.599 95.5667 329.339 96.58 328.819 97.46C328.313 98.3267 327.613 98.9933 326.719 99.46C325.839 99.9267 324.853 100.16 323.759 100.16ZM323.759 97.2C324.413 97.2 324.966 96.96 325.419 96.48C325.886 96 326.119 95.3133 326.119 94.42C326.119 93.5267 325.893 92.84 325.439 92.36C324.999 91.88 324.453 91.64 323.799 91.64C323.133 91.64 322.579 91.88 322.139 92.36C321.699 92.8267 321.479 93.5133 321.479 94.42C321.479 95.3133 321.693 96 322.119 96.48C322.559 96.96 323.106 97.2 323.759 97.2ZM338.214 88.72C339.52 88.72 340.56 89.1467 341.334 90C342.12 90.84 342.514 92 342.514 93.48V100H339.114V93.94C339.114 93.1933 338.92 92.6133 338.534 92.2C338.147 91.7867 337.627 91.58 336.974 91.58C336.32 91.58 335.8 91.7867 335.414 92.2C335.027 92.6133 334.834 93.1933 334.834 93.94V100H331.414V88.84H334.834V90.32C335.18 89.8267 335.647 89.44 336.234 89.16C336.82 88.8667 337.48 88.72 338.214 88.72Z" fill="#333333"/>
</svg>
