<svg width="746" height="408" viewBox="0 0 746 408" fill="none" xmlns="http://www.w3.org/2000/svg">
<rect x="147" width="452" height="84" rx="10" fill="#A4B4EF"/>
<path d="M242.77 49.67H249.67V53H238.57V32.06H242.77V49.67ZM251.26 44.63C251.26 42.95 251.59 41.46 252.25 40.16C252.93 38.86 253.84 37.86 254.98 37.16C256.14 36.46 257.43 36.11 258.85 36.11C260.09 36.11 261.17 36.36 262.09 36.86C263.03 37.36 263.78 37.99 264.34 38.75V36.38H268.57V53H264.34V50.57C263.8 51.35 263.05 52 262.09 52.52C261.15 53.02 260.06 53.27 258.82 53.27C257.42 53.27 256.14 52.91 254.98 52.19C253.84 51.47 252.93 50.46 252.25 49.16C251.59 47.84 251.26 46.33 251.26 44.63ZM264.34 44.69C264.34 43.67 264.14 42.8 263.74 42.08C263.34 41.34 262.8 40.78 262.12 40.4C261.44 40 260.71 39.8 259.93 39.8C259.15 39.8 258.43 39.99 257.77 40.37C257.11 40.75 256.57 41.31 256.15 42.05C255.75 42.77 255.55 43.63 255.55 44.63C255.55 45.63 255.75 46.51 256.15 47.27C256.57 48.01 257.11 48.58 257.77 48.98C258.45 49.38 259.17 49.58 259.93 49.58C260.71 49.58 261.44 49.39 262.12 49.01C262.8 48.61 263.34 48.05 263.74 47.33C264.14 46.59 264.34 45.71 264.34 44.69ZM288.572 36.38L278.282 60.86H273.812L277.412 52.58L270.752 36.38H275.462L279.752 47.99L284.102 36.38H288.572ZM298.216 53.27C296.616 53.27 295.176 52.92 293.896 52.22C292.616 51.5 291.606 50.49 290.866 49.19C290.146 47.89 289.786 46.39 289.786 44.69C289.786 42.99 290.156 41.49 290.896 40.19C291.656 38.89 292.686 37.89 293.986 37.19C295.286 36.47 296.736 36.11 298.336 36.11C299.936 36.11 301.386 36.47 302.686 37.19C303.986 37.89 305.006 38.89 305.746 40.19C306.506 41.49 306.886 42.99 306.886 44.69C306.886 46.39 306.496 47.89 305.716 49.19C304.956 50.49 303.916 51.5 302.596 52.22C301.296 52.92 299.836 53.27 298.216 53.27ZM298.216 49.61C298.976 49.61 299.686 49.43 300.346 49.07C301.026 48.69 301.566 48.13 301.966 47.39C302.366 46.65 302.566 45.75 302.566 44.69C302.566 43.11 302.146 41.9 301.306 41.06C300.486 40.2 299.476 39.77 298.276 39.77C297.076 39.77 296.066 40.2 295.246 41.06C294.446 41.9 294.046 43.11 294.046 44.69C294.046 46.27 294.436 47.49 295.216 48.35C296.016 49.19 297.016 49.61 298.216 49.61ZM325.656 36.38V53H321.426V50.9C320.886 51.62 320.176 52.19 319.296 52.61C318.436 53.01 317.496 53.21 316.476 53.21C315.176 53.21 314.026 52.94 313.026 52.4C312.026 51.84 311.236 51.03 310.656 49.97C310.096 48.89 309.816 47.61 309.816 46.13V36.38H314.016V45.53C314.016 46.85 314.346 47.87 315.006 48.59C315.666 49.29 316.566 49.64 317.706 49.64C318.866 49.64 319.776 49.29 320.436 48.59C321.096 47.87 321.426 46.85 321.426 45.53V36.38H325.656ZM334.69 39.83V47.87C334.69 48.43 334.82 48.84 335.08 49.1C335.36 49.34 335.82 49.46 336.46 49.46H338.41V53H335.77C332.23 53 330.46 51.28 330.46 47.84V39.83H328.48V36.38H330.46V32.27H334.69V36.38H338.41V39.83H334.69ZM362.83 32.06V35.45H357.25V53H353.05V35.45H347.47V32.06H362.83ZM381.344 44.33C381.344 44.93 381.304 45.47 381.224 45.95H369.074C369.174 47.15 369.594 48.09 370.334 48.77C371.074 49.45 371.984 49.79 373.064 49.79C374.624 49.79 375.734 49.12 376.394 47.78H380.924C380.444 49.38 379.524 50.7 378.164 51.74C376.804 52.76 375.134 53.27 373.154 53.27C371.554 53.27 370.114 52.92 368.834 52.22C367.574 51.5 366.584 50.49 365.864 49.19C365.164 47.89 364.814 46.39 364.814 44.69C364.814 42.97 365.164 41.46 365.864 40.16C366.564 38.86 367.544 37.86 368.804 37.16C370.064 36.46 371.514 36.11 373.154 36.11C374.734 36.11 376.144 36.45 377.384 37.13C378.644 37.81 379.614 38.78 380.294 40.04C380.994 41.28 381.344 42.71 381.344 44.33ZM376.994 43.13C376.974 42.05 376.584 41.19 375.824 40.55C375.064 39.89 374.134 39.56 373.034 39.56C371.994 39.56 371.114 39.88 370.394 40.52C369.694 41.14 369.264 42.01 369.104 43.13H376.994ZM405.05 36.14C407.09 36.14 408.73 36.77 409.97 38.03C411.23 39.27 411.86 41.01 411.86 43.25V53H407.66V43.82C407.66 42.52 407.33 41.53 406.67 40.85C406.01 40.15 405.11 39.8 403.97 39.8C402.83 39.8 401.92 40.15 401.24 40.85C400.58 41.53 400.25 42.52 400.25 43.82V53H396.05V43.82C396.05 42.52 395.72 41.53 395.06 40.85C394.4 40.15 393.5 39.8 392.36 39.8C391.2 39.8 390.28 40.15 389.6 40.85C388.94 41.53 388.61 42.52 388.61 43.82V53H384.41V36.38H388.61V38.39C389.15 37.69 389.84 37.14 390.68 36.74C391.54 36.34 392.48 36.14 393.5 36.14C394.8 36.14 395.96 36.42 396.98 36.98C398 37.52 398.79 38.3 399.35 39.32C399.89 38.36 400.67 37.59 401.69 37.01C402.73 36.43 403.85 36.14 405.05 36.14ZM420.045 38.78C420.585 38.02 421.325 37.39 422.265 36.89C423.225 36.37 424.315 36.11 425.535 36.11C426.955 36.11 428.235 36.46 429.375 37.16C430.535 37.86 431.445 38.86 432.105 40.16C432.785 41.44 433.125 42.93 433.125 44.63C433.125 46.33 432.785 47.84 432.105 49.16C431.445 50.46 430.535 51.47 429.375 52.19C428.235 52.91 426.955 53.27 425.535 53.27C424.315 53.27 423.235 53.02 422.295 52.52C421.375 52.02 420.625 51.39 420.045 50.63V60.92H415.845V36.38H420.045V38.78ZM428.835 44.63C428.835 43.63 428.625 42.77 428.205 42.05C427.805 41.31 427.265 40.75 426.585 40.37C425.925 39.99 425.205 39.8 424.425 39.8C423.665 39.8 422.945 40 422.265 40.4C421.605 40.78 421.065 41.34 420.645 42.08C420.245 42.82 420.045 43.69 420.045 44.69C420.045 45.69 420.245 46.56 420.645 47.3C421.065 48.04 421.605 48.61 422.265 49.01C422.945 49.39 423.665 49.58 424.425 49.58C425.205 49.58 425.925 49.38 426.585 48.98C427.265 48.58 427.805 48.01 428.205 47.27C428.625 46.53 428.835 45.65 428.835 44.63ZM440.377 30.8V53H436.177V30.8H440.377ZM443.447 44.63C443.447 42.95 443.777 41.46 444.437 40.16C445.117 38.86 446.027 37.86 447.167 37.16C448.327 36.46 449.617 36.11 451.037 36.11C452.277 36.11 453.357 36.36 454.277 36.86C455.217 37.36 455.967 37.99 456.527 38.75V36.38H460.757V53H456.527V50.57C455.987 51.35 455.237 52 454.277 52.52C453.337 53.02 452.247 53.27 451.007 53.27C449.607 53.27 448.327 52.91 447.167 52.19C446.027 51.47 445.117 50.46 444.437 49.16C443.777 47.84 443.447 46.33 443.447 44.63ZM456.527 44.69C456.527 43.67 456.327 42.8 455.927 42.08C455.527 41.34 454.987 40.78 454.307 40.4C453.627 40 452.897 39.8 452.117 39.8C451.337 39.8 450.617 39.99 449.957 40.37C449.297 40.75 448.757 41.31 448.337 42.05C447.937 42.77 447.737 43.63 447.737 44.63C447.737 45.63 447.937 46.51 448.337 47.27C448.757 48.01 449.297 48.58 449.957 48.98C450.637 49.38 451.357 49.58 452.117 49.58C452.897 49.58 453.627 49.39 454.307 49.01C454.987 48.61 455.527 48.05 455.927 47.33C456.327 46.59 456.527 45.71 456.527 44.69ZM469.749 39.83V47.87C469.749 48.43 469.879 48.84 470.139 49.1C470.419 49.34 470.879 49.46 471.519 49.46H473.469V53H470.829C467.289 53 465.519 51.28 465.519 47.84V39.83H463.539V36.38H465.519V32.27H469.749V36.38H473.469V39.83H469.749ZM491.94 44.33C491.94 44.93 491.9 45.47 491.82 45.95H479.67C479.77 47.15 480.19 48.09 480.93 48.77C481.67 49.45 482.58 49.79 483.66 49.79C485.22 49.79 486.33 49.12 486.99 47.78H491.52C491.04 49.38 490.12 50.7 488.76 51.74C487.4 52.76 485.73 53.27 483.75 53.27C482.15 53.27 480.71 52.92 479.43 52.22C478.17 51.5 477.18 50.49 476.46 49.19C475.76 47.89 475.41 46.39 475.41 44.69C475.41 42.97 475.76 41.46 476.46 40.16C477.16 38.86 478.14 37.86 479.4 37.16C480.66 36.46 482.11 36.11 483.75 36.11C485.33 36.11 486.74 36.45 487.98 37.13C489.24 37.81 490.21 38.78 490.89 40.04C491.59 41.28 491.94 42.71 491.94 44.33ZM487.59 43.13C487.57 42.05 487.18 41.19 486.42 40.55C485.66 39.89 484.73 39.56 483.63 39.56C482.59 39.56 481.71 39.88 480.99 40.52C480.29 41.14 479.86 42.01 479.7 43.13H487.59ZM501.366 53.27C500.006 53.27 498.786 53.03 497.706 52.55C496.626 52.05 495.766 51.38 495.126 50.54C494.506 49.7 494.166 48.77 494.106 47.75H498.336C498.416 48.39 498.726 48.92 499.266 49.34C499.826 49.76 500.516 49.97 501.336 49.97C502.136 49.97 502.756 49.81 503.196 49.49C503.656 49.17 503.886 48.76 503.886 48.26C503.886 47.72 503.606 47.32 503.046 47.06C502.506 46.78 501.636 46.48 500.436 46.16C499.196 45.86 498.176 45.55 497.376 45.23C496.596 44.91 495.916 44.42 495.336 43.76C494.776 43.1 494.496 42.21 494.496 41.09C494.496 40.17 494.756 39.33 495.276 38.57C495.816 37.81 496.576 37.21 497.556 36.77C498.556 36.33 499.726 36.11 501.066 36.11C503.046 36.11 504.626 36.61 505.806 37.61C506.986 38.59 507.636 39.92 507.756 41.6H503.736C503.676 40.94 503.396 40.42 502.896 40.04C502.416 39.64 501.766 39.44 500.946 39.44C500.186 39.44 499.596 39.58 499.176 39.86C498.776 40.14 498.576 40.53 498.576 41.03C498.576 41.59 498.856 42.02 499.416 42.32C499.976 42.6 500.846 42.89 502.026 43.19C503.226 43.49 504.216 43.8 504.996 44.12C505.776 44.44 506.446 44.94 507.006 45.62C507.586 46.28 507.886 47.16 507.906 48.26C507.906 49.22 507.636 50.08 507.096 50.84C506.576 51.6 505.816 52.2 504.816 52.64C503.836 53.06 502.686 53.27 501.366 53.27Z" fill="white"/>
<rect x="112" y="108" width="522" height="84" rx="10" fill="#768EE6"/>
<path d="M290.21 140.06V153.02C290.21 154.44 290.58 155.53 291.32 156.29C292.06 157.03 293.1 157.4 294.44 157.4C295.8 157.4 296.85 157.03 297.59 156.29C298.33 155.53 298.7 154.44 298.7 153.02V140.06H302.93V152.99C302.93 154.77 302.54 156.28 301.76 157.52C301 158.74 299.97 159.66 298.67 160.28C297.39 160.9 295.96 161.21 294.38 161.21C292.82 161.21 291.4 160.9 290.12 160.28C288.86 159.66 287.86 158.74 287.12 157.52C286.38 156.28 286.01 154.77 286.01 152.99V140.06H290.21ZM311.188 140.06V161H306.988V140.06H311.188ZM326.686 143.45V148.7H333.736V152.03H326.686V157.58H334.636V161H322.486V140.03H334.636V143.45H326.686ZM342.653 138.8V161H338.453V138.8H342.653ZM362.252 152.33C362.252 152.93 362.212 153.47 362.132 153.95H349.982C350.082 155.15 350.502 156.09 351.242 156.77C351.982 157.45 352.892 157.79 353.972 157.79C355.532 157.79 356.642 157.12 357.302 155.78H361.832C361.352 157.38 360.432 158.7 359.072 159.74C357.712 160.76 356.042 161.27 354.062 161.27C352.462 161.27 351.022 160.92 349.742 160.22C348.482 159.5 347.492 158.49 346.772 157.19C346.072 155.89 345.722 154.39 345.722 152.69C345.722 150.97 346.072 149.46 346.772 148.16C347.472 146.86 348.452 145.86 349.712 145.16C350.972 144.46 352.422 144.11 354.062 144.11C355.642 144.11 357.052 144.45 358.292 145.13C359.552 145.81 360.522 146.78 361.202 148.04C361.902 149.28 362.252 150.71 362.252 152.33ZM357.902 151.13C357.882 150.05 357.492 149.19 356.732 148.55C355.972 147.89 355.042 147.56 353.942 147.56C352.902 147.56 352.022 147.88 351.302 148.52C350.602 149.14 350.172 150.01 350.012 151.13H357.902ZM385.958 144.14C387.998 144.14 389.638 144.77 390.878 146.03C392.138 147.27 392.768 149.01 392.768 151.25V161H388.568V151.82C388.568 150.52 388.238 149.53 387.578 148.85C386.918 148.15 386.018 147.8 384.878 147.8C383.738 147.8 382.828 148.15 382.148 148.85C381.488 149.53 381.158 150.52 381.158 151.82V161H376.958V151.82C376.958 150.52 376.628 149.53 375.968 148.85C375.308 148.15 374.408 147.8 373.268 147.8C372.108 147.8 371.188 148.15 370.508 148.85C369.848 149.53 369.518 150.52 369.518 151.82V161H365.318V144.38H369.518V146.39C370.058 145.69 370.748 145.14 371.588 144.74C372.448 144.34 373.388 144.14 374.408 144.14C375.708 144.14 376.868 144.42 377.888 144.98C378.908 145.52 379.698 146.3 380.258 147.32C380.798 146.36 381.578 145.59 382.598 145.01C383.638 144.43 384.758 144.14 385.958 144.14ZM412.204 152.33C412.204 152.93 412.164 153.47 412.084 153.95H399.934C400.034 155.15 400.454 156.09 401.194 156.77C401.934 157.45 402.844 157.79 403.924 157.79C405.484 157.79 406.594 157.12 407.254 155.78H411.784C411.304 157.38 410.384 158.7 409.024 159.74C407.664 160.76 405.994 161.27 404.014 161.27C402.414 161.27 400.974 160.92 399.694 160.22C398.434 159.5 397.444 158.49 396.724 157.19C396.024 155.89 395.674 154.39 395.674 152.69C395.674 150.97 396.024 149.46 396.724 148.16C397.424 146.86 398.404 145.86 399.664 145.16C400.924 144.46 402.374 144.11 404.014 144.11C405.594 144.11 407.004 144.45 408.244 145.13C409.504 145.81 410.474 146.78 411.154 148.04C411.854 149.28 412.204 150.71 412.204 152.33ZM407.854 151.13C407.834 150.05 407.444 149.19 406.684 148.55C405.924 147.89 404.994 147.56 403.894 147.56C402.854 147.56 401.974 147.88 401.254 148.52C400.554 149.14 400.124 150.01 399.964 151.13H407.854ZM424.479 144.14C426.459 144.14 428.059 144.77 429.279 146.03C430.499 147.27 431.109 149.01 431.109 151.25V161H426.909V151.82C426.909 150.5 426.579 149.49 425.919 148.79C425.259 148.07 424.359 147.71 423.219 147.71C422.059 147.71 421.139 148.07 420.459 148.79C419.799 149.49 419.469 150.5 419.469 151.82V161H415.269V144.38H419.469V146.45C420.029 145.73 420.739 145.17 421.599 144.77C422.479 144.35 423.439 144.14 424.479 144.14ZM439.993 147.83V155.87C439.993 156.43 440.123 156.84 440.383 157.1C440.663 157.34 441.123 157.46 441.763 157.46H443.713V161H441.073C437.533 161 435.763 159.28 435.763 155.84V147.83H433.783V144.38H435.763V140.27H439.993V144.38H443.713V147.83H439.993ZM453.094 161.27C451.734 161.27 450.514 161.03 449.434 160.55C448.354 160.05 447.494 159.38 446.854 158.54C446.234 157.7 445.894 156.77 445.834 155.75H450.064C450.144 156.39 450.454 156.92 450.994 157.34C451.554 157.76 452.244 157.97 453.064 157.97C453.864 157.97 454.484 157.81 454.924 157.49C455.384 157.17 455.614 156.76 455.614 156.26C455.614 155.72 455.334 155.32 454.774 155.06C454.234 154.78 453.364 154.48 452.164 154.16C450.924 153.86 449.904 153.55 449.104 153.23C448.324 152.91 447.644 152.42 447.064 151.76C446.504 151.1 446.224 150.21 446.224 149.09C446.224 148.17 446.484 147.33 447.004 146.57C447.544 145.81 448.304 145.21 449.284 144.77C450.284 144.33 451.454 144.11 452.794 144.11C454.774 144.11 456.354 144.61 457.534 145.61C458.714 146.59 459.364 147.92 459.484 149.6H455.464C455.404 148.94 455.124 148.42 454.624 148.04C454.144 147.64 453.494 147.44 452.674 147.44C451.914 147.44 451.324 147.58 450.904 147.86C450.504 148.14 450.304 148.53 450.304 149.03C450.304 149.59 450.584 150.02 451.144 150.32C451.704 150.6 452.574 150.89 453.754 151.19C454.954 151.49 455.944 151.8 456.724 152.12C457.504 152.44 458.174 152.94 458.734 153.62C459.314 154.28 459.614 155.16 459.634 156.26C459.634 157.22 459.364 158.08 458.824 158.84C458.304 159.6 457.544 160.2 456.544 160.64C455.564 161.06 454.414 161.27 453.094 161.27Z" fill="white"/>
<rect x="47" y="216" width="652" height="84" rx="10" fill="#607CE3"/>
<path d="M156.3 269.21C154.84 269.21 153.52 268.96 152.34 268.46C151.18 267.96 150.26 267.24 149.58 266.3C148.9 265.36 148.55 264.25 148.53 262.97H153.03C153.09 263.83 153.39 264.51 153.93 265.01C154.49 265.51 155.25 265.76 156.21 265.76C157.19 265.76 157.96 265.53 158.52 265.07C159.08 264.59 159.36 263.97 159.36 263.21C159.36 262.59 159.17 262.08 158.79 261.68C158.41 261.28 157.93 260.97 157.35 260.75C156.79 260.51 156.01 260.25 155.01 259.97C153.65 259.57 152.54 259.18 151.68 258.8C150.84 258.4 150.11 257.81 149.49 257.03C148.89 256.23 148.59 255.17 148.59 253.85C148.59 252.61 148.9 251.53 149.52 250.61C150.14 249.69 151.01 248.99 152.13 248.51C153.25 248.01 154.53 247.76 155.97 247.76C158.13 247.76 159.88 248.29 161.22 249.35C162.58 250.39 163.33 251.85 163.47 253.73H158.85C158.81 253.01 158.5 252.42 157.92 251.96C157.36 251.48 156.61 251.24 155.67 251.24C154.85 251.24 154.19 251.45 153.69 251.87C153.21 252.29 152.97 252.9 152.97 253.7C152.97 254.26 153.15 254.73 153.51 255.11C153.89 255.47 154.35 255.77 154.89 256.01C155.45 256.23 156.23 256.49 157.23 256.79C158.59 257.19 159.7 257.59 160.56 257.99C161.42 258.39 162.16 258.99 162.78 259.79C163.4 260.59 163.71 261.64 163.71 262.94C163.71 264.06 163.42 265.1 162.84 266.06C162.26 267.02 161.41 267.79 160.29 268.37C159.17 268.93 157.84 269.21 156.3 269.21ZM166.271 260.63C166.271 258.95 166.601 257.46 167.261 256.16C167.941 254.86 168.851 253.86 169.991 253.16C171.151 252.46 172.441 252.11 173.861 252.11C175.101 252.11 176.181 252.36 177.101 252.86C178.041 253.36 178.791 253.99 179.351 254.75V252.38H183.581V269H179.351V266.57C178.811 267.35 178.061 268 177.101 268.52C176.161 269.02 175.071 269.27 173.831 269.27C172.431 269.27 171.151 268.91 169.991 268.19C168.851 267.47 167.941 266.46 167.261 265.16C166.601 263.84 166.271 262.33 166.271 260.63ZM179.351 260.69C179.351 259.67 179.151 258.8 178.751 258.08C178.351 257.34 177.811 256.78 177.131 256.4C176.451 256 175.721 255.8 174.941 255.8C174.161 255.8 173.441 255.99 172.781 256.37C172.121 256.75 171.581 257.31 171.161 258.05C170.761 258.77 170.561 259.63 170.561 260.63C170.561 261.63 170.761 262.51 171.161 263.27C171.581 264.01 172.121 264.58 172.781 264.98C173.461 265.38 174.181 265.58 174.941 265.58C175.721 265.58 176.451 265.39 177.131 265.01C177.811 264.61 178.351 264.05 178.751 263.33C179.151 262.59 179.351 261.71 179.351 260.69ZM186.603 260.63C186.603 258.95 186.933 257.46 187.593 256.16C188.273 254.86 189.183 253.86 190.323 253.16C191.483 252.46 192.773 252.11 194.193 252.11C195.433 252.11 196.513 252.36 197.433 252.86C198.373 253.36 199.123 253.99 199.683 254.75V252.38H203.913V269H199.683V266.57C199.143 267.35 198.393 268 197.433 268.52C196.493 269.02 195.403 269.27 194.163 269.27C192.763 269.27 191.483 268.91 190.323 268.19C189.183 267.47 188.273 266.46 187.593 265.16C186.933 263.84 186.603 262.33 186.603 260.63ZM199.683 260.69C199.683 259.67 199.483 258.8 199.083 258.08C198.683 257.34 198.143 256.78 197.463 256.4C196.783 256 196.053 255.8 195.273 255.8C194.493 255.8 193.773 255.99 193.113 256.37C192.453 256.75 191.913 257.31 191.493 258.05C191.093 258.77 190.893 259.63 190.893 260.63C190.893 261.63 191.093 262.51 191.493 263.27C191.913 264.01 192.453 264.58 193.113 264.98C193.793 265.38 194.513 265.58 195.273 265.58C196.053 265.58 196.783 265.39 197.463 265.01C198.143 264.61 198.683 264.05 199.083 263.33C199.483 262.59 199.683 261.71 199.683 260.69ZM215.245 269.21C213.785 269.21 212.465 268.96 211.285 268.46C210.125 267.96 209.205 267.24 208.525 266.3C207.845 265.36 207.495 264.25 207.475 262.97H211.975C212.035 263.83 212.335 264.51 212.875 265.01C213.435 265.51 214.195 265.76 215.155 265.76C216.135 265.76 216.905 265.53 217.465 265.07C218.025 264.59 218.305 263.97 218.305 263.21C218.305 262.59 218.115 262.08 217.735 261.68C217.355 261.28 216.875 260.97 216.295 260.75C215.735 260.51 214.955 260.25 213.955 259.97C212.595 259.57 211.485 259.18 210.625 258.8C209.785 258.4 209.055 257.81 208.435 257.03C207.835 256.23 207.535 255.17 207.535 253.85C207.535 252.61 207.845 251.53 208.465 250.61C209.085 249.69 209.955 248.99 211.075 248.51C212.195 248.01 213.475 247.76 214.915 247.76C217.075 247.76 218.825 248.29 220.165 249.35C221.525 250.39 222.275 251.85 222.415 253.73H217.795C217.755 253.01 217.445 252.42 216.865 251.96C216.305 251.48 215.555 251.24 214.615 251.24C213.795 251.24 213.135 251.45 212.635 251.87C212.155 252.29 211.915 252.9 211.915 253.7C211.915 254.26 212.095 254.73 212.455 255.11C212.835 255.47 213.295 255.77 213.835 256.01C214.395 256.23 215.175 256.49 216.175 256.79C217.535 257.19 218.645 257.59 219.505 257.99C220.365 258.39 221.105 258.99 221.725 259.79C222.345 260.59 222.655 261.64 222.655 262.94C222.655 264.06 222.365 265.1 221.785 266.06C221.205 267.02 220.355 267.79 219.235 268.37C218.115 268.93 216.785 269.21 215.245 269.21ZM246.375 248.06V251.45H237.645V256.82H244.335V260.15H237.645V269H233.445V248.06H246.375ZM265.043 252.38V269H260.813V266.9C260.273 267.62 259.563 268.19 258.683 268.61C257.823 269.01 256.883 269.21 255.863 269.21C254.563 269.21 253.413 268.94 252.413 268.4C251.413 267.84 250.623 267.03 250.043 265.97C249.483 264.89 249.203 263.61 249.203 262.13V252.38H253.403V261.53C253.403 262.85 253.733 263.87 254.393 264.59C255.053 265.29 255.953 265.64 257.093 265.64C258.253 265.64 259.163 265.29 259.823 264.59C260.483 263.87 260.813 262.85 260.813 261.53V252.38H265.043ZM278.397 252.14C280.377 252.14 281.977 252.77 283.197 254.03C284.417 255.27 285.027 257.01 285.027 259.25V269H280.827V259.82C280.827 258.5 280.497 257.49 279.837 256.79C279.177 256.07 278.277 255.71 277.137 255.71C275.977 255.71 275.057 256.07 274.377 256.79C273.717 257.49 273.387 258.5 273.387 259.82V269H269.187V252.38H273.387V254.45C273.947 253.73 274.657 253.17 275.517 252.77C276.397 252.35 277.357 252.14 278.397 252.14ZM287.941 260.69C287.941 258.97 288.291 257.47 288.991 256.19C289.691 254.89 290.661 253.89 291.901 253.19C293.141 252.47 294.561 252.11 296.161 252.11C298.221 252.11 299.921 252.63 301.261 253.67C302.621 254.69 303.531 256.13 303.991 257.99H299.461C299.221 257.27 298.811 256.71 298.231 256.31C297.671 255.89 296.971 255.68 296.131 255.68C294.931 255.68 293.981 256.12 293.281 257C292.581 257.86 292.231 259.09 292.231 260.69C292.231 262.27 292.581 263.5 293.281 264.38C293.981 265.24 294.931 265.67 296.131 265.67C297.831 265.67 298.941 264.91 299.461 263.39H303.991C303.531 265.19 302.621 266.62 301.261 267.68C299.901 268.74 298.201 269.27 296.161 269.27C294.561 269.27 293.141 268.92 291.901 268.22C290.661 267.5 289.691 266.5 288.991 265.22C288.291 263.92 287.941 262.41 287.941 260.69ZM311.958 255.83V263.87C311.958 264.43 312.088 264.84 312.348 265.1C312.628 265.34 313.088 265.46 313.728 265.46H315.678V269H313.038C309.498 269 307.728 267.28 307.728 263.84V255.83H305.748V252.38H307.728V248.27H311.958V252.38H315.678V255.83H311.958ZM320.829 250.4C320.089 250.4 319.469 250.17 318.969 249.71C318.489 249.23 318.249 248.64 318.249 247.94C318.249 247.24 318.489 246.66 318.969 246.2C319.469 245.72 320.089 245.48 320.829 245.48C321.569 245.48 322.179 245.72 322.659 246.2C323.159 246.66 323.409 247.24 323.409 247.94C323.409 248.64 323.159 249.23 322.659 249.71C322.179 250.17 321.569 250.4 320.829 250.4ZM322.899 252.38V269H318.699V252.38H322.899ZM334.429 269.27C332.829 269.27 331.389 268.92 330.109 268.22C328.829 267.5 327.819 266.49 327.079 265.19C326.359 263.89 325.999 262.39 325.999 260.69C325.999 258.99 326.369 257.49 327.109 256.19C327.869 254.89 328.899 253.89 330.199 253.19C331.499 252.47 332.949 252.11 334.549 252.11C336.149 252.11 337.599 252.47 338.899 253.19C340.199 253.89 341.219 254.89 341.959 256.19C342.719 257.49 343.099 258.99 343.099 260.69C343.099 262.39 342.709 263.89 341.929 265.19C341.169 266.49 340.129 267.5 338.809 268.22C337.509 268.92 336.049 269.27 334.429 269.27ZM334.429 265.61C335.189 265.61 335.899 265.43 336.559 265.07C337.239 264.69 337.779 264.13 338.179 263.39C338.579 262.65 338.779 261.75 338.779 260.69C338.779 259.11 338.359 257.9 337.519 257.06C336.699 256.2 335.689 255.77 334.489 255.77C333.289 255.77 332.279 256.2 331.459 257.06C330.659 257.9 330.259 259.11 330.259 260.69C330.259 262.27 330.649 263.49 331.429 264.35C332.229 265.19 333.229 265.61 334.429 265.61ZM355.389 252.14C357.369 252.14 358.969 252.77 360.189 254.03C361.409 255.27 362.019 257.01 362.019 259.25V269H357.819V259.82C357.819 258.5 357.489 257.49 356.829 256.79C356.169 256.07 355.269 255.71 354.129 255.71C352.969 255.71 352.049 256.07 351.369 256.79C350.709 257.49 350.379 258.5 350.379 259.82V269H346.179V252.38H350.379V254.45C350.939 253.73 351.649 253.17 352.509 252.77C353.389 252.35 354.349 252.14 355.389 252.14ZM364.933 260.63C364.933 258.95 365.263 257.46 365.923 256.16C366.603 254.86 367.513 253.86 368.653 253.16C369.813 252.46 371.103 252.11 372.523 252.11C373.763 252.11 374.843 252.36 375.763 252.86C376.703 253.36 377.453 253.99 378.013 254.75V252.38H382.243V269H378.013V266.57C377.473 267.35 376.723 268 375.763 268.52C374.823 269.02 373.733 269.27 372.493 269.27C371.093 269.27 369.813 268.91 368.653 268.19C367.513 267.47 366.603 266.46 365.923 265.16C365.263 263.84 364.933 262.33 364.933 260.63ZM378.013 260.69C378.013 259.67 377.813 258.8 377.413 258.08C377.013 257.34 376.473 256.78 375.793 256.4C375.113 256 374.383 255.8 373.603 255.8C372.823 255.8 372.103 255.99 371.443 256.37C370.783 256.75 370.243 257.31 369.823 258.05C369.423 258.77 369.223 259.63 369.223 260.63C369.223 261.63 369.423 262.51 369.823 263.27C370.243 264.01 370.783 264.58 371.443 264.98C372.123 265.38 372.843 265.58 373.603 265.58C374.383 265.58 375.113 265.39 375.793 265.01C376.473 264.61 377.013 264.05 377.413 263.33C377.813 262.59 378.013 261.71 378.013 260.69ZM390.545 246.8V269H386.345V246.8H390.545ZM412.643 269L408.023 260.84H406.043V269H401.843V248.06H409.703C411.323 248.06 412.703 248.35 413.843 248.93C414.983 249.49 415.833 250.26 416.393 251.24C416.973 252.2 417.263 253.28 417.263 254.48C417.263 255.86 416.863 257.11 416.063 258.23C415.263 259.33 414.073 260.09 412.493 260.51L417.503 269H412.643ZM406.043 257.69H409.553C410.693 257.69 411.543 257.42 412.103 256.88C412.663 256.32 412.943 255.55 412.943 254.57C412.943 253.61 412.663 252.87 412.103 252.35C411.543 251.81 410.693 251.54 409.553 251.54H406.043V257.69ZM436.512 260.33C436.512 260.93 436.472 261.47 436.392 261.95H424.242C424.342 263.15 424.762 264.09 425.502 264.77C426.242 265.45 427.152 265.79 428.232 265.79C429.792 265.79 430.902 265.12 431.562 263.78H436.092C435.612 265.38 434.692 266.7 433.332 267.74C431.972 268.76 430.302 269.27 428.322 269.27C426.722 269.27 425.282 268.92 424.002 268.22C422.742 267.5 421.752 266.49 421.032 265.19C420.332 263.89 419.982 262.39 419.982 260.69C419.982 258.97 420.332 257.46 421.032 256.16C421.732 254.86 422.712 253.86 423.972 253.16C425.232 252.46 426.682 252.11 428.322 252.11C429.902 252.11 431.312 252.45 432.552 253.13C433.812 253.81 434.782 254.78 435.462 256.04C436.162 257.28 436.512 258.71 436.512 260.33ZM432.162 259.13C432.142 258.05 431.752 257.19 430.992 256.55C430.232 255.89 429.302 255.56 428.202 255.56C427.162 255.56 426.282 255.88 425.562 256.52C424.862 257.14 424.432 258.01 424.272 259.13H432.162ZM438.498 260.66C438.498 259 438.838 257.53 439.518 256.25C440.218 254.95 441.158 253.94 442.338 253.22C443.518 252.5 444.818 252.14 446.238 252.14C447.418 252.14 448.458 252.37 449.358 252.83C450.278 253.27 451.018 253.84 451.578 254.54V252.38H455.808V276.92H451.578V266.72C451.018 267.44 450.268 268.04 449.328 268.52C448.388 269 447.328 269.24 446.148 269.24C444.748 269.24 443.458 268.88 442.278 268.16C441.118 267.42 440.198 266.4 439.518 265.1C438.838 263.8 438.498 262.32 438.498 260.66ZM451.578 260.69C451.578 259.67 451.368 258.79 450.948 258.05C450.528 257.31 449.978 256.75 449.298 256.37C448.638 255.99 447.928 255.8 447.168 255.8C446.428 255.8 445.718 255.99 445.038 256.37C444.378 256.75 443.838 257.31 443.418 258.05C442.998 258.77 442.788 259.64 442.788 260.66C442.788 261.68 442.998 262.57 443.418 263.33C443.838 264.07 444.378 264.63 445.038 265.01C445.718 265.39 446.428 265.58 447.168 265.58C447.928 265.58 448.638 265.39 449.298 265.01C449.978 264.63 450.528 264.07 450.948 263.33C451.368 262.59 451.578 261.71 451.578 260.69ZM475.6 252.38V269H471.37V266.9C470.83 267.62 470.12 268.19 469.24 268.61C468.38 269.01 467.44 269.21 466.42 269.21C465.12 269.21 463.97 268.94 462.97 268.4C461.97 267.84 461.18 267.03 460.6 265.97C460.04 264.89 459.76 263.61 459.76 262.13V252.38H463.96V261.53C463.96 262.85 464.29 263.87 464.95 264.59C465.61 265.29 466.51 265.64 467.65 265.64C468.81 265.64 469.72 265.29 470.38 264.59C471.04 263.87 471.37 262.85 471.37 261.53V252.38H475.6ZM481.874 250.4C481.134 250.4 480.514 250.17 480.014 249.71C479.534 249.23 479.294 248.64 479.294 247.94C479.294 247.24 479.534 246.66 480.014 246.2C480.514 245.72 481.134 245.48 481.874 245.48C482.614 245.48 483.224 245.72 483.704 246.2C484.204 246.66 484.454 247.24 484.454 247.94C484.454 248.64 484.204 249.23 483.704 249.71C483.224 250.17 482.614 250.4 481.874 250.4ZM483.944 252.38V269H479.744V252.38H483.944ZM492.293 254.96C492.833 254.08 493.533 253.39 494.393 252.89C495.273 252.39 496.273 252.14 497.393 252.14V256.55H496.283C494.963 256.55 493.963 256.86 493.283 257.48C492.623 258.1 492.293 259.18 492.293 260.72V269H488.093V252.38H492.293V254.96ZM515.672 260.33C515.672 260.93 515.632 261.47 515.552 261.95H503.402C503.502 263.15 503.922 264.09 504.662 264.77C505.402 265.45 506.312 265.79 507.392 265.79C508.952 265.79 510.062 265.12 510.722 263.78H515.252C514.772 265.38 513.852 266.7 512.492 267.74C511.132 268.76 509.462 269.27 507.482 269.27C505.882 269.27 504.442 268.92 503.162 268.22C501.902 267.5 500.912 266.49 500.192 265.19C499.492 263.89 499.142 262.39 499.142 260.69C499.142 258.97 499.492 257.46 500.192 256.16C500.892 254.86 501.872 253.86 503.132 253.16C504.392 252.46 505.842 252.11 507.482 252.11C509.062 252.11 510.472 252.45 511.712 253.13C512.972 253.81 513.942 254.78 514.622 256.04C515.322 257.28 515.672 258.71 515.672 260.33ZM511.322 259.13C511.302 258.05 510.912 257.19 510.152 256.55C509.392 255.89 508.462 255.56 507.362 255.56C506.322 255.56 505.442 255.88 504.722 256.52C504.022 257.14 503.592 258.01 503.432 259.13H511.322ZM539.378 252.14C541.418 252.14 543.058 252.77 544.298 254.03C545.558 255.27 546.188 257.01 546.188 259.25V269H541.988V259.82C541.988 258.52 541.658 257.53 540.998 256.85C540.338 256.15 539.438 255.8 538.298 255.8C537.158 255.8 536.248 256.15 535.568 256.85C534.908 257.53 534.578 258.52 534.578 259.82V269H530.378V259.82C530.378 258.52 530.048 257.53 529.388 256.85C528.728 256.15 527.828 255.8 526.688 255.8C525.528 255.8 524.608 256.15 523.928 256.85C523.268 257.53 522.938 258.52 522.938 259.82V269H518.738V252.38H522.938V254.39C523.478 253.69 524.168 253.14 525.008 252.74C525.868 252.34 526.808 252.14 527.828 252.14C529.128 252.14 530.288 252.42 531.308 252.98C532.328 253.52 533.118 254.3 533.678 255.32C534.218 254.36 534.998 253.59 536.018 253.01C537.058 252.43 538.178 252.14 539.378 252.14ZM565.624 260.33C565.624 260.93 565.584 261.47 565.504 261.95H553.354C553.454 263.15 553.874 264.09 554.614 264.77C555.354 265.45 556.264 265.79 557.344 265.79C558.904 265.79 560.014 265.12 560.674 263.78H565.204C564.724 265.38 563.804 266.7 562.444 267.74C561.084 268.76 559.414 269.27 557.434 269.27C555.834 269.27 554.394 268.92 553.114 268.22C551.854 267.5 550.864 266.49 550.144 265.19C549.444 263.89 549.094 262.39 549.094 260.69C549.094 258.97 549.444 257.46 550.144 256.16C550.844 254.86 551.824 253.86 553.084 253.16C554.344 252.46 555.794 252.11 557.434 252.11C559.014 252.11 560.424 252.45 561.664 253.13C562.924 253.81 563.894 254.78 564.574 256.04C565.274 257.28 565.624 258.71 565.624 260.33ZM561.274 259.13C561.254 258.05 560.864 257.19 560.104 256.55C559.344 255.89 558.414 255.56 557.314 255.56C556.274 255.56 555.394 255.88 554.674 256.52C553.974 257.14 553.544 258.01 553.384 259.13H561.274ZM577.899 252.14C579.879 252.14 581.479 252.77 582.699 254.03C583.919 255.27 584.529 257.01 584.529 259.25V269H580.329V259.82C580.329 258.5 579.999 257.49 579.339 256.79C578.679 256.07 577.779 255.71 576.639 255.71C575.479 255.71 574.559 256.07 573.879 256.79C573.219 257.49 572.889 258.5 572.889 259.82V269H568.689V252.38H572.889V254.45C573.449 253.73 574.159 253.17 575.019 252.77C575.899 252.35 576.859 252.14 577.899 252.14ZM593.413 255.83V263.87C593.413 264.43 593.543 264.84 593.803 265.1C594.083 265.34 594.543 265.46 595.183 265.46H597.133V269H594.493C590.953 269 589.183 267.28 589.183 263.84V255.83H587.203V252.38H589.183V248.27H593.413V252.38H597.133V255.83H593.413Z" fill="white"/>
<rect y="324" width="746" height="84" rx="10" fill="#1B43D6"/>
<path d="M238.89 356.06C241.09 356.06 243.02 356.49 244.68 357.35C246.36 358.21 247.65 359.44 248.55 361.04C249.47 362.62 249.93 364.46 249.93 366.56C249.93 368.66 249.47 370.5 248.55 372.08C247.65 373.64 246.36 374.85 244.68 375.71C243.02 376.57 241.09 377 238.89 377H231.57V356.06H238.89ZM238.74 373.43C240.94 373.43 242.64 372.83 243.84 371.63C245.04 370.43 245.64 368.74 245.64 366.56C245.64 364.38 245.04 362.68 243.84 361.46C242.64 360.22 240.94 359.6 238.74 359.6H235.77V373.43H238.74ZM268.524 368.33C268.524 368.93 268.484 369.47 268.404 369.95H256.254C256.354 371.15 256.774 372.09 257.514 372.77C258.254 373.45 259.164 373.79 260.244 373.79C261.804 373.79 262.914 373.12 263.574 371.78H268.104C267.624 373.38 266.704 374.7 265.344 375.74C263.984 376.76 262.314 377.27 260.334 377.27C258.734 377.27 257.294 376.92 256.014 376.22C254.754 375.5 253.764 374.49 253.044 373.19C252.344 371.89 251.994 370.39 251.994 368.69C251.994 366.97 252.344 365.46 253.044 364.16C253.744 362.86 254.724 361.86 255.984 361.16C257.244 360.46 258.694 360.11 260.334 360.11C261.914 360.11 263.324 360.45 264.564 361.13C265.824 361.81 266.794 362.78 267.474 364.04C268.174 365.28 268.524 366.71 268.524 368.33ZM264.174 367.13C264.154 366.05 263.764 365.19 263.004 364.55C262.244 363.89 261.314 363.56 260.214 363.56C259.174 363.56 258.294 363.88 257.574 364.52C256.874 365.14 256.444 366.01 256.284 367.13H264.174ZM277.95 377.27C276.59 377.27 275.37 377.03 274.29 376.55C273.21 376.05 272.35 375.38 271.71 374.54C271.09 373.7 270.75 372.77 270.69 371.75H274.92C275 372.39 275.31 372.92 275.85 373.34C276.41 373.76 277.1 373.97 277.92 373.97C278.72 373.97 279.34 373.81 279.78 373.49C280.24 373.17 280.47 372.76 280.47 372.26C280.47 371.72 280.19 371.32 279.63 371.06C279.09 370.78 278.22 370.48 277.02 370.16C275.78 369.86 274.76 369.55 273.96 369.23C273.18 368.91 272.5 368.42 271.92 367.76C271.36 367.1 271.08 366.21 271.08 365.09C271.08 364.17 271.34 363.33 271.86 362.57C272.4 361.81 273.16 361.21 274.14 360.77C275.14 360.33 276.31 360.11 277.65 360.11C279.63 360.11 281.21 360.61 282.39 361.61C283.57 362.59 284.22 363.92 284.34 365.6H280.32C280.26 364.94 279.98 364.42 279.48 364.04C279 363.64 278.35 363.44 277.53 363.44C276.77 363.44 276.18 363.58 275.76 363.86C275.36 364.14 275.16 364.53 275.16 365.03C275.16 365.59 275.44 366.02 276 366.32C276.56 366.6 277.43 366.89 278.61 367.19C279.81 367.49 280.8 367.8 281.58 368.12C282.36 368.44 283.03 368.94 283.59 369.62C284.17 370.28 284.47 371.16 284.49 372.26C284.49 373.22 284.22 374.08 283.68 374.84C283.16 375.6 282.4 376.2 281.4 376.64C280.42 377.06 279.27 377.27 277.95 377.27ZM290.067 358.4C289.327 358.4 288.707 358.17 288.207 357.71C287.727 357.23 287.487 356.64 287.487 355.94C287.487 355.24 287.727 354.66 288.207 354.2C288.707 353.72 289.327 353.48 290.067 353.48C290.807 353.48 291.417 353.72 291.897 354.2C292.397 354.66 292.647 355.24 292.647 355.94C292.647 356.64 292.397 357.23 291.897 357.71C291.417 358.17 290.807 358.4 290.067 358.4ZM292.137 360.38V377H287.937V360.38H292.137ZM302.797 360.11C304.037 360.11 305.127 360.36 306.067 360.86C307.007 361.34 307.747 361.97 308.287 362.75V360.38H312.517V377.12C312.517 378.66 312.207 380.03 311.587 381.23C310.967 382.45 310.037 383.41 308.797 384.11C307.557 384.83 306.057 385.19 304.297 385.19C301.937 385.19 299.997 384.64 298.477 383.54C296.977 382.44 296.127 380.94 295.927 379.04H300.097C300.317 379.8 300.787 380.4 301.507 380.84C302.247 381.3 303.137 381.53 304.177 381.53C305.397 381.53 306.387 381.16 307.147 380.42C307.907 379.7 308.287 378.6 308.287 377.12V374.54C307.747 375.32 306.997 375.97 306.037 376.49C305.097 377.01 304.017 377.27 302.797 377.27C301.397 377.27 300.117 376.91 298.957 376.19C297.797 375.47 296.877 374.46 296.197 373.16C295.537 371.84 295.207 370.33 295.207 368.63C295.207 366.95 295.537 365.46 296.197 364.16C296.877 362.86 297.787 361.86 298.927 361.16C300.087 360.46 301.377 360.11 302.797 360.11ZM308.287 368.69C308.287 367.67 308.087 366.8 307.687 366.08C307.287 365.34 306.747 364.78 306.067 364.4C305.387 364 304.657 363.8 303.877 363.8C303.097 363.8 302.377 363.99 301.717 364.37C301.057 364.75 300.517 365.31 300.097 366.05C299.697 366.77 299.497 367.63 299.497 368.63C299.497 369.63 299.697 370.51 300.097 371.27C300.517 372.01 301.057 372.58 301.717 372.98C302.397 373.38 303.117 373.58 303.877 373.58C304.657 373.58 305.387 373.39 306.067 373.01C306.747 372.61 307.287 372.05 307.687 371.33C308.087 370.59 308.287 369.71 308.287 368.69ZM325.829 360.14C327.809 360.14 329.409 360.77 330.629 362.03C331.849 363.27 332.459 365.01 332.459 367.25V377H328.259V367.82C328.259 366.5 327.929 365.49 327.269 364.79C326.609 364.07 325.709 363.71 324.569 363.71C323.409 363.71 322.489 364.07 321.809 364.79C321.149 365.49 320.819 366.5 320.819 367.82V377H316.619V360.38H320.819V362.45C321.379 361.73 322.089 361.17 322.949 360.77C323.829 360.35 324.789 360.14 325.829 360.14ZM356.531 356.06V359.45H347.801V364.82H354.491V368.15H347.801V377H343.601V356.06H356.531ZM366.889 377.27C365.289 377.27 363.849 376.92 362.569 376.22C361.289 375.5 360.279 374.49 359.539 373.19C358.819 371.89 358.459 370.39 358.459 368.69C358.459 366.99 358.829 365.49 359.569 364.19C360.329 362.89 361.359 361.89 362.659 361.19C363.959 360.47 365.409 360.11 367.009 360.11C368.609 360.11 370.059 360.47 371.359 361.19C372.659 361.89 373.679 362.89 374.419 364.19C375.179 365.49 375.559 366.99 375.559 368.69C375.559 370.39 375.169 371.89 374.389 373.19C373.629 374.49 372.589 375.5 371.269 376.22C369.969 376.92 368.509 377.27 366.889 377.27ZM366.889 373.61C367.649 373.61 368.359 373.43 369.019 373.07C369.699 372.69 370.239 372.13 370.639 371.39C371.039 370.65 371.239 369.75 371.239 368.69C371.239 367.11 370.819 365.9 369.979 365.06C369.159 364.2 368.149 363.77 366.949 363.77C365.749 363.77 364.739 364.2 363.919 365.06C363.119 365.9 362.719 367.11 362.719 368.69C362.719 370.27 363.109 371.49 363.889 372.35C364.689 373.19 365.689 373.61 366.889 373.61ZM394.33 360.38V377H390.1V374.9C389.56 375.62 388.85 376.19 387.97 376.61C387.11 377.01 386.17 377.21 385.15 377.21C383.85 377.21 382.7 376.94 381.7 376.4C380.7 375.84 379.91 375.03 379.33 373.97C378.77 372.89 378.49 371.61 378.49 370.13V360.38H382.69V369.53C382.69 370.85 383.02 371.87 383.68 372.59C384.34 373.29 385.24 373.64 386.38 373.64C387.54 373.64 388.45 373.29 389.11 372.59C389.77 371.87 390.1 370.85 390.1 369.53V360.38H394.33ZM407.684 360.14C409.664 360.14 411.264 360.77 412.484 362.03C413.704 363.27 414.314 365.01 414.314 367.25V377H410.114V367.82C410.114 366.5 409.784 365.49 409.124 364.79C408.464 364.07 407.564 363.71 406.424 363.71C405.264 363.71 404.344 364.07 403.664 364.79C403.004 365.49 402.674 366.5 402.674 367.82V377H398.474V360.38H402.674V362.45C403.234 361.73 403.944 361.17 404.804 360.77C405.684 360.35 406.644 360.14 407.684 360.14ZM417.228 368.63C417.228 366.95 417.558 365.46 418.218 364.16C418.898 362.86 419.818 361.86 420.978 361.16C422.138 360.46 423.428 360.11 424.848 360.11C425.928 360.11 426.958 360.35 427.938 360.83C428.918 361.29 429.698 361.91 430.278 362.69V354.8H434.538V377H430.278V374.54C429.758 375.36 429.028 376.02 428.088 376.52C427.148 377.02 426.058 377.27 424.818 377.27C423.418 377.27 422.138 376.91 420.978 376.19C419.818 375.47 418.898 374.46 418.218 373.16C417.558 371.84 417.228 370.33 417.228 368.63ZM430.308 368.69C430.308 367.67 430.108 366.8 429.708 366.08C429.308 365.34 428.768 364.78 428.088 364.4C427.408 364 426.678 363.8 425.898 363.8C425.118 363.8 424.398 363.99 423.738 364.37C423.078 364.75 422.538 365.31 422.118 366.05C421.718 366.77 421.518 367.63 421.518 368.63C421.518 369.63 421.718 370.51 422.118 371.27C422.538 372.01 423.078 372.58 423.738 372.98C424.418 373.38 425.138 373.58 425.898 373.58C426.678 373.58 427.408 373.39 428.088 373.01C428.768 372.61 429.308 372.05 429.708 371.33C430.108 370.59 430.308 369.71 430.308 368.69ZM437.56 368.63C437.56 366.95 437.89 365.46 438.55 364.16C439.23 362.86 440.14 361.86 441.28 361.16C442.44 360.46 443.73 360.11 445.15 360.11C446.39 360.11 447.47 360.36 448.39 360.86C449.33 361.36 450.08 361.99 450.64 362.75V360.38H454.87V377H450.64V374.57C450.1 375.35 449.35 376 448.39 376.52C447.45 377.02 446.36 377.27 445.12 377.27C443.72 377.27 442.44 376.91 441.28 376.19C440.14 375.47 439.23 374.46 438.55 373.16C437.89 371.84 437.56 370.33 437.56 368.63ZM450.64 368.69C450.64 367.67 450.44 366.8 450.04 366.08C449.64 365.34 449.1 364.78 448.42 364.4C447.74 364 447.01 363.8 446.23 363.8C445.45 363.8 444.73 363.99 444.07 364.37C443.41 364.75 442.87 365.31 442.45 366.05C442.05 366.77 441.85 367.63 441.85 368.63C441.85 369.63 442.05 370.51 442.45 371.27C442.87 372.01 443.41 372.58 444.07 372.98C444.75 373.38 445.47 373.58 446.23 373.58C447.01 373.58 447.74 373.39 448.42 373.01C449.1 372.61 449.64 372.05 450.04 371.33C450.44 370.59 450.64 369.71 450.64 368.69ZM463.862 363.83V371.87C463.862 372.43 463.992 372.84 464.252 373.1C464.532 373.34 464.992 373.46 465.632 373.46H467.582V377H464.942C461.402 377 459.632 375.28 459.632 371.84V363.83H457.652V360.38H459.632V356.27H463.862V360.38H467.582V363.83H463.862ZM472.733 358.4C471.993 358.4 471.373 358.17 470.873 357.71C470.393 357.23 470.153 356.64 470.153 355.94C470.153 355.24 470.393 354.66 470.873 354.2C471.373 353.72 471.993 353.48 472.733 353.48C473.473 353.48 474.083 353.72 474.563 354.2C475.063 354.66 475.313 355.24 475.313 355.94C475.313 356.64 475.063 357.23 474.563 357.71C474.083 358.17 473.473 358.4 472.733 358.4ZM474.803 360.38V377H470.603V360.38H474.803ZM486.333 377.27C484.733 377.27 483.293 376.92 482.013 376.22C480.733 375.5 479.723 374.49 478.983 373.19C478.263 371.89 477.903 370.39 477.903 368.69C477.903 366.99 478.273 365.49 479.013 364.19C479.773 362.89 480.803 361.89 482.103 361.19C483.403 360.47 484.853 360.11 486.453 360.11C488.053 360.11 489.503 360.47 490.803 361.19C492.103 361.89 493.123 362.89 493.863 364.19C494.623 365.49 495.003 366.99 495.003 368.69C495.003 370.39 494.613 371.89 493.833 373.19C493.073 374.49 492.033 375.5 490.713 376.22C489.413 376.92 487.953 377.27 486.333 377.27ZM486.333 373.61C487.093 373.61 487.803 373.43 488.463 373.07C489.143 372.69 489.683 372.13 490.083 371.39C490.483 370.65 490.683 369.75 490.683 368.69C490.683 367.11 490.263 365.9 489.423 365.06C488.603 364.2 487.593 363.77 486.393 363.77C485.193 363.77 484.183 364.2 483.363 365.06C482.563 365.9 482.163 367.11 482.163 368.69C482.163 370.27 482.553 371.49 483.333 372.35C484.133 373.19 485.133 373.61 486.333 373.61ZM507.294 360.14C509.274 360.14 510.874 360.77 512.094 362.03C513.314 363.27 513.924 365.01 513.924 367.25V377H509.724V367.82C509.724 366.5 509.394 365.49 508.734 364.79C508.074 364.07 507.174 363.71 506.034 363.71C504.874 363.71 503.954 364.07 503.274 364.79C502.614 365.49 502.284 366.5 502.284 367.82V377H498.084V360.38H502.284V362.45C502.844 361.73 503.554 361.17 504.414 360.77C505.294 360.35 506.254 360.14 507.294 360.14Z" fill="white"/>
</svg>
