<svg width="294" height="160" viewBox="0 0 294 160" fill="none" xmlns="http://www.w3.org/2000/svg">
<rect x="68" y="1" width="158" height="158" rx="79" stroke="#333333" stroke-width="2"/>
<rect width="294" height="62" transform="translate(0 49)" fill="#F2F2F2"/>
<path d="M3.7975 59.06V73H1.9775V59.06H3.7975ZM12.2394 61.84C13.5727 61.84 14.6527 62.2467 15.4794 63.06C16.306 63.86 16.7194 65.02 16.7194 66.54V73H14.9194V66.8C14.9194 65.7067 14.646 64.8733 14.0994 64.3C13.5527 63.7133 12.806 63.42 11.8594 63.42C10.8994 63.42 10.1327 63.72 9.55938 64.32C8.99938 64.92 8.71938 65.7933 8.71938 66.94V73H6.89938V62.04H8.71938V63.6C9.07938 63.04 9.56604 62.6067 10.1794 62.3C10.806 61.9933 11.4927 61.84 12.2394 61.84ZM20.6323 60.26C20.2857 60.26 19.9923 60.14 19.7523 59.9C19.5123 59.66 19.3923 59.3667 19.3923 59.02C19.3923 58.6733 19.5123 58.38 19.7523 58.14C19.9923 57.9 20.2857 57.78 20.6323 57.78C20.9657 57.78 21.2457 57.9 21.4723 58.14C21.7123 58.38 21.8323 58.6733 21.8323 59.02C21.8323 59.3667 21.7123 59.66 21.4723 59.9C21.2457 60.14 20.9657 60.26 20.6323 60.26ZM21.5123 62.04V73H19.6923V62.04H21.5123ZM26.8342 63.54V70C26.8342 70.5333 26.9476 70.9133 27.1742 71.14C27.4009 71.3533 27.7942 71.46 28.3542 71.46H29.6942V73H28.0542C27.0409 73 26.2809 72.7667 25.7742 72.3C25.2676 71.8333 25.0142 71.0667 25.0142 70V63.54H23.5942V62.04H25.0142V59.28H26.8342V62.04H29.6942V63.54H26.8342ZM32.8394 60.26C32.4927 60.26 32.1994 60.14 31.9594 59.9C31.7194 59.66 31.5994 59.3667 31.5994 59.02C31.5994 58.6733 31.7194 58.38 31.9594 58.14C32.1994 57.9 32.4927 57.78 32.8394 57.78C33.1727 57.78 33.4527 57.9 33.6794 58.14C33.9194 58.38 34.0394 58.6733 34.0394 59.02C34.0394 59.3667 33.9194 59.66 33.6794 59.9C33.4527 60.14 33.1727 60.26 32.8394 60.26ZM33.7194 62.04V73H31.8994V62.04H33.7194ZM36.1413 67.48C36.1413 66.36 36.3679 65.38 36.8213 64.54C37.2746 63.6867 37.8946 63.0267 38.6813 62.56C39.4813 62.0933 40.3679 61.86 41.3413 61.86C42.3013 61.86 43.1346 62.0667 43.8413 62.48C44.5479 62.8933 45.0746 63.4133 45.4213 64.04V62.04H47.2613V73H45.4213V70.96C45.0613 71.6 44.5213 72.1333 43.8013 72.56C43.0946 72.9733 42.2679 73.18 41.3213 73.18C40.3479 73.18 39.4679 72.94 38.6813 72.46C37.8946 71.98 37.2746 71.3067 36.8213 70.44C36.3679 69.5733 36.1413 68.5867 36.1413 67.48ZM45.4213 67.5C45.4213 66.6733 45.2546 65.9533 44.9213 65.34C44.5879 64.7267 44.1346 64.26 43.5613 63.94C43.0013 63.6067 42.3813 63.44 41.7013 63.44C41.0213 63.44 40.4013 63.6 39.8413 63.92C39.2813 64.24 38.8346 64.7067 38.5013 65.32C38.1679 65.9333 38.0013 66.6533 38.0013 67.48C38.0013 68.32 38.1679 69.0533 38.5013 69.68C38.8346 70.2933 39.2813 70.7667 39.8413 71.1C40.4013 71.42 41.0213 71.58 41.7013 71.58C42.3813 71.58 43.0013 71.42 43.5613 71.1C44.1346 70.7667 44.5879 70.2933 44.9213 69.68C45.2546 69.0533 45.4213 68.3267 45.4213 67.5ZM52.5569 63.54V70C52.5569 70.5333 52.6702 70.9133 52.8969 71.14C53.1235 71.3533 53.5169 71.46 54.0769 71.46H55.4169V73H53.7769C52.7635 73 52.0035 72.7667 51.4969 72.3C50.9902 71.8333 50.7369 71.0667 50.7369 70V63.54H49.3169V62.04H50.7369V59.28H52.5569V62.04H55.4169V63.54H52.5569ZM58.562 60.26C58.2154 60.26 57.922 60.14 57.682 59.9C57.442 59.66 57.322 59.3667 57.322 59.02C57.322 58.6733 57.442 58.38 57.682 58.14C57.922 57.9 58.2154 57.78 58.562 57.78C58.8954 57.78 59.1754 57.9 59.402 58.14C59.642 58.38 59.762 58.6733 59.762 59.02C59.762 59.3667 59.642 59.66 59.402 59.9C59.1754 60.14 58.8954 60.26 58.562 60.26ZM59.442 62.04V73H57.622V62.04H59.442ZM66.6239 71.32L70.0239 62.04H71.9639L67.6639 73H65.5439L61.2439 62.04H63.2039L66.6239 71.32ZM83.7548 67.1C83.7548 67.4467 83.7348 67.8133 83.6948 68.2H74.9348C75.0015 69.28 75.3682 70.1267 76.0348 70.74C76.7148 71.34 77.5348 71.64 78.4948 71.64C79.2815 71.64 79.9348 71.46 80.4548 71.1C80.9882 70.7267 81.3615 70.2333 81.5748 69.62H83.5348C83.2415 70.6733 82.6548 71.5333 81.7748 72.2C80.8948 72.8533 79.8015 73.18 78.4948 73.18C77.4548 73.18 76.5215 72.9467 75.6948 72.48C74.8815 72.0133 74.2415 71.3533 73.7748 70.5C73.3082 69.6333 73.0748 68.6333 73.0748 67.5C73.0748 66.3667 73.3015 65.3733 73.7548 64.52C74.2082 63.6667 74.8415 63.0133 75.6548 62.56C76.4815 62.0933 77.4282 61.86 78.4948 61.86C79.5348 61.86 80.4548 62.0867 81.2548 62.54C82.0548 62.9933 82.6682 63.62 83.0948 64.42C83.5348 65.2067 83.7548 66.1 83.7548 67.1ZM81.8748 66.72C81.8748 66.0267 81.7215 65.4333 81.4148 64.94C81.1082 64.4333 80.6882 64.0533 80.1548 63.8C79.6348 63.5333 79.0548 63.4 78.4148 63.4C77.4948 63.4 76.7082 63.6933 76.0548 64.28C75.4148 64.8667 75.0482 65.68 74.9548 66.72H81.8748ZM90.9692 71.54C92.6626 70.18 93.9892 69.0667 94.9492 68.2C95.9092 67.32 96.7159 66.4067 97.3692 65.46C98.0359 64.5 98.3692 63.56 98.3692 62.64C98.3692 61.7733 98.1559 61.0933 97.7292 60.6C97.3159 60.0933 96.6426 59.84 95.7092 59.84C94.8026 59.84 94.0959 60.1267 93.5892 60.7C93.0959 61.26 92.8292 62.0133 92.7892 62.96H91.0292C91.0826 61.4667 91.5359 60.3133 92.3892 59.5C93.2426 58.6867 94.3426 58.28 95.6892 58.28C97.0626 58.28 98.1492 58.66 98.9492 59.42C99.7626 60.18 100.169 61.2267 100.169 62.56C100.169 63.6667 99.8359 64.7467 99.1692 65.8C98.5159 66.84 97.7692 67.76 96.9292 68.56C96.0892 69.3467 95.0159 70.2667 93.7092 71.32H100.589V72.84H90.9692V71.54ZM115.925 64.9V66.44H107.945V64.9H115.925ZM129.093 73.14C128.173 73.14 127.346 72.98 126.613 72.66C125.893 72.3267 125.326 71.8733 124.913 71.3C124.499 70.7133 124.286 70.04 124.273 69.28H126.213C126.279 69.9333 126.546 70.4867 127.013 70.94C127.493 71.38 128.186 71.6 129.093 71.6C129.959 71.6 130.639 71.3867 131.133 70.96C131.639 70.52 131.893 69.96 131.893 69.28C131.893 68.7467 131.746 68.3133 131.453 67.98C131.159 67.6467 130.793 67.3933 130.353 67.22C129.913 67.0467 129.319 66.86 128.573 66.66C127.653 66.42 126.913 66.18 126.353 65.94C125.806 65.7 125.333 65.3267 124.933 64.82C124.546 64.3 124.353 63.6067 124.353 62.74C124.353 61.98 124.546 61.3067 124.933 60.72C125.319 60.1333 125.859 59.68 126.553 59.36C127.259 59.04 128.066 58.88 128.973 58.88C130.279 58.88 131.346 59.2067 132.173 59.86C133.013 60.5133 133.486 61.38 133.593 62.46H131.593C131.526 61.9267 131.246 61.46 130.753 61.06C130.259 60.6467 129.606 60.44 128.793 60.44C128.033 60.44 127.413 60.64 126.933 61.04C126.453 61.4267 126.213 61.9733 126.213 62.68C126.213 63.1867 126.353 63.6 126.633 63.92C126.926 64.24 127.279 64.4867 127.693 64.66C128.119 64.82 128.713 65.0067 129.473 65.22C130.393 65.4733 131.133 65.7267 131.693 65.98C132.253 66.22 132.733 66.6 133.133 67.12C133.533 67.6267 133.733 68.32 133.733 69.2C133.733 69.88 133.553 70.52 133.193 71.12C132.833 71.72 132.299 72.2067 131.593 72.58C130.886 72.9533 130.053 73.14 129.093 73.14ZM145.851 62.04L139.251 78.16H137.371L139.531 72.88L135.111 62.04H137.131L140.571 70.92L143.971 62.04H145.851ZM151.561 73.18C150.721 73.18 149.967 73.04 149.301 72.76C148.634 72.4667 148.107 72.0667 147.721 71.56C147.334 71.04 147.121 70.4467 147.081 69.78H148.961C149.014 70.3267 149.267 70.7733 149.721 71.12C150.187 71.4667 150.794 71.64 151.541 71.64C152.234 71.64 152.781 71.4867 153.181 71.18C153.581 70.8733 153.781 70.4867 153.781 70.02C153.781 69.54 153.567 69.1867 153.141 68.96C152.714 68.72 152.054 68.4867 151.161 68.26C150.347 68.0467 149.681 67.8333 149.161 67.62C148.654 67.3933 148.214 67.0667 147.841 66.64C147.481 66.2 147.301 65.6267 147.301 64.92C147.301 64.36 147.467 63.8467 147.801 63.38C148.134 62.9133 148.607 62.5467 149.221 62.28C149.834 62 150.534 61.86 151.321 61.86C152.534 61.86 153.514 62.1667 154.261 62.78C155.007 63.3933 155.407 64.2333 155.461 65.3H153.641C153.601 64.7267 153.367 64.2667 152.941 63.92C152.527 63.5733 151.967 63.4 151.261 63.4C150.607 63.4 150.087 63.54 149.701 63.82C149.314 64.1 149.121 64.4667 149.121 64.92C149.121 65.28 149.234 65.58 149.461 65.82C149.701 66.0467 149.994 66.2333 150.341 66.38C150.701 66.5133 151.194 66.6667 151.821 66.84C152.607 67.0533 153.247 67.2667 153.741 67.48C154.234 67.68 154.654 67.9867 155.001 68.4C155.361 68.8133 155.547 69.3533 155.561 70.02C155.561 70.62 155.394 71.16 155.061 71.64C154.727 72.12 154.254 72.5 153.641 72.78C153.041 73.0467 152.347 73.18 151.561 73.18ZM160.35 63.54V70C160.35 70.5333 160.463 70.9133 160.69 71.14C160.917 71.3533 161.31 71.46 161.87 71.46H163.21V73H161.57C160.557 73 159.797 72.7667 159.29 72.3C158.783 71.8333 158.53 71.0667 158.53 70V63.54H157.11V62.04H158.53V59.28H160.35V62.04H163.21V63.54H160.35ZM175.415 67.1C175.415 67.4467 175.395 67.8133 175.355 68.2H166.595C166.662 69.28 167.028 70.1267 167.695 70.74C168.375 71.34 169.195 71.64 170.155 71.64C170.942 71.64 171.595 71.46 172.115 71.1C172.648 70.7267 173.022 70.2333 173.235 69.62H175.195C174.902 70.6733 174.315 71.5333 173.435 72.2C172.555 72.8533 171.462 73.18 170.155 73.18C169.115 73.18 168.182 72.9467 167.355 72.48C166.542 72.0133 165.902 71.3533 165.435 70.5C164.968 69.6333 164.735 68.6333 164.735 67.5C164.735 66.3667 164.962 65.3733 165.415 64.52C165.868 63.6667 166.502 63.0133 167.315 62.56C168.142 62.0933 169.088 61.86 170.155 61.86C171.195 61.86 172.115 62.0867 172.915 62.54C173.715 62.9933 174.328 63.62 174.755 64.42C175.195 65.2067 175.415 66.1 175.415 67.1ZM173.535 66.72C173.535 66.0267 173.382 65.4333 173.075 64.94C172.768 64.4333 172.348 64.0533 171.815 63.8C171.295 63.5333 170.715 63.4 170.075 63.4C169.155 63.4 168.368 63.6933 167.715 64.28C167.075 64.8667 166.708 65.68 166.615 66.72H173.535ZM190.997 61.84C191.851 61.84 192.611 62.02 193.277 62.38C193.944 62.7267 194.471 63.2533 194.857 63.96C195.244 64.6667 195.437 65.5267 195.437 66.54V73H193.637V66.8C193.637 65.7067 193.364 64.8733 192.817 64.3C192.284 63.7133 191.557 63.42 190.637 63.42C189.691 63.42 188.937 63.7267 188.377 64.34C187.817 64.94 187.537 65.8133 187.537 66.96V73H185.737V66.8C185.737 65.7067 185.464 64.8733 184.917 64.3C184.384 63.7133 183.657 63.42 182.737 63.42C181.791 63.42 181.037 63.7267 180.477 64.34C179.917 64.94 179.637 65.8133 179.637 66.96V73H177.817V62.04H179.637V63.62C179.997 63.0467 180.477 62.6067 181.077 62.3C181.691 61.9933 182.364 61.84 183.097 61.84C184.017 61.84 184.831 62.0467 185.537 62.46C186.244 62.8733 186.771 63.48 187.117 64.28C187.424 63.5067 187.931 62.9067 188.637 62.48C189.344 62.0533 190.131 61.84 190.997 61.84ZM202.303 73.18C201.463 73.18 200.709 73.04 200.043 72.76C199.376 72.4667 198.849 72.0667 198.463 71.56C198.076 71.04 197.863 70.4467 197.823 69.78H199.703C199.756 70.3267 200.009 70.7733 200.463 71.12C200.929 71.4667 201.536 71.64 202.283 71.64C202.976 71.64 203.523 71.4867 203.923 71.18C204.323 70.8733 204.523 70.4867 204.523 70.02C204.523 69.54 204.309 69.1867 203.883 68.96C203.456 68.72 202.796 68.4867 201.903 68.26C201.089 68.0467 200.423 67.8333 199.903 67.62C199.396 67.3933 198.956 67.0667 198.583 66.64C198.223 66.2 198.043 65.6267 198.043 64.92C198.043 64.36 198.209 63.8467 198.543 63.38C198.876 62.9133 199.349 62.5467 199.963 62.28C200.576 62 201.276 61.86 202.063 61.86C203.276 61.86 204.256 62.1667 205.003 62.78C205.749 63.3933 206.149 64.2333 206.203 65.3H204.383C204.343 64.7267 204.109 64.2667 203.683 63.92C203.269 63.5733 202.709 63.4 202.003 63.4C201.349 63.4 200.829 63.54 200.443 63.82C200.056 64.1 199.863 64.4667 199.863 64.92C199.863 65.28 199.976 65.58 200.203 65.82C200.443 66.0467 200.736 66.2333 201.083 66.38C201.443 66.5133 201.936 66.6667 202.563 66.84C203.349 67.0533 203.989 67.2667 204.483 67.48C204.976 67.68 205.396 67.9867 205.743 68.4C206.103 68.8133 206.289 69.3533 206.303 70.02C206.303 70.62 206.136 71.16 205.803 71.64C205.469 72.12 204.996 72.5 204.383 72.78C203.783 73.0467 203.089 73.18 202.303 73.18ZM216.024 64.08C216.397 63.4267 216.944 62.8933 217.664 62.48C218.384 62.0667 219.204 61.86 220.124 61.86C221.111 61.86 221.997 62.0933 222.784 62.56C223.571 63.0267 224.191 63.6867 224.644 64.54C225.097 65.38 225.324 66.36 225.324 67.48C225.324 68.5867 225.097 69.5733 224.644 70.44C224.191 71.3067 223.564 71.98 222.764 72.46C221.977 72.94 221.097 73.18 220.124 73.18C219.177 73.18 218.344 72.9733 217.624 72.56C216.917 72.1467 216.384 71.62 216.024 70.98V73H214.204V58.2H216.024V64.08ZM223.464 67.48C223.464 66.6533 223.297 65.9333 222.964 65.32C222.631 64.7067 222.177 64.24 221.604 63.92C221.044 63.6 220.424 63.44 219.744 63.44C219.077 63.44 218.457 63.6067 217.884 63.94C217.324 64.26 216.871 64.7333 216.524 65.36C216.191 65.9733 216.024 66.6867 216.024 67.5C216.024 68.3267 216.191 69.0533 216.524 69.68C216.871 70.2933 217.324 70.7667 217.884 71.1C218.457 71.42 219.077 71.58 219.744 71.58C220.424 71.58 221.044 71.42 221.604 71.1C222.177 70.7667 222.631 70.2933 222.964 69.68C223.297 69.0533 223.464 68.32 223.464 67.48ZM237.44 62.04V73H235.62V71.38C235.273 71.94 234.786 72.38 234.16 72.7C233.546 73.0067 232.866 73.16 232.12 73.16C231.266 73.16 230.5 72.9867 229.82 72.64C229.14 72.28 228.6 71.7467 228.2 71.04C227.813 70.3333 227.62 69.4733 227.62 68.46V62.04H229.42V68.22C229.42 69.3 229.693 70.1333 230.24 70.72C230.786 71.2933 231.533 71.58 232.48 71.58C233.453 71.58 234.22 71.28 234.78 70.68C235.34 70.08 235.62 69.2067 235.62 68.06V62.04H237.44ZM241.453 60.26C241.106 60.26 240.813 60.14 240.573 59.9C240.333 59.66 240.213 59.3667 240.213 59.02C240.213 58.6733 240.333 58.38 240.573 58.14C240.813 57.9 241.106 57.78 241.453 57.78C241.786 57.78 242.066 57.9 242.293 58.14C242.533 58.38 242.653 58.6733 242.653 59.02C242.653 59.3667 242.533 59.66 242.293 59.9C242.066 60.14 241.786 60.26 241.453 60.26ZM242.333 62.04V73H240.513V62.04H242.333ZM247.255 58.2V73H245.435V58.2H247.255ZM249.676 67.48C249.676 66.36 249.903 65.38 250.356 64.54C250.81 63.6867 251.43 63.0267 252.216 62.56C253.016 62.0933 253.91 61.86 254.896 61.86C255.75 61.86 256.543 62.06 257.276 62.46C258.01 62.8467 258.57 63.36 258.956 64V58.2H260.796V73H258.956V70.94C258.596 71.5933 258.063 72.1333 257.356 72.56C256.65 72.9733 255.823 73.18 254.876 73.18C253.903 73.18 253.016 72.94 252.216 72.46C251.43 71.98 250.81 71.3067 250.356 70.44C249.903 69.5733 249.676 68.5867 249.676 67.48ZM258.956 67.5C258.956 66.6733 258.79 65.9533 258.456 65.34C258.123 64.7267 257.67 64.26 257.096 63.94C256.536 63.6067 255.916 63.44 255.236 63.44C254.556 63.44 253.936 63.6 253.376 63.92C252.816 64.24 252.37 64.7067 252.036 65.32C251.703 65.9333 251.536 66.6533 251.536 67.48C251.536 68.32 251.703 69.0533 252.036 69.68C252.37 70.2933 252.816 70.7667 253.376 71.1C253.936 71.42 254.556 71.58 255.236 71.58C255.916 71.58 256.536 71.42 257.096 71.1C257.67 70.7667 258.123 70.2933 258.456 69.68C258.79 69.0533 258.956 68.3267 258.956 67.5ZM264.812 60.26C264.465 60.26 264.172 60.14 263.932 59.9C263.692 59.66 263.572 59.3667 263.572 59.02C263.572 58.6733 263.692 58.38 263.932 58.14C264.172 57.9 264.465 57.78 264.812 57.78C265.145 57.78 265.425 57.9 265.652 58.14C265.892 58.38 266.012 58.6733 266.012 59.02C266.012 59.3667 265.892 59.66 265.652 59.9C265.425 60.14 265.145 60.26 264.812 60.26ZM265.692 62.04V73H263.872V62.04H265.692ZM274.134 61.84C275.467 61.84 276.547 62.2467 277.374 63.06C278.201 63.86 278.614 65.02 278.614 66.54V73H276.814V66.8C276.814 65.7067 276.541 64.8733 275.994 64.3C275.447 63.7133 274.701 63.42 273.754 63.42C272.794 63.42 272.027 63.72 271.454 64.32C270.894 64.92 270.614 65.7933 270.614 66.94V73H268.794V62.04H270.614V63.6C270.974 63.04 271.461 62.6067 272.074 62.3C272.701 61.9933 273.387 61.84 274.134 61.84ZM286.107 61.86C287.054 61.86 287.88 62.0667 288.587 62.48C289.307 62.8933 289.84 63.4133 290.187 64.04V62.04H292.027V73.24C292.027 74.24 291.814 75.1267 291.387 75.9C290.96 76.6867 290.347 77.3 289.547 77.74C288.76 78.18 287.84 78.4 286.787 78.4C285.347 78.4 284.147 78.06 283.187 77.38C282.227 76.7 281.66 75.7733 281.487 74.6H283.287C283.487 75.2667 283.9 75.8 284.527 76.2C285.154 76.6133 285.907 76.82 286.787 76.82C287.787 76.82 288.6 76.5067 289.227 75.88C289.867 75.2533 290.187 74.3733 290.187 73.24V70.94C289.827 71.58 289.294 72.1133 288.587 72.54C287.88 72.9667 287.054 73.18 286.107 73.18C285.134 73.18 284.247 72.94 283.447 72.46C282.66 71.98 282.04 71.3067 281.587 70.44C281.134 69.5733 280.907 68.5867 280.907 67.48C280.907 66.36 281.134 65.38 281.587 64.54C282.04 63.6867 282.66 63.0267 283.447 62.56C284.247 62.0933 285.134 61.86 286.107 61.86ZM290.187 67.5C290.187 66.6733 290.02 65.9533 289.687 65.34C289.354 64.7267 288.9 64.26 288.327 63.94C287.767 63.6067 287.147 63.44 286.467 63.44C285.787 63.44 285.167 63.6 284.607 63.92C284.047 64.24 283.6 64.7067 283.267 65.32C282.934 65.9333 282.767 66.6533 282.767 67.48C282.767 68.32 282.934 69.0533 283.267 69.68C283.6 70.2933 284.047 70.7667 284.607 71.1C285.167 71.42 285.787 71.58 286.467 71.58C287.147 71.58 287.767 71.42 288.327 71.1C288.9 70.7667 289.354 70.2933 289.687 69.68C290.02 69.0533 290.187 68.3267 290.187 67.5ZM37.3866 92.96C37.3866 91.5733 37.6866 90.34 38.2866 89.26C38.8866 88.1667 39.7199 87.32 40.7866 86.72C41.8666 86.1067 43.0866 85.8 44.4466 85.8C46.1132 85.8 47.5399 86.24 48.7266 87.12C49.9132 88 50.7066 89.2 51.1066 90.72H47.3466C47.0666 90.1333 46.6666 89.6867 46.1466 89.38C45.6399 89.0733 45.0599 88.92 44.4066 88.92C43.3532 88.92 42.4999 89.2867 41.8466 90.02C41.1932 90.7533 40.8666 91.7333 40.8666 92.96C40.8666 94.1867 41.1932 95.1667 41.8466 95.9C42.4999 96.6333 43.3532 97 44.4066 97C45.0599 97 45.6399 96.8467 46.1466 96.54C46.6666 96.2333 47.0666 95.7867 47.3466 95.2H51.1066C50.7066 96.72 49.9132 97.92 48.7266 98.8C47.5399 99.6667 46.1132 100.1 44.4466 100.1C43.0866 100.1 41.8666 99.8 40.7866 99.2C39.7199 98.5867 38.8866 97.74 38.2866 96.66C37.6866 95.58 37.3866 94.3467 37.3866 92.96ZM58.2809 100.16C57.1876 100.16 56.2009 99.9267 55.3209 99.46C54.4543 98.9933 53.7676 98.3267 53.2609 97.46C52.7676 96.5933 52.5209 95.58 52.5209 94.42C52.5209 93.2733 52.7743 92.2667 53.2809 91.4C53.7876 90.52 54.4809 89.8467 55.3609 89.38C56.2409 88.9133 57.2276 88.68 58.3209 88.68C59.4143 88.68 60.4009 88.9133 61.2809 89.38C62.1609 89.8467 62.8543 90.52 63.3609 91.4C63.8676 92.2667 64.1209 93.2733 64.1209 94.42C64.1209 95.5667 63.8609 96.58 63.3409 97.46C62.8343 98.3267 62.1343 98.9933 61.2409 99.46C60.3609 99.9267 59.3743 100.16 58.2809 100.16ZM58.2809 97.2C58.9343 97.2 59.4876 96.96 59.9409 96.48C60.4076 96 60.6409 95.3133 60.6409 94.42C60.6409 93.5267 60.4143 92.84 59.9609 92.36C59.5209 91.88 58.9743 91.64 58.3209 91.64C57.6543 91.64 57.1009 91.88 56.6609 92.36C56.2209 92.8267 56.0009 93.5133 56.0009 94.42C56.0009 95.3133 56.2143 96 56.6409 96.48C57.0809 96.96 57.6276 97.2 58.2809 97.2ZM80.1753 88.72C81.562 88.72 82.662 89.14 83.4753 89.98C84.302 90.82 84.7153 91.9867 84.7153 93.48V100H81.3153V93.94C81.3153 93.22 81.122 92.6667 80.7353 92.28C80.362 91.88 79.842 91.68 79.1753 91.68C78.5086 91.68 77.982 91.88 77.5953 92.28C77.222 92.6667 77.0353 93.22 77.0353 93.94V100H73.6353V93.94C73.6353 93.22 73.442 92.6667 73.0553 92.28C72.682 91.88 72.162 91.68 71.4953 91.68C70.8286 91.68 70.302 91.88 69.9153 92.28C69.542 92.6667 69.3553 93.22 69.3553 93.94V100H65.9353V88.84H69.3553V90.24C69.702 89.7733 70.1553 89.4067 70.7153 89.14C71.2753 88.86 71.9086 88.72 72.6153 88.72C73.4553 88.72 74.202 88.9 74.8553 89.26C75.522 89.62 76.042 90.1333 76.4153 90.8C76.802 90.1867 77.3286 89.6867 77.9953 89.3C78.662 88.9133 79.3886 88.72 80.1753 88.72ZM101.347 88.72C102.734 88.72 103.834 89.14 104.647 89.98C105.474 90.82 105.887 91.9867 105.887 93.48V100H102.487V93.94C102.487 93.22 102.294 92.6667 101.907 92.28C101.534 91.88 101.014 91.68 100.347 91.68C99.6805 91.68 99.1539 91.88 98.7672 92.28C98.3939 92.6667 98.2072 93.22 98.2072 93.94V100H94.8072V93.94C94.8072 93.22 94.6139 92.6667 94.2272 92.28C93.8539 91.88 93.3339 91.68 92.6672 91.68C92.0005 91.68 91.4739 91.88 91.0872 92.28C90.7139 92.6667 90.5272 93.22 90.5272 93.94V100H87.1072V88.84H90.5272V90.24C90.8739 89.7733 91.3272 89.4067 91.8872 89.14C92.4472 88.86 93.0805 88.72 93.7872 88.72C94.6272 88.72 95.3739 88.9 96.0272 89.26C96.6939 89.62 97.2139 90.1333 97.5872 90.8C97.9739 90.1867 98.5005 89.6867 99.1672 89.3C99.8339 88.9133 100.561 88.72 101.347 88.72ZM119.299 88.84V100H115.879V98.48C115.532 98.9733 115.059 99.3733 114.459 99.68C113.872 99.9733 113.219 100.12 112.499 100.12C111.646 100.12 110.892 99.9333 110.239 99.56C109.586 99.1733 109.079 98.62 108.719 97.9C108.359 97.18 108.179 96.3333 108.179 95.36V88.84H111.579V94.9C111.579 95.6467 111.772 96.2267 112.159 96.64C112.546 97.0533 113.066 97.26 113.719 97.26C114.386 97.26 114.912 97.0533 115.299 96.64C115.686 96.2267 115.879 95.6467 115.879 94.9V88.84H119.299ZM128.556 88.72C129.862 88.72 130.902 89.1467 131.676 90C132.462 90.84 132.856 92 132.856 93.48V100H129.456V93.94C129.456 93.1933 129.262 92.6133 128.876 92.2C128.489 91.7867 127.969 91.58 127.316 91.58C126.662 91.58 126.142 91.7867 125.756 92.2C125.369 92.6133 125.176 93.1933 125.176 93.94V100H121.756V88.84H125.176V90.32C125.522 89.8267 125.989 89.44 126.576 89.16C127.162 88.8667 127.822 88.72 128.556 88.72ZM136.952 87.68C136.352 87.68 135.859 87.5067 135.472 87.16C135.099 86.8 134.912 86.36 134.912 85.84C134.912 85.3067 135.099 84.8667 135.472 84.52C135.859 84.16 136.352 83.98 136.952 83.98C137.539 83.98 138.019 84.16 138.392 84.52C138.779 84.8667 138.972 85.3067 138.972 85.84C138.972 86.36 138.779 86.8 138.392 87.16C138.019 87.5067 137.539 87.68 136.952 87.68ZM138.652 88.84V100H135.232V88.84H138.652ZM147.351 97.1V100H145.611C144.371 100 143.404 99.7 142.711 99.1C142.017 98.4867 141.671 97.4933 141.671 96.12V91.68H140.311V88.84H141.671V86.12H145.091V88.84H147.331V91.68H145.091V96.16C145.091 96.4933 145.171 96.7333 145.331 96.88C145.491 97.0267 145.757 97.1 146.131 97.1H147.351ZM160.656 88.84L153.656 105.3H149.976L152.536 99.62L147.996 88.84H151.816L154.396 95.82L156.956 88.84H160.656ZM176.131 102.4L174.331 99.98C173.797 100.087 173.277 100.14 172.771 100.14C171.451 100.14 170.237 99.8333 169.131 99.22C168.037 98.6067 167.164 97.7533 166.511 96.66C165.871 95.5533 165.551 94.3133 165.551 92.94C165.551 91.5667 165.871 90.3333 166.511 89.24C167.164 88.1467 168.037 87.2933 169.131 86.68C170.237 86.0667 171.451 85.76 172.771 85.76C174.091 85.76 175.297 86.0667 176.391 86.68C177.497 87.2933 178.364 88.1467 178.991 89.24C179.631 90.3333 179.951 91.5667 179.951 92.94C179.951 94.14 179.704 95.24 179.211 96.24C178.731 97.2267 178.057 98.0467 177.191 98.7L180.271 102.4H176.131ZM169.051 92.94C169.051 94.18 169.384 95.1733 170.051 95.92C170.731 96.6533 171.637 97.02 172.771 97.02C173.891 97.02 174.784 96.6467 175.451 95.9C176.131 95.1533 176.471 94.1667 176.471 92.94C176.471 91.7 176.131 90.7133 175.451 89.98C174.784 89.2333 173.891 88.86 172.771 88.86C171.637 88.86 170.731 89.2267 170.051 89.96C169.384 90.6933 169.051 91.6867 169.051 92.94ZM192.632 100L191.332 98.74C190.039 99.7267 188.492 100.22 186.692 100.22C185.612 100.22 184.672 100.047 183.872 99.7C183.072 99.34 182.452 98.84 182.012 98.2C181.586 97.5467 181.372 96.7867 181.372 95.92C181.372 95.04 181.606 94.2467 182.072 93.54C182.552 92.82 183.266 92.2333 184.212 91.78C183.866 91.3533 183.619 90.9467 183.472 90.56C183.326 90.16 183.252 89.7267 183.252 89.26C183.252 88.5933 183.426 87.9867 183.772 87.44C184.119 86.8933 184.619 86.4667 185.272 86.16C185.939 85.84 186.726 85.68 187.632 85.68C188.552 85.68 189.332 85.8467 189.972 86.18C190.612 86.5133 191.092 86.96 191.412 87.52C191.732 88.08 191.879 88.6933 191.852 89.36H188.632C188.646 89 188.552 88.7267 188.352 88.54C188.166 88.34 187.912 88.24 187.592 88.24C187.272 88.24 187.006 88.3333 186.792 88.52C186.579 88.7067 186.472 88.9467 186.472 89.24C186.472 89.52 186.559 89.8133 186.732 90.12C186.919 90.4267 187.206 90.78 187.592 91.18L191.012 94.52C191.039 94.4533 191.072 94.3733 191.112 94.28C191.166 94.1867 191.219 94.08 191.272 93.96L192.012 92.7H195.432L194.472 94.44C194.112 95.2267 193.699 95.9733 193.232 96.68L196.612 100H192.632ZM186.852 97.46C187.746 97.46 188.539 97.2067 189.232 96.7L186.112 93.68C185.152 94.1733 184.672 94.84 184.672 95.68C184.672 96.1867 184.866 96.6133 185.252 96.96C185.652 97.2933 186.186 97.46 186.852 97.46ZM206.589 97.52H201.349L200.509 100H196.929L202.009 85.96H205.969L211.049 100H207.429L206.589 97.52ZM205.709 94.88L203.969 89.74L202.249 94.88H205.709ZM228.994 85.96V100H225.574V94.22H220.254V100H216.834V85.96H220.254V91.46H225.574V85.96H228.994ZM242.483 88.84V100H239.063V98.48C238.716 98.9733 238.243 99.3733 237.643 99.68C237.056 99.9733 236.403 100.12 235.683 100.12C234.829 100.12 234.076 99.9333 233.423 99.56C232.769 99.1733 232.263 98.62 231.903 97.9C231.543 97.18 231.363 96.3333 231.363 95.36V88.84H234.763V94.9C234.763 95.6467 234.956 96.2267 235.343 96.64C235.729 97.0533 236.249 97.26 236.903 97.26C237.569 97.26 238.096 97.0533 238.483 96.64C238.869 96.2267 239.063 95.6467 239.063 94.9V88.84H242.483ZM248.359 90.42C248.679 89.9 249.139 89.48 249.739 89.16C250.339 88.84 251.026 88.68 251.799 88.68C252.719 88.68 253.553 88.9133 254.299 89.38C255.046 89.8467 255.633 90.5133 256.059 91.38C256.499 92.2467 256.719 93.2533 256.719 94.4C256.719 95.5467 256.499 96.56 256.059 97.44C255.633 98.3067 255.046 98.98 254.299 99.46C253.553 99.9267 252.719 100.16 251.799 100.16C251.013 100.16 250.326 100.007 249.739 99.7C249.153 99.38 248.693 98.96 248.359 98.44V100H244.939V85.2H248.359V90.42ZM253.239 94.4C253.239 93.5467 252.999 92.88 252.519 92.4C252.053 91.9067 251.473 91.66 250.779 91.66C250.099 91.66 249.519 91.9067 249.039 92.4C248.573 92.8933 248.339 93.5667 248.339 94.42C248.339 95.2733 248.573 95.9467 249.039 96.44C249.519 96.9333 250.099 97.18 250.779 97.18C251.459 97.18 252.039 96.9333 252.519 96.44C252.999 95.9333 253.239 95.2533 253.239 94.4Z" fill="#333333"/>
</svg>
