<svg width="390" height="47" viewBox="0 0 390 47" fill="none" xmlns="http://www.w3.org/2000/svg">
<path d="M30.9609 29.6953L29.8828 32.0625C27.9297 33.0938 26.1719 33.7969 24.6094 34.1719C23.0625 34.5625 21.125 34.7578 18.7969 34.7578C15.4844 34.7578 12.5547 34.2344 10.0078 33.1875C8.00781 32.3438 6.3125 31.2266 4.92188 29.8359C3.53125 28.4453 2.46094 26.9375 1.71094 25.3125C0.570312 22.8594 0 20.1953 0 17.3203C0 12.3984 1.67969 8.38281 5.03906 5.27344C8.41406 2.14844 13.1719 0.585938 19.3125 0.585938C21.4219 0.585938 23.3125 0.742188 24.9844 1.05469C26.6719 1.36719 28.625 1.92188 30.8438 2.71875L30.9609 3.02344C30.7109 3.75781 30.5156 4.67969 30.375 5.78906C30.1406 7.55469 29.9922 9.1875 29.9297 10.6875H28.1016C28.0703 8.96875 27.9922 7.59375 27.8672 6.5625C26.8203 5.46875 25.6406 4.65625 24.3281 4.125C23.0312 3.57813 21.3672 3.30469 19.3359 3.30469C15.6641 3.30469 12.7266 4.46875 10.5234 6.79688C8.32031 9.10938 7.21875 12.3438 7.21875 16.5C7.21875 19.0156 7.58594 21.2109 8.32031 23.0859C9.07031 24.9609 10.0625 26.5156 11.2969 27.75C12.5312 28.9688 13.7734 29.8594 15.0234 30.4219C16.7266 31.1719 18.7891 31.5469 21.2109 31.5469C22.8047 31.5469 24.3125 31.3672 25.7344 31.0078C27.1562 30.6484 28.7031 30.0312 30.375 29.1562L30.9609 29.6953ZM34.2188 22.875C34.2188 20.2188 34.6719 18.0234 35.5781 16.2891C36.4844 14.5391 37.8438 13.2266 39.6562 12.3516C41.4688 11.4609 43.5781 11.0156 45.9844 11.0156C49.5938 11.0156 52.3359 11.9609 54.2109 13.8516C56.1016 15.7422 57.0469 18.5156 57.0469 22.1719C57.0469 24.2812 56.7734 26.1094 56.2266 27.6562C55.6797 29.2031 54.9453 30.4531 54.0234 31.4062C53.1016 32.3438 52.1328 33.0547 51.1172 33.5391C49.3828 34.3516 47.4297 34.7578 45.2578 34.7578C41.7266 34.7578 39 33.7578 37.0781 31.7578C35.1719 29.7422 34.2188 26.7812 34.2188 22.875ZM40.7109 21.75C40.7109 25.9062 41.3203 28.8672 42.5391 30.6328C43.3516 31.8047 44.5078 32.3906 46.0078 32.3906C47.2891 32.3906 48.3047 31.9453 49.0547 31.0547C50.0547 29.8672 50.5547 27.5703 50.5547 24.1641C50.5547 21.7734 50.3516 19.7266 49.9453 18.0234C49.5547 16.3047 48.9688 15.1094 48.1875 14.4375C47.4219 13.7656 46.4922 13.4297 45.3984 13.4297C44.4609 13.4297 43.6406 13.6797 42.9375 14.1797C42.2344 14.6641 41.6875 15.4922 41.2969 16.6641C40.9062 17.8203 40.7109 19.5156 40.7109 21.75ZM60.375 33.9375V32.1328C61.5938 32.1328 62.4375 32.0469 62.9062 31.875C63.125 31.7969 63.2891 31.6641 63.3984 31.4766C63.5547 31.1797 63.6406 30.6172 63.6562 29.7891L63.75 27.7031C63.7656 27.2656 63.7734 26.5547 63.7734 25.5703V22.5C63.7734 21.1094 63.7266 19.4219 63.6328 17.4375C63.5859 16.4375 63.5156 15.875 63.4219 15.75C63.3438 15.6094 63.2109 15.5078 63.0234 15.4453C62.7266 15.3359 61.8438 15.2578 60.375 15.2109V13.4062C63.2188 12.9219 65.0859 12.5625 65.9766 12.3281C66.8672 12.0938 67.875 11.7188 69 11.2031L69.6328 11.4844V15.2578L73.8984 11.8359C74.3984 11.6328 74.8203 11.5 75.1641 11.4375C75.5234 11.3594 76 11.3203 76.5938 11.3203C78.4688 11.3203 79.8828 11.625 80.8359 12.2344C81.8047 12.8281 82.6016 13.8359 83.2266 15.2578L87.4922 11.8359C87.9922 11.6328 88.4141 11.5 88.7578 11.4375C89.1172 11.3594 89.5938 11.3203 90.1875 11.3203C91.7344 11.3203 92.9297 11.5156 93.7734 11.9062C94.6328 12.2812 95.3438 12.7969 95.9062 13.4531C96.4688 14.1094 96.8672 14.8125 97.1016 15.5625C97.3359 16.3125 97.4531 17.4688 97.4531 19.0312C97.4531 20.75 97.4375 21.8906 97.4062 22.4531C97.3906 22.6406 97.3828 22.8672 97.3828 23.1328V25.5703C97.3828 28.0703 97.4219 29.6719 97.5 30.375C97.5938 31.0625 97.7422 31.5 97.9453 31.6875C98.1641 31.8594 98.6328 31.9688 99.3516 32.0156C99.6016 32.0312 100.039 32.0703 100.664 32.1328V33.9375C98.5234 33.8125 96.7578 33.75 95.3672 33.75C93.7891 33.75 92.4453 33.8125 91.3359 33.9375L91.0078 33.4922L91.2891 29.25C91.3516 27.5312 91.3828 26.0547 91.3828 24.8203V23.0391C91.3828 20.2578 91.2578 18.5078 91.0078 17.7891C90.7578 17.0547 90.3359 16.4844 89.7422 16.0781C89.1641 15.6562 88.4297 15.4453 87.5391 15.4453C86.5391 15.4453 85.6875 15.7031 84.9844 16.2188C84.2812 16.7188 83.8438 17.1797 83.6719 17.6016C83.5156 18.0078 83.4453 18.8359 83.4609 20.0859V25.7578L83.5078 28.1016L83.5547 30C83.5703 30.5781 83.625 30.9766 83.7188 31.1953C83.8125 31.4141 83.9453 31.5781 84.1172 31.6875C84.2578 31.7656 84.5547 31.8359 85.0078 31.8984C85.8984 32.0078 86.5391 32.0859 86.9297 32.1328V33.9375C85.5391 33.875 83.5391 33.8438 80.9297 33.8438C78.0234 33.8438 75.875 33.875 74.4844 33.9375V32.1328C74.7812 32.0859 75.1641 32.0391 75.6328 31.9922C76.3203 31.9453 76.75 31.8672 76.9219 31.7578C77.1094 31.6328 77.2578 31.3984 77.3672 31.0547C77.4766 30.6953 77.5312 29.875 77.5312 28.5938L77.5781 24.4453V21.1172C77.5781 19.5234 77.4766 18.3984 77.2734 17.7422C77.0859 17.0703 76.6875 16.5156 76.0781 16.0781C75.4844 15.625 74.7109 15.3984 73.7578 15.3984C72.7109 15.3984 71.8281 15.6641 71.1094 16.1953C70.3906 16.7266 69.9375 17.2578 69.75 17.7891C69.6562 18.0859 69.6172 19.3125 69.6328 21.4688V25.5703C69.6328 27.6797 69.6797 29.2969 69.7734 30.4219C69.8047 31.0156 69.8828 31.3906 70.0078 31.5469C70.1328 31.7031 70.3438 31.8203 70.6406 31.8984C70.8594 31.9609 71.5859 32.0391 72.8203 32.1328V33.9375C71.1328 33.875 69.1016 33.8438 66.7266 33.8438C64.0547 33.8438 61.9375 33.875 60.375 33.9375ZM103.078 33.9375V32.1328C104.297 32.1328 105.141 32.0469 105.609 31.875C105.828 31.7969 105.992 31.6641 106.102 31.4766C106.258 31.1797 106.344 30.6172 106.359 29.7891L106.453 27.7031C106.469 27.2656 106.477 26.5547 106.477 25.5703V22.5C106.477 21.1094 106.43 19.4219 106.336 17.4375C106.289 16.4375 106.219 15.875 106.125 15.75C106.047 15.6094 105.914 15.5078 105.727 15.4453C105.43 15.3359 104.547 15.2578 103.078 15.2109V13.4062C105.922 12.9219 107.789 12.5625 108.68 12.3281C109.57 12.0938 110.578 11.7188 111.703 11.2031L112.336 11.4844V15.2578L116.602 11.8359C117.102 11.6328 117.523 11.5 117.867 11.4375C118.227 11.3594 118.703 11.3203 119.297 11.3203C121.172 11.3203 122.586 11.625 123.539 12.2344C124.508 12.8281 125.305 13.8359 125.93 15.2578L130.195 11.8359C130.695 11.6328 131.117 11.5 131.461 11.4375C131.82 11.3594 132.297 11.3203 132.891 11.3203C134.438 11.3203 135.633 11.5156 136.477 11.9062C137.336 12.2812 138.047 12.7969 138.609 13.4531C139.172 14.1094 139.57 14.8125 139.805 15.5625C140.039 16.3125 140.156 17.4688 140.156 19.0312C140.156 20.75 140.141 21.8906 140.109 22.4531C140.094 22.6406 140.086 22.8672 140.086 23.1328V25.5703C140.086 28.0703 140.125 29.6719 140.203 30.375C140.297 31.0625 140.445 31.5 140.648 31.6875C140.867 31.8594 141.336 31.9688 142.055 32.0156C142.305 32.0312 142.742 32.0703 143.367 32.1328V33.9375C141.227 33.8125 139.461 33.75 138.07 33.75C136.492 33.75 135.148 33.8125 134.039 33.9375L133.711 33.4922L133.992 29.25C134.055 27.5312 134.086 26.0547 134.086 24.8203V23.0391C134.086 20.2578 133.961 18.5078 133.711 17.7891C133.461 17.0547 133.039 16.4844 132.445 16.0781C131.867 15.6562 131.133 15.4453 130.242 15.4453C129.242 15.4453 128.391 15.7031 127.688 16.2188C126.984 16.7188 126.547 17.1797 126.375 17.6016C126.219 18.0078 126.148 18.8359 126.164 20.0859V25.7578L126.211 28.1016L126.258 30C126.273 30.5781 126.328 30.9766 126.422 31.1953C126.516 31.4141 126.648 31.5781 126.82 31.6875C126.961 31.7656 127.258 31.8359 127.711 31.8984C128.602 32.0078 129.242 32.0859 129.633 32.1328V33.9375C128.242 33.875 126.242 33.8438 123.633 33.8438C120.727 33.8438 118.578 33.875 117.188 33.9375V32.1328C117.484 32.0859 117.867 32.0391 118.336 31.9922C119.023 31.9453 119.453 31.8672 119.625 31.7578C119.812 31.6328 119.961 31.3984 120.07 31.0547C120.18 30.6953 120.234 29.875 120.234 28.5938L120.281 24.4453V21.1172C120.281 19.5234 120.18 18.3984 119.977 17.7422C119.789 17.0703 119.391 16.5156 118.781 16.0781C118.188 15.625 117.414 15.3984 116.461 15.3984C115.414 15.3984 114.531 15.6641 113.812 16.1953C113.094 16.7266 112.641 17.2578 112.453 17.7891C112.359 18.0859 112.32 19.3125 112.336 21.4688V25.5703C112.336 27.6797 112.383 29.2969 112.477 30.4219C112.508 31.0156 112.586 31.3906 112.711 31.5469C112.836 31.7031 113.047 31.8203 113.344 31.8984C113.562 31.9609 114.289 32.0391 115.523 32.1328V33.9375C113.836 33.875 111.805 33.8438 109.43 33.8438C106.758 33.8438 104.641 33.875 103.078 33.9375ZM145.57 15.1406V13.3594C146.914 13.2812 148.266 13.1016 149.625 12.8203C150.984 12.5391 152.727 12.0391 154.852 11.3203L155.18 11.5781C154.961 14.6719 154.852 17.5312 154.852 20.1562V22.7812C154.852 25.0156 154.906 26.5078 155.016 27.2578C155.172 28.2422 155.547 28.9844 156.141 29.4844C156.734 29.9844 157.523 30.2344 158.508 30.2344C159.633 30.2344 160.578 29.9453 161.344 29.3672C162.109 28.7734 162.641 28.1641 162.938 27.5391C163.125 27.1328 163.219 26.2891 163.219 25.0078V21L163.172 17.6719C163.172 16.5938 163.102 15.9453 162.961 15.7266C162.883 15.5859 162.727 15.4766 162.492 15.3984C162.258 15.3203 161.305 15.2344 159.633 15.1406V13.3594C162.055 13.0469 163.703 12.7969 164.578 12.6094C165.453 12.4219 166.938 11.9922 169.031 11.3203L169.477 11.5781L169.219 15.8906C169.094 18.9531 169.031 20.6641 169.031 21.0234V25.8281C169.031 28.6875 169.102 30.4531 169.242 31.125C169.305 31.4062 169.422 31.6016 169.594 31.7109C169.891 31.8672 170.852 31.9844 172.477 32.0625V33.9375L167.648 33.8203L163.219 33.9375L163.055 33.75L163.195 31.9453C163.211 31.6484 163.219 31.0469 163.219 30.1406C162.609 30.625 162.078 31.0703 161.625 31.4766L158.977 33.9844C157.898 34.375 156.812 34.5703 155.719 34.5703C153.609 34.5703 151.953 33.9922 150.75 32.8359C149.547 31.6797 148.945 30.1406 148.945 28.2188C148.945 27.9844 148.969 27.1172 149.016 25.6172C149.031 24.8203 149.039 23.7891 149.039 22.5234L148.992 17.5781C148.992 16.6719 148.93 16.1094 148.805 15.8906C148.695 15.6719 148.508 15.5078 148.242 15.3984C147.977 15.2891 147.086 15.2031 145.57 15.1406ZM202.008 32.1328V33.9375C199.883 33.8281 198.148 33.7734 196.805 33.7734C195.258 33.7734 193.914 33.8281 192.773 33.9375L192.352 33.5156C192.383 33.1875 192.484 31.8359 192.656 29.4609L192.773 25.6172V23.7656C192.773 21.0312 192.664 19.2344 192.445 18.375C192.242 17.5156 191.812 16.8281 191.156 16.3125C190.5 15.7812 189.625 15.5156 188.531 15.5156C187.438 15.5156 186.531 15.7812 185.812 16.3125C185.094 16.8281 184.641 17.3516 184.453 17.8828C184.344 18.1953 184.297 19.4453 184.312 21.6328V25.5703C184.312 26.7109 184.344 28.1094 184.406 29.7656C184.422 30.5 184.484 30.9844 184.594 31.2188C184.672 31.3906 184.773 31.5156 184.898 31.5938C185.086 31.7188 185.453 31.8359 186 31.9453C186.188 31.9766 186.844 32.0391 187.969 32.1328V33.9375C186.266 33.875 184.18 33.8438 181.711 33.8438C178.852 33.8438 176.633 33.875 175.055 33.9375V32.1328C176.273 32.1328 177.117 32.0469 177.586 31.875C177.805 31.7969 177.969 31.6641 178.078 31.4766C178.234 31.1797 178.32 30.6172 178.336 29.7891L178.43 27.7031C178.445 27.2656 178.453 26.5547 178.453 25.5703V22.5C178.453 21.1094 178.406 19.4219 178.312 17.4375C178.266 16.4375 178.195 15.875 178.102 15.75C178.023 15.6094 177.891 15.5078 177.703 15.4453C177.406 15.3359 176.523 15.2578 175.055 15.2109V13.4062C177.898 12.9219 179.766 12.5625 180.656 12.3281C181.547 12.0938 182.555 11.7188 183.68 11.2031L184.312 11.4844V15.2578L188.578 11.8359C189.094 11.6328 189.523 11.5 189.867 11.4375C190.227 11.3594 190.719 11.3203 191.344 11.3203C193.016 11.3203 194.266 11.5078 195.094 11.8828C195.938 12.2578 196.648 12.7891 197.227 13.4766C197.805 14.1484 198.211 14.8594 198.445 15.6094C198.68 16.3438 198.797 17.5 198.797 19.0781C198.797 20.8594 198.781 21.9922 198.75 22.4766C198.734 22.6641 198.727 22.8906 198.727 23.1562L198.75 25.5703C198.766 28.2109 198.805 29.8438 198.867 30.4688C198.945 31.0938 199.086 31.5 199.289 31.6875C199.508 31.8594 199.977 31.9688 200.695 32.0156C200.961 32.0312 201.398 32.0703 202.008 32.1328ZM211.055 0C212.055 0 212.898 0.351562 213.586 1.05469C214.289 1.75781 214.641 2.60156 214.641 3.58594C214.641 4.58594 214.289 5.4375 213.586 6.14062C212.898 6.84375 212.055 7.19531 211.055 7.19531C210.07 7.19531 209.227 6.84375 208.523 6.14062C207.82 5.4375 207.469 4.58594 207.469 3.58594C207.469 2.60156 207.812 1.75781 208.5 1.05469C209.203 0.351562 210.055 0 211.055 0ZM204.633 33.9375V32.2031C206.383 32.0781 207.383 31.9453 207.633 31.8047C207.883 31.6484 208.039 31.3672 208.102 30.9609C208.258 30.1016 208.336 27.8906 208.336 24.3281C208.336 19.4375 208.266 16.6562 208.125 15.9844C208.062 15.6719 207.961 15.4688 207.82 15.375C207.508 15.1719 206.445 15.0625 204.633 15.0469V13.2656C206.992 13.0156 208.773 12.75 209.977 12.4688C211.18 12.1875 212.492 11.7578 213.914 11.1797L214.477 11.4844C214.289 13.9219 214.195 16.2109 214.195 18.3516V26.3203C214.195 29.0391 214.258 30.6484 214.383 31.1484C214.445 31.4297 214.57 31.6172 214.758 31.7109C215.18 31.9141 216.203 32.0469 217.828 32.1094V33.9375C215.609 33.875 213.195 33.8438 210.586 33.8438C208.336 33.8438 206.352 33.875 204.633 33.9375ZM220.078 16.1016V15.0469L222.188 13.7109C222.531 13.4922 222.859 13.2578 223.172 13.0078V9.86719C223.172 8.74219 223.109 7.35156 222.984 5.69531C224.5 5.19531 225.484 4.85937 225.938 4.6875C226.016 4.65625 227.008 4.19531 228.914 3.30469L229.523 3.77344L229.289 6.21094L229.125 8.90625L228.914 13.0078H229.688C231.766 13.0078 233.336 12.9297 234.398 12.7734L234 15.9375C233.812 15.9688 233.641 15.9844 233.484 15.9844L231.188 15.9375H228.914V23.7656C228.914 26.1719 228.938 27.5938 228.984 28.0312C229.047 28.7656 229.305 29.3438 229.758 29.7656C230.227 30.1719 230.898 30.375 231.773 30.375C232.305 30.3906 232.727 30.3828 233.039 30.3516C233.367 30.3047 233.781 30.2266 234.281 30.1172L234.656 31.0781L233.812 31.9219C233.125 32.625 232.523 33.2422 232.008 33.7734C231.398 34.0391 230.852 34.2109 230.367 34.2891C229.898 34.3828 229.414 34.4297 228.914 34.4297C227.102 34.4297 225.672 33.9688 224.625 33.0469C223.594 32.1094 223.078 30.9453 223.078 29.5547L223.172 21.8203V16.0312H222.539C221.68 16.0312 220.859 16.0547 220.078 16.1016ZM236.508 45.8906C236.773 44.75 236.945 43.9531 237.023 43.5L237.375 41.1328L237.984 41.0156C238.375 41.4219 238.82 41.7812 239.32 42.0938C239.93 42.3594 240.586 42.4922 241.289 42.4922C242.102 42.4922 242.852 42.2109 243.539 41.6484C244.227 41.1016 244.992 39.8906 245.836 38.0156L246.773 35.7656L239.18 16.2891C238.727 15.1328 238.297 14.4219 237.891 14.1562C237.484 13.875 236.711 13.7422 235.57 13.7578V11.9062C237.102 11.9688 238.977 12 241.195 12C243.82 12 246.156 11.9688 248.203 11.9062V13.7578H247.664C246.695 13.7422 246.023 13.8516 245.648 14.0859C245.414 14.2422 245.297 14.4453 245.297 14.6953C245.297 14.9766 245.375 15.3203 245.531 15.7266L246.68 18.8906L250.102 27.8203L252.164 22.9453C254.18 18.1328 255.188 15.3516 255.188 14.6016C255.188 14.4453 255.148 14.3203 255.07 14.2266C254.961 14.1016 254.766 14.0078 254.484 13.9453C253.922 13.8359 253.172 13.7734 252.234 13.7578V11.9062C253.234 11.9688 254.492 12 256.008 12C257.852 12 259.57 11.9688 261.164 11.9062V13.7578H260.789C260.367 13.7422 259.969 13.8203 259.594 13.9922C259.359 14.0859 259.148 14.2422 258.961 14.4609C258.789 14.6797 258.352 15.5391 257.648 17.0391C256.727 19.0078 255.984 20.6328 255.422 21.9141C253.672 25.8828 252.562 28.4297 252.094 29.5547L248.32 38.7656C247.164 41.5625 245.938 43.5547 244.641 44.7422C243.344 45.9453 241.766 46.5469 239.906 46.5469C239.297 46.5469 238.734 46.5 238.219 46.4062C237.719 46.3125 237.148 46.1406 236.508 45.8906ZM276.211 17.8359C276.211 15.0234 276.633 12.5703 277.477 10.4766C278.336 8.36719 279.555 6.57813 281.133 5.10938C282.711 3.625 284.391 2.55469 286.172 1.89844C288.578 1.02344 291.32 0.585938 294.398 0.585938C297.305 0.585938 299.773 0.945312 301.805 1.66406C303.852 2.38281 305.594 3.42188 307.031 4.78125C308.469 6.125 309.547 7.5625 310.266 9.09375C311.25 11.1719 311.742 13.6875 311.742 16.6406C311.742 22.2188 310.117 26.6172 306.867 29.8359C303.633 33.0547 299.18 34.6641 293.508 34.6641C290.633 34.6641 288.141 34.2656 286.031 33.4688C283.922 32.6719 282.203 31.625 280.875 30.3281C279.547 29.0156 278.531 27.5859 277.828 26.0391C276.75 23.6641 276.211 20.9297 276.211 17.8359ZM283.406 16.6641C283.406 21.3984 284.336 25.1562 286.195 27.9375C288.055 30.7031 290.773 32.0859 294.352 32.0859C296.258 32.0859 297.992 31.625 299.555 30.7031C301.117 29.7656 302.336 28.2109 303.211 26.0391C304.102 23.8672 304.547 21.1953 304.547 18.0234C304.547 16.0391 304.344 14.1328 303.938 12.3047C303.531 10.4609 302.898 8.85938 302.039 7.5C301.195 6.125 300.125 5.07031 298.828 4.33594C297.547 3.60156 295.875 3.23438 293.812 3.23438C291.953 3.23438 290.312 3.58594 288.891 4.28906C287.828 4.82031 286.875 5.61719 286.031 6.67969C285.203 7.74219 284.555 9.13281 284.086 10.8516C283.633 12.5703 283.406 14.5078 283.406 16.6641ZM284.109 41.0859L283.594 39.5625C284.016 39.1719 284.695 38.6562 285.633 38.0156C287.445 36.7656 288.625 35.9844 289.172 35.6719C289.719 35.3594 290.43 35.0312 291.305 34.6875C293.086 34.9688 295.703 35.7188 299.156 36.9375C301.531 37.7656 302.93 38.25 303.352 38.3906C304.273 38.6719 305.156 38.8906 306 39.0469C306.594 39.1562 307.094 39.2109 307.5 39.2109C307.922 39.2109 308.328 39.1719 308.719 39.0938C308.984 39.0469 309.234 38.9766 309.469 38.8828L311.391 38.0625V39.8438C310.781 40.1875 309.625 40.8828 307.922 41.9297C307.266 42.3516 306.766 42.6953 306.422 42.9609C306.062 42.9609 305.281 42.8594 304.078 42.6562C302.5 42.375 300.562 41.8906 298.266 41.2031C295.156 40.2812 293.031 39.6875 291.891 39.4219C290.344 39.0938 289.305 38.9297 288.773 38.9297C288.32 38.9297 287.883 39.0156 287.461 39.1875C286.883 39.4375 285.766 40.0703 284.109 41.0859ZM352.266 27.9844L352.945 29.5078C352.445 29.9609 351.68 30.7422 350.648 31.8516C349.633 32.9609 348.906 33.7969 348.469 34.3594C347.344 34.6094 346.422 34.7344 345.703 34.7344C344.359 34.7344 343.117 34.5312 341.977 34.125C340.336 33.5625 338.633 32.6328 336.867 31.3359C335.43 32.4766 333.906 33.3359 332.297 33.9141C330.703 34.4766 328.898 34.7578 326.883 34.7578C323.289 34.7578 320.562 33.7891 318.703 31.8516C316.844 29.8984 315.914 27.6953 315.914 25.2422C315.914 23.4453 316.367 21.875 317.273 20.5312C318.523 18.6875 320.586 17.0859 323.461 15.7266C322.867 14.3984 322.453 13.25 322.219 12.2812C321.984 11.3125 321.867 10.3281 321.867 9.32812C321.867 7.96875 322.133 6.98438 322.664 6.375L324.914 3.77344C325.961 2.55469 326.672 1.84375 327.047 1.64062C328.359 0.9375 329.734 0.585938 331.172 0.585938C332.234 0.585938 333.188 0.796875 334.031 1.21875C334.875 1.64062 335.516 2.25781 335.953 3.07031C336.391 3.88281 336.609 4.78125 336.609 5.76562C336.609 7.17188 336.117 8.60156 335.133 10.0547C334.148 11.4922 332.094 13.1875 328.969 15.1406C330.406 17.3125 332.016 19.3906 333.797 21.375C335.594 23.3438 337.32 24.9531 338.977 26.2031C339.508 25.3281 339.891 24.5391 340.125 23.8359C340.359 23.1172 340.477 22.3984 340.477 21.6797C340.477 21.1172 340.398 20.5156 340.242 19.875C340.086 19.2188 339.859 18.6484 339.562 18.1641H335.344L335.133 17.8828C335.461 17.3672 335.703 16.9609 335.859 16.6641L336.656 14.9297C339.688 15.0078 341.461 15.0469 341.977 15.0469C346.227 15.0469 349.492 14.9219 351.773 14.6719L351.984 14.8594C351.641 15.8125 351.422 16.4844 351.328 16.875C351.25 17.2656 351.188 17.7344 351.141 18.2812L350.93 18.5391C348.977 18.3828 347.875 18.3047 347.625 18.3047C347 18.2734 345.812 18.2422 344.062 18.2109C344.219 18.9609 344.297 19.6172 344.297 20.1797C344.297 21.3516 344.062 22.4844 343.594 23.5781C343.141 24.6719 342.305 25.9688 341.086 27.4688C342.148 28.2188 343.352 28.7969 344.695 29.2031C346.039 29.6094 347.312 29.8125 348.516 29.8125C348.875 29.8125 349.172 29.7812 349.406 29.7188C349.641 29.6406 349.914 29.5078 350.227 29.3203L352.266 27.9844ZM327.961 13.1719C329.477 12.1094 330.586 11.0781 331.289 10.0781C332.008 9.0625 332.367 7.99219 332.367 6.86719C332.367 5.86719 332.086 5.07031 331.523 4.47656C330.961 3.86719 330.258 3.5625 329.414 3.5625C328.523 3.5625 327.773 3.88281 327.164 4.52344C326.57 5.16406 326.273 6.02344 326.273 7.10156C326.273 8.80469 326.836 10.8281 327.961 13.1719ZM324.398 17.7188C323.57 18.2188 322.906 18.8672 322.406 19.6641C321.922 20.4453 321.68 21.3516 321.68 22.3828C321.68 23.9141 322.094 25.4062 322.922 26.8594C323.766 28.2969 324.836 29.4141 326.133 30.2109C327.445 30.9922 328.789 31.3828 330.164 31.3828C331.742 31.3828 333.305 30.8828 334.852 29.8828C332.57 27.9609 330.641 26.0859 329.062 24.2578C327.5 22.4297 325.945 20.25 324.398 17.7188ZM354.82 33.9375V31.9922C356.086 31.8984 356.836 31.8203 357.07 31.7578C357.32 31.6797 357.531 31.5703 357.703 31.4297C357.875 31.2734 358.047 31.0391 358.219 30.7266C358.406 30.3984 358.945 29.2031 359.836 27.1406C360.242 26.1719 361.023 24.2578 362.18 21.3984L368.297 6.30469L370.359 0.984375H373.688L384.164 25.4531L385.617 28.6641L386.555 30.8203C386.711 31.1016 386.859 31.3047 387 31.4297C387.141 31.5547 387.297 31.6484 387.469 31.7109C387.656 31.7734 388.117 31.8281 388.852 31.875C389.086 31.9062 389.43 31.9453 389.883 31.9922V33.9375L383.367 33.7969L375.141 33.9375V31.9922C377.031 31.9141 378.094 31.8125 378.328 31.6875C378.578 31.5469 378.703 31.3203 378.703 31.0078C378.703 30.6172 378.523 29.9766 378.164 29.0859L376.148 23.9297H364.102L363.07 26.7422C362.289 28.8984 361.898 30.2422 361.898 30.7734C361.898 31.1484 362.023 31.4141 362.273 31.5703C362.648 31.7891 363.766 31.9297 365.625 31.9922V33.9375L360.211 33.7969L354.82 33.9375ZM365.18 21.2578C366.648 21.3047 368.312 21.3281 370.172 21.3281C371.969 21.3281 373.578 21.3047 375 21.2578L369.984 9.16406L365.18 21.2578Z" fill="black"/>
</svg>
