<svg width="80" height="40" viewBox="0 0 80 40" fill="none" xmlns="http://www.w3.org/2000/svg">
<path fill-rule="evenodd" clip-rule="evenodd" d="M67.3435 17.4724V17.4724C67.3144 18.0404 67.2811 18.6892 66.9235 19.1388C66.895 19.1717 66.8649 19.203 66.8332 19.2327C66.6577 19.4195 66.4339 19.5539 66.1868 19.6213L66.1391 19.6323C65.8714 19.6946 65.5914 19.6759 65.3344 19.5787C65.2951 19.5661 65.2564 19.5515 65.2185 19.5349C64.7018 19.2886 64.3884 18.7211 64.1145 18.2252C64.0847 18.1712 64.0554 18.1181 64.0263 18.0663L63.6186 17.3405C62.762 15.8158 61.9055 14.2912 61.0624 12.7583C60.9662 12.5832 60.8677 12.4101 60.7692 12.2372L60.7691 12.2371C60.4893 11.7456 60.2103 11.2557 59.9907 10.727C59.9701 10.6774 59.949 10.6273 59.9277 10.5767L59.9276 10.5765L59.9276 10.5764C59.6958 10.0261 59.4414 9.42207 59.5631 8.83036C59.7989 7.68732 61.1932 7.09047 62.1851 6.76524C62.4898 6.66756 62.8012 6.58496 63.1158 6.50932C63.4305 6.43368 63.7477 6.37448 64.0643 6.33043C65.0981 6.187 66.6131 6.11071 67.324 7.03311C67.6924 7.51163 67.7278 8.16499 67.7601 8.76092L67.7601 8.76133L67.7601 8.7618C67.7631 8.81698 67.7661 8.87167 67.7693 8.92569C67.8032 9.49815 67.7669 10.0617 67.7304 10.6272V10.6273V10.6273C67.7176 10.8252 67.7048 11.0233 67.695 11.2221C67.6157 12.849 67.5195 14.4753 67.4233 16.1015C67.3998 16.4993 67.3763 16.8971 67.353 17.295C67.3496 17.3529 67.3466 17.4122 67.3435 17.4723L67.3435 17.4724ZM76.6956 16.8398C76.3505 16.1162 75.8868 15.4557 75.3235 14.8857C75.2507 14.8133 75.1727 14.7464 75.0901 14.6854C75.0138 14.6282 74.9346 14.575 74.8528 14.5261C74.7686 14.48 74.682 14.4384 74.5934 14.4016C74.4183 14.3329 74.2306 14.3019 74.0426 14.3108C73.8629 14.321 73.6875 14.3703 73.5286 14.4552C73.2879 14.575 73.0274 14.7676 72.6808 15.0899C72.649 15.1216 72.6116 15.156 72.5742 15.1904L72.5742 15.1905L72.574 15.1906C72.563 15.2007 72.552 15.2108 72.5412 15.2209C72.5337 15.2279 72.5262 15.2349 72.5188 15.2418C72.2895 15.4575 72.0396 15.7134 71.7543 16.0055L71.7537 16.0061C71.6835 16.0781 71.6111 16.1522 71.5364 16.2284C70.9518 16.8196 70.3761 17.414 69.8038 18.0149L68.7801 19.0772C68.5926 19.2713 68.4219 19.481 68.2698 19.7039C68.1402 19.8924 68.0486 20.1043 68 20.3277C67.9719 20.4991 67.976 20.6743 68.0123 20.8441L68.0176 20.8668C68.0986 21.2186 68.3128 21.525 68.6152 21.7217C68.9176 21.9184 69.2846 21.9899 69.6388 21.9211C69.6949 21.913 69.7385 21.9034 69.7649 21.8968L75.2248 20.6336L75.3061 20.6148C75.7099 20.522 76.1161 20.4286 76.4783 20.2182C76.7375 20.0678 76.9841 19.9186 77.1532 19.6179C77.2435 19.4527 77.2982 19.2703 77.3136 19.0827C77.3972 18.3385 77.0083 17.4935 76.6956 16.8398ZM62.6083 23.5487L63.8711 23.2565C63.8977 23.2504 63.9416 23.2402 63.9951 23.2229C64.3436 23.1291 64.6421 22.9036 64.8279 22.594C65.0136 22.2844 65.0721 21.9148 64.9911 21.5631L64.9859 21.5404C64.9443 21.3718 64.8716 21.2125 64.7715 21.0708C64.6299 20.8913 64.4547 20.7411 64.2557 20.6287C64.0215 20.4951 63.7763 20.3817 63.5229 20.2896L62.1381 19.7846C61.3609 19.4959 60.5838 19.2145 59.7994 18.94C59.6995 18.9045 59.6027 18.8699 59.5086 18.8362L59.5072 18.8357L59.5062 18.8354L59.5062 18.8354C59.1222 18.698 58.7855 18.5776 58.4852 18.4848C58.4616 18.4775 58.4373 18.4702 58.4129 18.463L58.4128 18.463C58.3641 18.4485 58.3154 18.434 58.2731 18.4194C57.8204 18.2808 57.5023 18.2234 57.2331 18.2216C57.0533 18.215 56.8743 18.2477 56.7083 18.3174C56.5354 18.3921 56.3801 18.5024 56.2527 18.6411C56.1892 18.7132 56.1296 18.7886 56.074 18.867C56.0219 18.9468 55.974 19.0294 55.9307 19.1143C55.8831 19.2054 55.8421 19.2999 55.8082 19.397C55.5514 20.1568 55.4236 20.9541 55.4302 21.756C55.435 22.4809 55.4548 23.4113 55.8534 24.0419C55.9495 24.2037 56.0784 24.3436 56.2318 24.4525C56.5157 24.6484 56.8025 24.6741 57.101 24.6956C57.5189 24.7254 57.9245 24.631 58.3283 24.537L58.4097 24.5181L62.6048 23.5475L62.6083 23.5487ZM66.4514 24.5571C66.2968 24.3399 66.0776 24.1771 65.825 24.0921C65.5724 24.007 65.2994 24.0041 65.0449 24.0838C64.9851 24.1036 64.9269 24.1278 64.8706 24.1561C64.7836 24.2005 64.7006 24.2523 64.6225 24.3109C64.395 24.4796 64.2034 24.6987 64.029 24.9184C64.0135 24.9381 63.9984 24.9601 63.9831 24.9824L63.9831 24.9825C63.9548 25.0237 63.9259 25.066 63.8918 25.097L63.0138 26.3054C62.5162 26.9824 62.0255 27.6611 61.5389 28.3505C61.4753 28.4397 61.4134 28.5261 61.3533 28.6099L61.3532 28.61C61.1136 28.9445 60.9033 29.2382 60.7298 29.504C60.7151 29.5265 60.7001 29.55 60.6852 29.5734C60.6585 29.6151 60.632 29.6566 60.607 29.6923C60.347 30.0948 60.1998 30.3885 60.1242 30.6502C60.0675 30.8241 60.0496 31.0083 60.0718 31.1898C60.096 31.3788 60.1597 31.5606 60.2587 31.7234C60.3114 31.805 60.3682 31.884 60.4288 31.9599C60.4918 32.0329 60.5587 32.1025 60.6292 32.1683C60.7045 32.2401 60.7851 32.3062 60.8702 32.3661C61.4766 32.7876 62.1403 33.0904 62.8384 33.3244C63.4194 33.5171 64.0232 33.6323 64.6344 33.6671C64.7383 33.6723 64.8425 33.6701 64.9462 33.6603C65.0423 33.6519 65.1378 33.6384 65.2325 33.62C65.3271 33.5979 65.4204 33.5707 65.5121 33.5387C65.6906 33.4719 65.8531 33.3684 65.9891 33.2348C66.1178 33.1058 66.2169 32.9502 66.2794 32.779C66.3808 32.5259 66.4475 32.2046 66.4912 31.7276C66.4938 31.6824 66.4989 31.6311 66.504 31.5799L66.5041 31.5799C66.5066 31.5543 66.5092 31.5287 66.5114 31.5038C66.5385 31.1931 66.5541 30.8397 66.5717 30.4376C66.5766 30.3276 66.5815 30.2139 66.587 30.0965C66.6297 29.2558 66.6631 28.4188 66.6895 27.5795C66.6895 27.5795 66.7456 26.0878 66.7454 26.087C66.7583 25.7433 66.7476 25.3624 66.6521 25.0202C66.6102 24.8561 66.5424 24.6998 66.4514 24.5571ZM75.5129 26.2406C75.9227 26.4882 76.1825 26.6886 76.3658 26.8895C76.493 27.0208 76.5898 27.1785 76.6494 27.3513C76.71 27.5317 76.7321 27.7229 76.7142 27.9124C76.7029 28.0089 76.6865 28.1048 76.6652 28.1996C76.6405 28.2929 76.611 28.3848 76.577 28.4751C76.5406 28.5727 76.4971 28.6675 76.447 28.7588C76.086 29.4042 75.6219 29.9679 75.0968 30.485C74.659 30.9134 74.1666 31.2823 73.6325 31.582C73.5415 31.6324 73.447 31.6761 73.3497 31.7127C73.2595 31.7474 73.1676 31.7773 73.0743 31.8024C72.9796 31.8241 72.8839 31.8407 72.7874 31.8522C72.5977 31.871 72.4062 31.8498 72.2253 31.7899C72.0532 31.7305 71.8961 31.6342 71.765 31.5078C71.5627 31.323 71.3631 31.0653 71.1147 30.6558C71.0919 30.6151 71.0641 30.5697 71.0363 30.5246C71.0237 30.504 71.0111 30.4835 70.999 30.4635C70.8369 30.1931 70.6662 29.8784 70.4717 29.5199C70.4212 29.4269 70.3691 29.3309 70.3151 29.2319C69.9092 28.4958 69.5133 27.7574 69.122 27.0147L68.4189 25.6979C68.257 25.3946 68.1006 25.0482 68.0361 24.698C68.004 24.5328 67.9978 24.3635 68.0178 24.1964C68.0614 23.9335 68.1868 23.6911 68.376 23.5037C68.5653 23.3162 68.8088 23.1933 69.0719 23.1525C69.1343 23.1441 69.1973 23.1402 69.2602 23.1409C69.3578 23.1426 69.4551 23.1526 69.551 23.171C69.8292 23.2227 70.0973 23.3355 70.3501 23.4563C70.3726 23.4671 70.3957 23.4802 70.4192 23.4935C70.4628 23.5182 70.5076 23.5435 70.552 23.5565L71.8681 24.254C72.613 24.6451 73.3509 25.0395 74.0884 25.4441C74.1937 25.5013 74.2957 25.5563 74.3944 25.6095C74.7454 25.7988 75.0542 25.9653 75.3205 26.1253C75.3419 26.1381 75.3638 26.1515 75.3858 26.165C75.4296 26.1918 75.4735 26.2187 75.5129 26.2406Z" fill="#FF1A1A"/>
<path fill-rule="evenodd" clip-rule="evenodd" d="M31.0528 14.0793C31.0528 12.994 31.937 12.1074 33.0041 12.1074C34.056 12.1074 34.9097 12.994 34.9554 14.0946V29.4876C34.9554 30.5729 34.0712 31.4595 33.0041 31.4595C31.9065 31.4595 31.0528 30.5729 31.0528 29.4876V14.0793ZM29.2388 23.5872C29.2235 23.893 29.1473 24.4585 28.7509 24.8713C28.3241 25.3145 27.7448 25.4216 27.4094 25.4216C26.0146 25.4292 24.6197 25.433 23.2249 25.4368C21.83 25.4407 20.4351 25.4445 19.0403 25.4521C19.1622 25.8343 19.4061 26.4151 19.9549 26.9502C20.2903 27.2712 20.6104 27.4546 20.7476 27.531C20.9153 27.638 21.4946 27.9437 22.2111 27.9437C22.9733 27.9437 23.6441 27.6992 24.2996 27.3629L24.3544 27.3345C24.8099 27.0985 25.28 26.8549 25.7783 26.7667C26.2661 26.6903 26.7844 26.782 27.1655 27.1183C27.6229 27.5157 27.8058 28.0966 27.6381 28.6928C27.4399 29.3653 26.8759 29.9462 26.2814 30.2978C25.946 30.4965 25.5801 30.6647 25.2142 30.8022C24.7417 30.9704 24.2539 31.0927 23.766 31.1691C23.2782 31.2455 22.7751 31.2761 22.2721 31.2608C22.0282 31.2608 21.769 31.2608 21.5099 31.2302C21.2355 31.1997 20.9611 31.1385 20.7019 31.0774C20.2751 30.9857 19.8787 30.8481 19.4824 30.6647C19.1013 30.4965 18.7201 30.2825 18.3695 30.0379C18.0189 29.7934 17.6988 29.5029 17.3939 29.1972C17.1042 28.8915 16.8298 28.5552 16.5859 28.1883C15.7627 26.9349 15.3816 25.391 15.4578 23.893C15.5188 22.4255 16.0066 20.958 16.8908 19.7657C16.9866 19.6164 17.0971 19.4894 17.2019 19.3691L17.2019 19.3691C17.2472 19.317 17.2915 19.2662 17.3329 19.2154C18.4248 17.8806 19.8835 17.4581 20.4853 17.2839L20.519 17.2741C22.2416 16.785 23.6746 17.106 24.2539 17.2741C24.5435 17.3505 26.1746 17.855 27.4399 19.2154C27.5009 19.2766 27.6686 19.4753 27.882 19.7657C28.6836 20.8576 28.96 21.8742 29.0536 22.2187L29.0558 22.2268C29.1473 22.5631 29.2388 23.0216 29.2388 23.5872ZM20.2903 21.065C19.4061 21.7835 19.1622 22.7006 19.1013 22.9911H25.7478C25.6868 22.7159 25.4277 21.7835 24.5435 21.065C23.6441 20.3466 22.6989 20.3007 22.4093 20.3007C22.1196 20.3007 21.1745 20.3466 20.2903 21.065ZM45.5655 17.0141C43.8276 17.0141 42.2422 17.7937 41.1141 19.0625V19.0166C41.0684 17.9925 40.2147 17.167 39.1781 17.167C38.0958 17.167 37.2268 18.0383 37.2268 19.1236V33.8135C37.2268 34.8988 38.0958 35.7701 39.1781 35.7701C40.2605 35.7701 41.1294 34.8988 41.1294 33.8135V33.2479V29.2277C42.2575 30.4811 43.8276 31.276 45.5807 31.276C49.0717 31.276 51.9072 28.1118 51.9072 24.168C51.8919 20.2242 49.0565 17.0141 45.5655 17.0141ZM44.7118 28.0812C42.73 28.0812 41.1141 26.3539 41.1141 24.1986C41.1141 22.028 42.7148 20.3006 44.7118 20.3006C46.6936 20.3006 48.3095 22.028 48.3095 24.1986C48.2942 26.3539 46.6936 28.0812 44.7118 28.0812ZM12.5309 25.1922L11.8907 26.5985C11.601 27.21 11.3114 27.8367 11.037 28.4634C10.9494 28.6558 10.8612 28.852 10.7718 29.051C9.55336 31.762 8.10731 34.9796 4.95447 35.6631C3.43003 35.9994 1.12813 35.5409 0.274442 34.104C-0.579244 32.6518 0.68604 30.9856 2.31719 31.3678C2.57446 31.4251 2.82744 31.5512 3.08257 31.6784C3.50772 31.8904 3.93883 32.1053 4.40567 32.0098C4.84776 31.9334 5.12215 31.6123 5.47277 31.1996C5.9606 30.634 6.17402 30.0379 6.26548 29.6863C6.25786 29.671 6.25024 29.6519 6.24262 29.6328C6.23499 29.6137 6.22737 29.5946 6.21975 29.5793C5.82291 28.839 5.47635 28.1771 5.18684 27.6241C4.99813 27.2637 4.83367 26.9496 4.69531 26.6902C4.41141 26.1521 4.19696 25.7453 4.0302 25.4289C3.54326 24.5051 3.46285 24.3526 3.2471 23.9541C2.77452 23.0522 2.27146 22.1809 1.75315 21.3096C1.1891 20.3618 0.609818 19.3071 1.08239 18.1912C1.4635 17.2893 2.43914 16.8308 3.36905 17.1212C4.35023 17.4189 4.78473 18.3526 5.19109 19.2257C5.26456 19.3836 5.33711 19.5395 5.4118 19.6892C6.06729 20.9885 6.70753 22.2878 7.34778 23.5871L7.34783 23.5872C7.4042 23.7164 7.49034 23.8925 7.59502 24.1065C7.68852 24.2976 7.7968 24.519 7.91188 24.7642C7.97203 24.8916 8.02926 25.0101 8.08098 25.1172C8.14723 25.2544 8.20445 25.3729 8.24725 25.4674C8.54452 24.726 8.84561 23.9884 9.14669 23.2508C9.44776 22.5133 9.74883 21.7758 10.0461 21.0344C10.0543 20.993 10.1253 20.8348 10.2322 20.5965C10.3226 20.395 10.4387 20.1362 10.5644 19.8421C10.6069 19.7417 10.6497 19.6374 10.6935 19.5308C11.0894 18.5665 11.5654 17.4072 12.6224 17.0906C13.3846 16.8613 14.2383 17.1671 14.6804 17.8091C14.909 18.1301 15.0005 18.4969 15.0158 18.8638C15.028 19.6751 14.6361 20.5457 14.2998 21.2928C14.2179 21.4747 14.1393 21.6493 14.0706 21.814C14.0675 21.8203 14.0542 21.8502 14.0302 21.9039C13.9372 22.1128 13.684 22.6815 13.2474 23.6178C13.0899 23.9534 12.9387 24.2891 12.7857 24.6288C12.7018 24.8152 12.6173 25.0027 12.5309 25.1922Z" fill="black"/>
</svg>
