<svg width="223" height="246" viewBox="0 0 223 246" fill="none" xmlns="http://www.w3.org/2000/svg">
<g clip-path="url(#clip0_304_6459)">
<path d="M11.5 86.6V0L86.5 43.3V72.1664L36.5 43.3V101.034L11.5 86.6Z" fill="#00B0FF"/>
<path d="M86.5 43.3L161.5 0V86.6L111.5 115.466L86.5 101.034L136.5 72.1664V43.3L86.5 72.1664V43.3Z" fill="#0081CB"/>
<path d="M86.5 101.033V129.9L136.5 158.766V129.9L86.5 101.033Z" fill="#00B0FF"/>
<path d="M136.5 158.766L211.5 115.466V57.7344L186.5 72.1672V101.034L136.5 129.901V158.768V158.766ZM186.5 43.3V14.4328L211.5 0V28.8672L186.5 43.3Z" fill="#0081CB"/>
</g>
<path d="M15.5289 215.436V228H13.0089V219.828L9.64287 228H7.73487L4.35087 219.828V228H1.83087V215.436H4.69287L8.68887 224.778L12.6849 215.436H15.5289ZM17.3723 222.978C17.3723 221.97 17.5703 221.076 17.9663 220.296C18.3743 219.516 18.9203 218.916 19.6043 218.496C20.3003 218.076 21.0743 217.866 21.9263 217.866C22.6703 217.866 23.3183 218.016 23.8703 218.316C24.4343 218.616 24.8843 218.994 25.2203 219.45V218.028H27.7583V228H25.2203V226.542C24.8963 227.01 24.4463 227.4 23.8703 227.712C23.3063 228.012 22.6523 228.162 21.9083 228.162C21.0683 228.162 20.3003 227.946 19.6043 227.514C18.9203 227.082 18.3743 226.476 17.9663 225.696C17.5703 224.904 17.3723 223.998 17.3723 222.978ZM25.2203 223.014C25.2203 222.402 25.1003 221.88 24.8603 221.448C24.6203 221.004 24.2963 220.668 23.8883 220.44C23.4803 220.2 23.0423 220.08 22.5743 220.08C22.1063 220.08 21.6743 220.194 21.2783 220.422C20.8823 220.65 20.5583 220.986 20.3063 221.43C20.0663 221.862 19.9463 222.378 19.9463 222.978C19.9463 223.578 20.0663 224.106 20.3063 224.562C20.5583 225.006 20.8823 225.348 21.2783 225.588C21.6863 225.828 22.1183 225.948 22.5743 225.948C23.0423 225.948 23.4803 225.834 23.8883 225.606C24.2963 225.366 24.6203 225.03 24.8603 224.598C25.1003 224.154 25.2203 223.626 25.2203 223.014ZM33.1535 220.098V224.922C33.1535 225.258 33.2315 225.504 33.3875 225.66C33.5555 225.804 33.8315 225.876 34.2155 225.876H35.3855V228H33.8015C31.6775 228 30.6155 226.968 30.6155 224.904V220.098H29.4275V218.028H30.6155V215.562H33.1535V218.028H35.3855V220.098H33.1535ZM46.4681 222.798C46.4681 223.158 46.4441 223.482 46.3961 223.77H39.1061C39.1661 224.49 39.4181 225.054 39.8621 225.462C40.3061 225.87 40.8521 226.074 41.5001 226.074C42.4361 226.074 43.1021 225.672 43.4981 224.868H46.2161C45.9281 225.828 45.3761 226.62 44.5601 227.244C43.7441 227.856 42.7421 228.162 41.5541 228.162C40.5941 228.162 39.7301 227.952 38.9621 227.532C38.2061 227.1 37.6121 226.494 37.1801 225.714C36.7601 224.934 36.5501 224.034 36.5501 223.014C36.5501 221.982 36.7601 221.076 37.1801 220.296C37.6001 219.516 38.1881 218.916 38.9441 218.496C39.7001 218.076 40.5701 217.866 41.5541 217.866C42.5021 217.866 43.3481 218.07 44.0921 218.478C44.8481 218.886 45.4301 219.468 45.8381 220.224C46.2581 220.968 46.4681 221.826 46.4681 222.798ZM43.8581 222.078C43.8461 221.43 43.6121 220.914 43.1561 220.53C42.7001 220.134 42.1421 219.936 41.4821 219.936C40.8581 219.936 40.3301 220.128 39.8981 220.512C39.4781 220.884 39.2201 221.406 39.1241 222.078H43.8581ZM50.8274 219.576C51.1514 219.048 51.5714 218.634 52.0874 218.334C52.6154 218.034 53.2154 217.884 53.8874 217.884V220.53H53.2214C52.4294 220.53 51.8294 220.716 51.4214 221.088C51.0254 221.46 50.8274 222.108 50.8274 223.032V228H48.3074V218.028H50.8274V219.576ZM56.8628 216.84C56.4188 216.84 56.0468 216.702 55.7468 216.426C55.4588 216.138 55.3148 215.784 55.3148 215.364C55.3148 214.944 55.4588 214.596 55.7468 214.32C56.0468 214.032 56.4188 213.888 56.8628 213.888C57.3068 213.888 57.6728 214.032 57.9608 214.32C58.2608 214.596 58.4108 214.944 58.4108 215.364C58.4108 215.784 58.2608 216.138 57.9608 216.426C57.6728 216.702 57.3068 216.84 56.8628 216.84ZM58.1048 218.028V228H55.5848V218.028H58.1048ZM59.9465 222.978C59.9465 221.97 60.1445 221.076 60.5405 220.296C60.9485 219.516 61.4945 218.916 62.1785 218.496C62.8745 218.076 63.6485 217.866 64.5005 217.866C65.2445 217.866 65.8925 218.016 66.4445 218.316C67.0085 218.616 67.4585 218.994 67.7945 219.45V218.028H70.3325V228H67.7945V226.542C67.4705 227.01 67.0205 227.4 66.4445 227.712C65.8805 228.012 65.2265 228.162 64.4825 228.162C63.6425 228.162 62.8745 227.946 62.1785 227.514C61.4945 227.082 60.9485 226.476 60.5405 225.696C60.1445 224.904 59.9465 223.998 59.9465 222.978ZM67.7945 223.014C67.7945 222.402 67.6745 221.88 67.4345 221.448C67.1945 221.004 66.8705 220.668 66.4625 220.44C66.0545 220.2 65.6165 220.08 65.1485 220.08C64.6805 220.08 64.2485 220.194 63.8525 220.422C63.4565 220.65 63.1325 220.986 62.8805 221.43C62.6405 221.862 62.5205 222.378 62.5205 222.978C62.5205 223.578 62.6405 224.106 62.8805 224.562C63.1325 225.006 63.4565 225.348 63.8525 225.588C64.2605 225.828 64.6925 225.948 65.1485 225.948C65.6165 225.948 66.0545 225.834 66.4625 225.606C66.8705 225.366 67.1945 225.03 67.4345 224.598C67.6745 224.154 67.7945 223.626 67.7945 223.014ZM75.3138 214.68V228H72.7938V214.68H75.3138ZM84.5766 215.436V223.212C84.5766 224.064 84.7986 224.718 85.2426 225.174C85.6866 225.618 86.3106 225.84 87.1146 225.84C87.9306 225.84 88.5606 225.618 89.0046 225.174C89.4486 224.718 89.6706 224.064 89.6706 223.212V215.436H92.2086V223.194C92.2086 224.262 91.9746 225.168 91.5066 225.912C91.0506 226.644 90.4326 227.196 89.6526 227.568C88.8846 227.94 88.0266 228.126 87.0786 228.126C86.1426 228.126 85.2906 227.94 84.5226 227.568C83.7666 227.196 83.1666 226.644 82.7226 225.912C82.2786 225.168 82.0566 224.262 82.0566 223.194V215.436H84.5766ZM97.1634 215.436V228H94.6434V215.436H97.1634Z" fill="black"/>
<path d="M134.485 212.752C134.101 212.752 133.749 212.661 133.429 212.48C133.119 212.288 132.869 212.037 132.677 211.728C132.495 211.408 132.405 211.056 132.405 210.672C132.405 210.085 132.607 209.589 133.013 209.184C133.418 208.779 133.909 208.576 134.485 208.576C135.082 208.576 135.583 208.779 135.989 209.184C136.394 209.589 136.597 210.085 136.597 210.672C136.597 211.259 136.394 211.755 135.989 212.16C135.583 212.555 135.082 212.752 134.485 212.752ZM147.092 210.416C147.092 209.328 147.343 208.352 147.844 207.488C148.356 206.624 149.044 205.952 149.908 205.472C150.783 204.981 151.737 204.736 152.772 204.736C153.956 204.736 155.007 205.029 155.924 205.616C156.852 206.192 157.524 207.013 157.94 208.08H155.748C155.46 207.493 155.06 207.056 154.548 206.768C154.036 206.48 153.444 206.336 152.772 206.336C152.036 206.336 151.38 206.501 150.804 206.832C150.228 207.163 149.775 207.637 149.444 208.256C149.124 208.875 148.964 209.595 148.964 210.416C148.964 211.237 149.124 211.957 149.444 212.576C149.775 213.195 150.228 213.675 150.804 214.016C151.38 214.347 152.036 214.512 152.772 214.512C153.444 214.512 154.036 214.368 154.548 214.08C155.06 213.792 155.46 213.355 155.748 212.768H157.94C157.524 213.835 156.852 214.656 155.924 215.232C155.007 215.808 153.956 216.096 152.772 216.096C151.727 216.096 150.772 215.856 149.908 215.376C149.044 214.885 148.356 214.208 147.844 213.344C147.343 212.48 147.092 211.504 147.092 210.416ZM159.467 211.552C159.467 210.667 159.648 209.883 160.011 209.2C160.384 208.517 160.886 207.989 161.515 207.616C162.155 207.232 162.859 207.04 163.627 207.04C164.32 207.04 164.923 207.179 165.435 207.456C165.958 207.723 166.374 208.059 166.683 208.464V207.184H168.523V216H166.683V214.688C166.374 215.104 165.952 215.451 165.419 215.728C164.886 216.005 164.278 216.144 163.595 216.144C162.838 216.144 162.144 215.952 161.515 215.568C160.886 215.173 160.384 214.629 160.011 213.936C159.648 213.232 159.467 212.437 159.467 211.552ZM166.683 211.584C166.683 210.976 166.555 210.448 166.299 210C166.054 209.552 165.728 209.211 165.323 208.976C164.918 208.741 164.48 208.624 164.011 208.624C163.542 208.624 163.104 208.741 162.699 208.976C162.294 209.2 161.963 209.536 161.707 209.984C161.462 210.421 161.339 210.944 161.339 211.552C161.339 212.16 161.462 212.693 161.707 213.152C161.963 213.611 162.294 213.963 162.699 214.208C163.115 214.443 163.552 214.56 164.011 214.56C164.48 214.56 164.918 214.443 165.323 214.208C165.728 213.973 166.054 213.632 166.299 213.184C166.555 212.725 166.683 212.192 166.683 211.584ZM173.047 208.672V213.552C173.047 213.883 173.121 214.123 173.271 214.272C173.431 214.411 173.697 214.48 174.071 214.48H175.191V216H173.751C172.929 216 172.3 215.808 171.863 215.424C171.425 215.04 171.207 214.416 171.207 213.552V208.672H170.167V207.184H171.207V204.992H173.047V207.184H175.191V208.672H173.047ZM184.952 211.376C184.952 211.707 184.931 212.005 184.888 212.272H178.152C178.205 212.976 178.467 213.541 178.936 213.968C179.405 214.395 179.981 214.608 180.664 214.608C181.645 214.608 182.339 214.197 182.744 213.376H184.712C184.445 214.187 183.96 214.853 183.256 215.376C182.563 215.888 181.699 216.144 180.664 216.144C179.821 216.144 179.064 215.957 178.392 215.584C177.731 215.2 177.208 214.667 176.824 213.984C176.451 213.291 176.264 212.491 176.264 211.584C176.264 210.677 176.445 209.883 176.808 209.2C177.181 208.507 177.699 207.973 178.36 207.6C179.032 207.227 179.8 207.04 180.664 207.04C181.496 207.04 182.237 207.221 182.888 207.584C183.539 207.947 184.045 208.459 184.408 209.12C184.771 209.771 184.952 210.523 184.952 211.376ZM183.048 210.8C183.037 210.128 182.797 209.589 182.328 209.184C181.859 208.779 181.277 208.576 180.584 208.576C179.955 208.576 179.416 208.779 178.968 209.184C178.52 209.579 178.253 210.117 178.168 210.8H183.048ZM190.299 207.04C190.982 207.04 191.584 207.179 192.107 207.456C192.64 207.723 193.056 208.059 193.355 208.464V207.184H195.195V216.144C195.195 216.955 195.024 217.675 194.683 218.304C194.342 218.944 193.846 219.445 193.195 219.808C192.555 220.171 191.787 220.352 190.891 220.352C189.696 220.352 188.704 220.069 187.915 219.504C187.126 218.949 186.678 218.192 186.571 217.232H188.379C188.518 217.691 188.811 218.059 189.259 218.336C189.718 218.624 190.262 218.768 190.891 218.768C191.627 218.768 192.219 218.544 192.667 218.096C193.126 217.648 193.355 216.997 193.355 216.144V214.672C193.046 215.088 192.624 215.44 192.091 215.728C191.568 216.005 190.971 216.144 190.299 216.144C189.531 216.144 188.827 215.952 188.187 215.568C187.558 215.173 187.056 214.629 186.683 213.936C186.32 213.232 186.139 212.437 186.139 211.552C186.139 210.667 186.32 209.883 186.683 209.2C187.056 208.517 187.558 207.989 188.187 207.616C188.827 207.232 189.531 207.04 190.299 207.04ZM193.355 211.584C193.355 210.976 193.227 210.448 192.971 210C192.726 209.552 192.4 209.211 191.995 208.976C191.59 208.741 191.152 208.624 190.683 208.624C190.214 208.624 189.776 208.741 189.371 208.976C188.966 209.2 188.635 209.536 188.379 209.984C188.134 210.421 188.011 210.944 188.011 211.552C188.011 212.16 188.134 212.693 188.379 213.152C188.635 213.611 188.966 213.963 189.371 214.208C189.787 214.443 190.224 214.56 190.683 214.56C191.152 214.56 191.59 214.443 191.995 214.208C192.4 213.973 192.726 213.632 192.971 213.184C193.227 212.725 193.355 212.192 193.355 211.584ZM201.415 216.144C200.583 216.144 199.831 215.957 199.159 215.584C198.487 215.2 197.959 214.667 197.575 213.984C197.191 213.291 196.999 212.491 196.999 211.584C196.999 210.688 197.196 209.893 197.591 209.2C197.985 208.507 198.524 207.973 199.207 207.6C199.889 207.227 200.652 207.04 201.495 207.04C202.337 207.04 203.1 207.227 203.783 207.6C204.465 207.973 205.004 208.507 205.399 209.2C205.793 209.893 205.991 210.688 205.991 211.584C205.991 212.48 205.788 213.275 205.383 213.968C204.977 214.661 204.423 215.2 203.719 215.584C203.025 215.957 202.257 216.144 201.415 216.144ZM201.415 214.56C201.884 214.56 202.321 214.448 202.727 214.224C203.143 214 203.479 213.664 203.735 213.216C203.991 212.768 204.119 212.224 204.119 211.584C204.119 210.944 203.996 210.405 203.751 209.968C203.505 209.52 203.18 209.184 202.775 208.96C202.369 208.736 201.932 208.624 201.463 208.624C200.993 208.624 200.556 208.736 200.151 208.96C199.756 209.184 199.441 209.52 199.207 209.968C198.972 210.405 198.855 210.944 198.855 211.584C198.855 212.533 199.095 213.269 199.575 213.792C200.065 214.304 200.679 214.56 201.415 214.56ZM209.618 208.464C209.884 208.016 210.236 207.669 210.674 207.424C211.122 207.168 211.65 207.04 212.258 207.04V208.928H211.794C211.079 208.928 210.535 209.109 210.162 209.472C209.799 209.835 209.618 210.464 209.618 211.36V216H207.794V207.184H209.618V208.464ZM221.87 207.184L216.462 220.144H214.574L216.366 215.856L212.894 207.184H214.926L217.406 213.904L219.982 207.184H221.87ZM134.485 236.752C134.101 236.752 133.749 236.661 133.429 236.48C133.119 236.288 132.869 236.037 132.677 235.728C132.495 235.408 132.405 235.056 132.405 234.672C132.405 234.085 132.607 233.589 133.013 233.184C133.418 232.779 133.909 232.576 134.485 232.576C135.082 232.576 135.583 232.779 135.989 233.184C136.394 233.589 136.597 234.085 136.597 234.672C136.597 235.259 136.394 235.755 135.989 236.16C135.583 236.555 135.082 236.752 134.485 236.752ZM153.652 234.288C154.249 234.395 154.756 234.709 155.172 235.232C155.588 235.755 155.796 236.347 155.796 237.008C155.796 237.573 155.647 238.085 155.348 238.544C155.06 238.992 154.639 239.349 154.084 239.616C153.529 239.872 152.884 240 152.148 240H147.7V228.88H151.94C152.697 228.88 153.348 229.008 153.892 229.264C154.436 229.52 154.847 229.867 155.124 230.304C155.401 230.731 155.54 231.211 155.54 231.744C155.54 232.384 155.369 232.917 155.028 233.344C154.687 233.771 154.228 234.085 153.652 234.288ZM149.524 233.552H151.78C152.377 233.552 152.841 233.419 153.172 233.152C153.513 232.875 153.684 232.48 153.684 231.968C153.684 231.467 153.513 231.077 153.172 230.8C152.841 230.512 152.377 230.368 151.78 230.368H149.524V233.552ZM151.988 238.512C152.607 238.512 153.092 238.363 153.444 238.064C153.796 237.765 153.972 237.349 153.972 236.816C153.972 236.272 153.785 235.84 153.412 235.52C153.039 235.2 152.543 235.04 151.924 235.04H149.524V238.512H151.988ZM165.858 235.376C165.858 235.707 165.837 236.005 165.794 236.272H159.058C159.111 236.976 159.373 237.541 159.842 237.968C160.311 238.395 160.887 238.608 161.57 238.608C162.551 238.608 163.245 238.197 163.65 237.376H165.618C165.351 238.187 164.866 238.853 164.162 239.376C163.469 239.888 162.605 240.144 161.57 240.144C160.727 240.144 159.97 239.957 159.298 239.584C158.637 239.2 158.114 238.667 157.73 237.984C157.357 237.291 157.17 236.491 157.17 235.584C157.17 234.677 157.351 233.883 157.714 233.2C158.087 232.507 158.605 231.973 159.266 231.6C159.938 231.227 160.706 231.04 161.57 231.04C162.402 231.04 163.143 231.221 163.794 231.584C164.445 231.947 164.951 232.459 165.314 233.12C165.677 233.771 165.858 234.523 165.858 235.376ZM163.954 234.8C163.943 234.128 163.703 233.589 163.234 233.184C162.765 232.779 162.183 232.576 161.49 232.576C160.861 232.576 160.322 232.779 159.874 233.184C159.426 233.579 159.159 234.117 159.074 234.8H163.954ZM172.213 231.04C172.885 231.04 173.482 231.184 174.005 231.472C174.538 231.76 174.954 232.187 175.253 232.752C175.562 233.317 175.717 234 175.717 234.8V240H173.909V235.072C173.909 234.283 173.712 233.68 173.317 233.264C172.922 232.837 172.384 232.624 171.701 232.624C171.018 232.624 170.474 232.837 170.069 233.264C169.674 233.68 169.477 234.283 169.477 235.072V240H167.653V228.16H169.477V232.208C169.786 231.835 170.176 231.547 170.645 231.344C171.125 231.141 171.648 231.04 172.213 231.04ZM177.436 235.552C177.436 234.667 177.617 233.883 177.98 233.2C178.353 232.517 178.854 231.989 179.484 231.616C180.124 231.232 180.828 231.04 181.596 231.04C182.289 231.04 182.892 231.179 183.404 231.456C183.926 231.723 184.342 232.059 184.652 232.464V231.184H186.492V240H184.652V238.688C184.342 239.104 183.921 239.451 183.388 239.728C182.854 240.005 182.246 240.144 181.564 240.144C180.806 240.144 180.113 239.952 179.484 239.568C178.854 239.173 178.353 238.629 177.98 237.936C177.617 237.232 177.436 236.437 177.436 235.552ZM184.652 235.584C184.652 234.976 184.524 234.448 184.268 234C184.022 233.552 183.697 233.211 183.292 232.976C182.886 232.741 182.449 232.624 181.98 232.624C181.51 232.624 181.073 232.741 180.668 232.976C180.262 233.2 179.932 233.536 179.676 233.984C179.43 234.421 179.308 234.944 179.308 235.552C179.308 236.16 179.43 236.693 179.676 237.152C179.932 237.611 180.262 237.963 180.668 238.208C181.084 238.443 181.521 238.56 181.98 238.56C182.449 238.56 182.886 238.443 183.292 238.208C183.697 237.973 184.022 237.632 184.268 237.184C184.524 236.725 184.652 236.192 184.652 235.584ZM192.296 238.368L194.792 231.184H196.727L193.368 240H191.192L187.848 231.184H189.799L192.296 238.368ZM199.034 230.016C198.704 230.016 198.426 229.904 198.202 229.68C197.978 229.456 197.866 229.179 197.866 228.848C197.866 228.517 197.978 228.24 198.202 228.016C198.426 227.792 198.704 227.68 199.034 227.68C199.354 227.68 199.626 227.792 199.85 228.016C200.074 228.24 200.186 228.517 200.186 228.848C200.186 229.179 200.074 229.456 199.85 229.68C199.626 229.904 199.354 230.016 199.034 230.016ZM199.93 231.184V240H198.106V231.184H199.93ZM206.149 240.144C205.317 240.144 204.565 239.957 203.893 239.584C203.221 239.2 202.693 238.667 202.309 237.984C201.925 237.291 201.733 236.491 201.733 235.584C201.733 234.688 201.93 233.893 202.325 233.2C202.72 232.507 203.258 231.973 203.941 231.6C204.624 231.227 205.386 231.04 206.229 231.04C207.072 231.04 207.834 231.227 208.517 231.6C209.2 231.973 209.738 232.507 210.133 233.2C210.528 233.893 210.725 234.688 210.725 235.584C210.725 236.48 210.522 237.275 210.117 237.968C209.712 238.661 209.157 239.2 208.453 239.584C207.76 239.957 206.992 240.144 206.149 240.144ZM206.149 238.56C206.618 238.56 207.056 238.448 207.461 238.224C207.877 238 208.213 237.664 208.469 237.216C208.725 236.768 208.853 236.224 208.853 235.584C208.853 234.944 208.73 234.405 208.485 233.968C208.24 233.52 207.914 233.184 207.509 232.96C207.104 232.736 206.666 232.624 206.197 232.624C205.728 232.624 205.29 232.736 204.885 232.96C204.49 233.184 204.176 233.52 203.941 233.968C203.706 234.405 203.589 234.944 203.589 235.584C203.589 236.533 203.829 237.269 204.309 237.792C204.8 238.304 205.413 238.56 206.149 238.56ZM214.352 232.464C214.619 232.016 214.971 231.669 215.408 231.424C215.856 231.168 216.384 231.04 216.992 231.04V232.928H216.528C215.813 232.928 215.269 233.109 214.896 233.472C214.533 233.835 214.352 234.464 214.352 235.36V240H212.528V231.184H214.352V232.464Z" fill="black"/>
<defs>
<clipPath id="clip0_304_6459">
<rect width="200" height="159.375" fill="white" transform="translate(11.5)"/>
</clipPath>
</defs>
</svg>
