<svg width="181" height="246" viewBox="0 0 181 246" fill="none" xmlns="http://www.w3.org/2000/svg">
<path d="M98.229 45.2119C90.9516 45.2119 84.4484 48.6184 80.2161 53.9861C75.9839 48.6184 69.4806 45.2119 62.2032 45.2119C49.4032 45.2119 39.029 55.7926 38.9774 68.9022V68.9538C38.9774 70.8635 39.2355 72.7216 39.6484 74.528C44.9129 97.7538 80.2161 120.67 80.2161 120.67C80.2161 120.67 115.519 97.7538 120.784 74.528C121.197 72.7216 121.455 70.8635 121.455 68.9538V68.9022C121.403 55.8442 111.029 45.2119 98.229 45.2119Z" fill="#00BFA5"/>
<path d="M180.5 159.226L143.442 129.084C154.9 115.252 160.268 99.4064 160.268 80C160.268 35.8193 124.448 0 80.2677 0C36.0871 0 0.267731 35.8193 0.267731 80C0.267731 124.181 36.0871 160 80.2677 160C99.0032 160 116.242 153.497 129.868 142.71L137.61 159.226H180.5ZM80.2677 140.748C46.6677 140.748 19.4677 113.497 19.4677 79.9484C19.4677 46.4 46.7193 19.1484 80.2677 19.1484C113.816 19.1484 141.068 46.4 141.068 79.9484C141.068 113.548 113.868 140.748 80.2677 140.748Z" fill="#343333"/>
<path d="M10.6279 221.556C11.3359 221.688 11.9179 222.042 12.3739 222.618C12.8299 223.194 13.0579 223.854 13.0579 224.598C13.0579 225.27 12.8899 225.864 12.5539 226.38C12.2299 226.884 11.7559 227.28 11.1319 227.568C10.5079 227.856 9.76989 228 8.91789 228H3.49989V215.436H8.68389C9.53589 215.436 10.2679 215.574 10.8799 215.85C11.5039 216.126 11.9719 216.51 12.2839 217.002C12.6079 217.494 12.7699 218.052 12.7699 218.676C12.7699 219.408 12.5719 220.02 12.1759 220.512C11.7919 221.004 11.2759 221.352 10.6279 221.556ZM6.01989 220.62H8.32389C8.92389 220.62 9.38589 220.488 9.70989 220.224C10.0339 219.948 10.1959 219.558 10.1959 219.054C10.1959 218.55 10.0339 218.16 9.70989 217.884C9.38589 217.608 8.92389 217.47 8.32389 217.47H6.01989V220.62ZM8.55789 225.948C9.16989 225.948 9.64389 225.804 9.97989 225.516C10.3279 225.228 10.5019 224.82 10.5019 224.292C10.5019 223.752 10.3219 223.332 9.96189 223.032C9.60189 222.72 9.11589 222.564 8.50389 222.564H6.01989V225.948H8.55789ZM17.5863 219.576C17.9103 219.048 18.3303 218.634 18.8463 218.334C19.3743 218.034 19.9743 217.884 20.6463 217.884V220.53H19.9803C19.1883 220.53 18.5883 220.716 18.1803 221.088C17.7843 221.46 17.5863 222.108 17.5863 223.032V228H15.0663V218.028H17.5863V219.576ZM21.6956 222.978C21.6956 221.97 21.8936 221.076 22.2896 220.296C22.6976 219.516 23.2436 218.916 23.9276 218.496C24.6236 218.076 25.3976 217.866 26.2496 217.866C26.9936 217.866 27.6416 218.016 28.1936 218.316C28.7576 218.616 29.2076 218.994 29.5436 219.45V218.028H32.0816V228H29.5436V226.542C29.2196 227.01 28.7696 227.4 28.1936 227.712C27.6296 228.012 26.9756 228.162 26.2316 228.162C25.3916 228.162 24.6236 227.946 23.9276 227.514C23.2436 227.082 22.6976 226.476 22.2896 225.696C21.8936 224.904 21.6956 223.998 21.6956 222.978ZM29.5436 223.014C29.5436 222.402 29.4236 221.88 29.1836 221.448C28.9436 221.004 28.6196 220.668 28.2116 220.44C27.8036 220.2 27.3656 220.08 26.8976 220.08C26.4296 220.08 25.9976 220.194 25.6016 220.422C25.2056 220.65 24.8816 220.986 24.6296 221.43C24.3896 221.862 24.2696 222.378 24.2696 222.978C24.2696 223.578 24.3896 224.106 24.6296 224.562C24.8816 225.006 25.2056 225.348 25.6016 225.588C26.0096 225.828 26.4416 225.948 26.8976 225.948C27.3656 225.948 27.8036 225.834 28.2116 225.606C28.6196 225.366 28.9436 225.03 29.1836 224.598C29.4236 224.154 29.5436 223.626 29.5436 223.014ZM40.0689 217.884C41.2569 217.884 42.2169 218.262 42.9489 219.018C43.6809 219.762 44.0469 220.806 44.0469 222.15V228H41.5269V222.492C41.5269 221.7 41.3289 221.094 40.9329 220.674C40.5369 220.242 39.9969 220.026 39.3129 220.026C38.6169 220.026 38.0649 220.242 37.6569 220.674C37.2609 221.094 37.0629 221.7 37.0629 222.492V228H34.5429V218.028H37.0629V219.27C37.3989 218.838 37.8249 218.502 38.3409 218.262C38.8689 218.01 39.4449 217.884 40.0689 217.884ZM45.7952 222.978C45.7952 221.97 45.9932 221.076 46.3892 220.296C46.7972 219.516 47.3492 218.916 48.0452 218.496C48.7412 218.076 49.5152 217.866 50.3672 217.866C51.0152 217.866 51.6332 218.01 52.2212 218.298C52.8092 218.574 53.2772 218.946 53.6252 219.414V214.68H56.1812V228H53.6252V226.524C53.3132 227.016 52.8752 227.412 52.3112 227.712C51.7472 228.012 51.0932 228.162 50.3492 228.162C49.5092 228.162 48.7412 227.946 48.0452 227.514C47.3492 227.082 46.7972 226.476 46.3892 225.696C45.9932 224.904 45.7952 223.998 45.7952 222.978ZM53.6432 223.014C53.6432 222.402 53.5232 221.88 53.2832 221.448C53.0432 221.004 52.7192 220.668 52.3112 220.44C51.9032 220.2 51.4652 220.08 50.9972 220.08C50.5292 220.08 50.0972 220.194 49.7012 220.422C49.3052 220.65 48.9812 220.986 48.7292 221.43C48.4892 221.862 48.3692 222.378 48.3692 222.978C48.3692 223.578 48.4892 224.106 48.7292 224.562C48.9812 225.006 49.3052 225.348 49.7012 225.588C50.1092 225.828 50.5412 225.948 50.9972 225.948C51.4652 225.948 51.9032 225.834 52.3112 225.606C52.7192 225.366 53.0432 225.03 53.2832 224.598C53.5232 224.154 53.6432 223.626 53.6432 223.014ZM59.9205 216.84C59.4765 216.84 59.1045 216.702 58.8045 216.426C58.5165 216.138 58.3725 215.784 58.3725 215.364C58.3725 214.944 58.5165 214.596 58.8045 214.32C59.1045 214.032 59.4765 213.888 59.9205 213.888C60.3645 213.888 60.7305 214.032 61.0185 214.32C61.3185 214.596 61.4685 214.944 61.4685 215.364C61.4685 215.784 61.3185 216.138 61.0185 216.426C60.7305 216.702 60.3645 216.84 59.9205 216.84ZM61.1625 218.028V228H58.6425V218.028H61.1625ZM69.1782 217.884C70.3662 217.884 71.3262 218.262 72.0582 219.018C72.7902 219.762 73.1562 220.806 73.1562 222.15V228H70.6362V222.492C70.6362 221.7 70.4382 221.094 70.0422 220.674C69.6462 220.242 69.1062 220.026 68.4222 220.026C67.7262 220.026 67.1742 220.242 66.7662 220.674C66.3702 221.094 66.1722 221.7 66.1722 222.492V228H63.6522V218.028H66.1722V219.27C66.5082 218.838 66.9342 218.502 67.4502 218.262C67.9782 218.01 68.5542 217.884 69.1782 217.884ZM79.4586 217.866C80.2026 217.866 80.8566 218.016 81.4206 218.316C81.9846 218.604 82.4286 218.982 82.7526 219.45V218.028H85.2906V228.072C85.2906 228.996 85.1046 229.818 84.7326 230.538C84.3606 231.27 83.8026 231.846 83.0586 232.266C82.3146 232.698 81.4146 232.914 80.3586 232.914C78.9426 232.914 77.7786 232.584 76.8666 231.924C75.9666 231.264 75.4566 230.364 75.3366 229.224H77.8386C77.9706 229.68 78.2526 230.04 78.6846 230.304C79.1286 230.58 79.6626 230.718 80.2866 230.718C81.0186 230.718 81.6126 230.496 82.0686 230.052C82.5246 229.62 82.7526 228.96 82.7526 228.072V226.524C82.4286 226.992 81.9786 227.382 81.4026 227.694C80.8386 228.006 80.1906 228.162 79.4586 228.162C78.6186 228.162 77.8506 227.946 77.1546 227.514C76.4586 227.082 75.9066 226.476 75.4986 225.696C75.1026 224.904 74.9046 223.998 74.9046 222.978C74.9046 221.97 75.1026 221.076 75.4986 220.296C75.9066 219.516 76.4526 218.916 77.1366 218.496C77.8326 218.076 78.6066 217.866 79.4586 217.866ZM82.7526 223.014C82.7526 222.402 82.6326 221.88 82.3926 221.448C82.1526 221.004 81.8286 220.668 81.4206 220.44C81.0126 220.2 80.5746 220.08 80.1066 220.08C79.6386 220.08 79.2066 220.194 78.8106 220.422C78.4146 220.65 78.0906 220.986 77.8386 221.43C77.5986 221.862 77.4786 222.378 77.4786 222.978C77.4786 223.578 77.5986 224.106 77.8386 224.562C78.0906 225.006 78.4146 225.348 78.8106 225.588C79.2186 225.828 79.6506 225.948 80.1066 225.948C80.5746 225.948 81.0126 225.834 81.4206 225.606C81.8286 225.366 82.1526 225.03 82.3926 224.598C82.6326 224.154 82.7526 223.626 82.7526 223.014Z" fill="black"/>
<path d="M122.869 212.752C122.485 212.752 122.133 212.661 121.813 212.48C121.503 212.288 121.253 212.037 121.061 211.728C120.879 211.408 120.789 211.056 120.789 210.672C120.789 210.085 120.991 209.589 121.397 209.184C121.802 208.779 122.293 208.576 122.869 208.576C123.466 208.576 123.967 208.779 124.373 209.184C124.778 209.589 124.981 210.085 124.981 210.672C124.981 211.259 124.778 211.755 124.373 212.16C123.967 212.555 123.466 212.752 122.869 212.752ZM135.476 210.416C135.476 209.328 135.727 208.352 136.228 207.488C136.74 206.624 137.428 205.952 138.292 205.472C139.167 204.981 140.121 204.736 141.156 204.736C142.34 204.736 143.391 205.029 144.308 205.616C145.236 206.192 145.908 207.013 146.324 208.08H144.132C143.844 207.493 143.444 207.056 142.932 206.768C142.42 206.48 141.828 206.336 141.156 206.336C140.42 206.336 139.764 206.501 139.188 206.832C138.612 207.163 138.159 207.637 137.828 208.256C137.508 208.875 137.348 209.595 137.348 210.416C137.348 211.237 137.508 211.957 137.828 212.576C138.159 213.195 138.612 213.675 139.188 214.016C139.764 214.347 140.42 214.512 141.156 214.512C141.828 214.512 142.42 214.368 142.932 214.08C143.444 213.792 143.844 213.355 144.132 212.768H146.324C145.908 213.835 145.236 214.656 144.308 215.232C143.391 215.808 142.34 216.096 141.156 216.096C140.111 216.096 139.156 215.856 138.292 215.376C137.428 214.885 136.74 214.208 136.228 213.344C135.727 212.48 135.476 211.504 135.476 210.416ZM152.283 216.144C151.451 216.144 150.699 215.957 150.027 215.584C149.355 215.2 148.827 214.667 148.443 213.984C148.059 213.291 147.867 212.491 147.867 211.584C147.867 210.688 148.064 209.893 148.459 209.2C148.854 208.507 149.392 207.973 150.075 207.6C150.758 207.227 151.52 207.04 152.363 207.04C153.206 207.04 153.968 207.227 154.651 207.6C155.334 207.973 155.872 208.507 156.267 209.2C156.662 209.893 156.859 210.688 156.859 211.584C156.859 212.48 156.656 213.275 156.251 213.968C155.846 214.661 155.291 215.2 154.587 215.584C153.894 215.957 153.126 216.144 152.283 216.144ZM152.283 214.56C152.752 214.56 153.19 214.448 153.595 214.224C154.011 214 154.347 213.664 154.603 213.216C154.859 212.768 154.987 212.224 154.987 211.584C154.987 210.944 154.864 210.405 154.619 209.968C154.374 209.52 154.048 209.184 153.643 208.96C153.238 208.736 152.8 208.624 152.331 208.624C151.862 208.624 151.424 208.736 151.019 208.96C150.624 209.184 150.31 209.52 150.075 209.968C149.84 210.405 149.723 210.944 149.723 211.584C149.723 212.533 149.963 213.269 150.443 213.792C150.934 214.304 151.547 214.56 152.283 214.56ZM160.486 204.16V216H158.662V204.16H160.486ZM166.705 216.144C165.873 216.144 165.121 215.957 164.449 215.584C163.777 215.2 163.249 214.667 162.865 213.984C162.481 213.291 162.289 212.491 162.289 211.584C162.289 210.688 162.486 209.893 162.881 209.2C163.275 208.507 163.814 207.973 164.497 207.6C165.179 207.227 165.942 207.04 166.785 207.04C167.627 207.04 168.39 207.227 169.073 207.6C169.755 207.973 170.294 208.507 170.689 209.2C171.083 209.893 171.281 210.688 171.281 211.584C171.281 212.48 171.078 213.275 170.673 213.968C170.267 214.661 169.713 215.2 169.009 215.584C168.315 215.957 167.547 216.144 166.705 216.144ZM166.705 214.56C167.174 214.56 167.611 214.448 168.017 214.224C168.433 214 168.769 213.664 169.025 213.216C169.281 212.768 169.409 212.224 169.409 211.584C169.409 210.944 169.286 210.405 169.041 209.968C168.795 209.52 168.47 209.184 168.065 208.96C167.659 208.736 167.222 208.624 166.753 208.624C166.283 208.624 165.846 208.736 165.441 208.96C165.046 209.184 164.731 209.52 164.497 209.968C164.262 210.405 164.145 210.944 164.145 211.584C164.145 212.533 164.385 213.269 164.865 213.792C165.355 214.304 165.969 214.56 166.705 214.56ZM174.908 208.464C175.175 208.016 175.527 207.669 175.964 207.424C176.412 207.168 176.94 207.04 177.548 207.04V208.928H177.084C176.369 208.928 175.825 209.109 175.452 209.472C175.089 209.835 174.908 210.464 174.908 211.36V216H173.084V207.184H174.908V208.464ZM122.869 236.752C122.485 236.752 122.133 236.661 121.813 236.48C121.503 236.288 121.253 236.037 121.061 235.728C120.879 235.408 120.789 235.056 120.789 234.672C120.789 234.085 120.991 233.589 121.397 233.184C121.802 232.779 122.293 232.576 122.869 232.576C123.466 232.576 123.967 232.779 124.373 233.184C124.778 233.589 124.981 234.085 124.981 234.672C124.981 235.259 124.778 235.755 124.373 236.16C123.967 236.555 123.466 236.752 122.869 236.752ZM139.748 240.112C139.001 240.112 138.329 239.984 137.732 239.728C137.135 239.461 136.665 239.088 136.324 238.608C135.983 238.128 135.812 237.568 135.812 236.928H137.764C137.807 237.408 137.993 237.803 138.324 238.112C138.665 238.421 139.14 238.576 139.748 238.576C140.377 238.576 140.868 238.427 141.22 238.128C141.572 237.819 141.748 237.424 141.748 236.944C141.748 236.571 141.636 236.267 141.412 236.032C141.199 235.797 140.927 235.616 140.596 235.488C140.276 235.36 139.828 235.221 139.252 235.072C138.527 234.88 137.935 234.688 137.476 234.496C137.028 234.293 136.644 233.984 136.324 233.568C136.004 233.152 135.844 232.597 135.844 231.904C135.844 231.264 136.004 230.704 136.324 230.224C136.644 229.744 137.092 229.376 137.668 229.12C138.244 228.864 138.911 228.736 139.668 228.736C140.745 228.736 141.625 229.008 142.308 229.552C143.001 230.085 143.385 230.821 143.46 231.76H141.444C141.412 231.355 141.22 231.008 140.868 230.72C140.516 230.432 140.052 230.288 139.476 230.288C138.953 230.288 138.527 230.421 138.196 230.688C137.865 230.955 137.7 231.339 137.7 231.84C137.7 232.181 137.801 232.464 138.004 232.688C138.217 232.901 138.484 233.072 138.804 233.2C139.124 233.328 139.561 233.467 140.116 233.616C140.852 233.819 141.449 234.021 141.908 234.224C142.377 234.427 142.772 234.741 143.092 235.168C143.423 235.584 143.588 236.144 143.588 236.848C143.588 237.413 143.433 237.947 143.124 238.448C142.825 238.949 142.383 239.355 141.796 239.664C141.22 239.963 140.537 240.112 139.748 240.112ZM147.868 232.672V237.552C147.868 237.883 147.943 238.123 148.092 238.272C148.252 238.411 148.519 238.48 148.892 238.48H150.012V240H148.572C147.751 240 147.121 239.808 146.684 239.424C146.247 239.04 146.028 238.416 146.028 237.552V232.672H144.988V231.184H146.028V228.992H147.868V231.184H150.012V232.672H147.868ZM159.629 231.184L154.221 244.144H152.333L154.125 239.856L150.653 231.184H152.685L155.165 237.904L157.741 231.184H159.629ZM162.83 228.16V240H161.006V228.16H162.83ZM173.304 235.376C173.304 235.707 173.283 236.005 173.24 236.272H166.504C166.558 236.976 166.819 237.541 167.288 237.968C167.758 238.395 168.334 238.608 169.016 238.608C169.998 238.608 170.691 238.197 171.096 237.376H173.064C172.798 238.187 172.312 238.853 171.608 239.376C170.915 239.888 170.051 240.144 169.016 240.144C168.174 240.144 167.416 239.957 166.744 239.584C166.083 239.2 165.56 238.667 165.176 237.984C164.803 237.291 164.616 236.491 164.616 235.584C164.616 234.677 164.798 233.883 165.16 233.2C165.534 232.507 166.051 231.973 166.712 231.6C167.384 231.227 168.152 231.04 169.016 231.04C169.848 231.04 170.59 231.221 171.24 231.584C171.891 231.947 172.398 232.459 172.76 233.12C173.123 233.771 173.304 234.523 173.304 235.376ZM171.4 234.8C171.39 234.128 171.15 233.589 170.68 233.184C170.211 232.779 169.63 232.576 168.936 232.576C168.307 232.576 167.768 232.779 167.32 233.184C166.872 233.579 166.606 234.117 166.52 234.8H171.4Z" fill="black"/>
</svg>
