<svg width="274" height="109" viewBox="0 0 274 109" fill="none" xmlns="http://www.w3.org/2000/svg">
<g clip-path="url(#clip0_307_5652)">
<path d="M50 64.3071C67.6731 64.3071 82 49.9802 82 32.3071C82 14.634 67.6731 0.307129 50 0.307129C32.3269 0.307129 18 14.634 18 32.3071C18 49.9802 32.3269 64.3071 50 64.3071Z" fill="#FC521F"/>
<path d="M57.54 47.0613L52.4425 44.1191L67.7783 35.2733C68.3639 34.9354 68.9186 34.5464 69.4358 34.1108C71.4295 36.9491 71.625 40.6866 69.8483 43.7646C69.0533 45.1328 67.9134 46.2687 66.5423 47.0588C65.1712 47.8489 63.6169 48.2656 62.0345 48.2673C60.4565 48.2659 58.9065 47.8498 57.54 47.0606V47.0613ZM56.3118 49.1863C56.8977 49.525 57.5124 49.8113 58.1488 50.0418C56.6845 53.1843 53.5438 55.2218 49.9858 55.2218C45.0195 55.2218 40.9765 51.1836 40.9765 46.2203V28.5273L48.7575 33.0178V44.1203C48.7577 44.3357 48.8146 44.5473 48.9224 44.7337C49.0302 44.9202 49.1852 45.075 49.3718 45.1826L56.3118 49.1866V49.1863ZM37.961 48.2658C36.3794 48.2642 34.8259 47.8478 33.4555 47.0583C32.0851 46.2687 30.9457 45.1335 30.151 43.7661C29.5567 42.7436 29.1713 41.6133 29.0171 40.4408C28.8629 39.2682 28.943 38.0767 29.2528 36.9353C29.5558 35.7916 30.0828 34.7194 30.8032 33.7809C31.5237 32.8424 32.4232 32.0562 33.4498 31.4678L38.546 28.5271L38.5468 46.2171C38.5462 46.894 38.6052 47.5696 38.7233 48.2361C38.4698 48.2561 38.2145 48.2661 37.9608 48.2661L37.961 48.2658ZM57.792 26.4013L50.0133 30.8888L40.3893 25.3383C40.2025 25.231 39.9909 25.1745 39.7755 25.1745C39.5601 25.1745 39.3485 25.231 39.1618 25.3383L32.2218 29.3413C31.635 29.6781 31.0797 30.0669 30.5625 30.5031C28.5705 27.6656 28.3758 23.9273 30.151 20.8493C30.9457 19.481 32.0855 18.345 33.4564 17.5548C34.8274 16.7645 36.3816 16.3477 37.964 16.3458C39.5338 16.3458 41.088 16.7643 42.4585 17.5541L57.792 26.4016V26.4013ZM49.9858 9.39258C54.9545 9.39258 58.9953 13.4311 58.9953 18.3966V24.2781L43.6638 15.4331C43.0773 15.0934 42.4618 14.8065 41.8245 14.5758C43.288 11.4313 46.4303 9.39258 49.9858 9.39258ZM69.8475 20.8523C72.33 25.1518 70.8513 30.6681 66.5485 33.1506L51.2148 41.9956V33.0193L60.8383 27.4668C61.0251 27.3594 61.1803 27.2046 61.2883 27.0181C61.3962 26.8315 61.4531 26.6198 61.4533 26.4043V18.3968C61.4533 17.7208 61.392 17.0471 61.2758 16.3833C62.9809 16.2412 64.6915 16.5856 66.2087 17.3767C67.726 18.1677 68.9878 19.3729 69.8475 20.8523Z" fill="white"/>
</g>
<path d="M1.13 94.0071C1.13 92.7711 1.406 91.6671 1.958 90.6951C2.522 89.7111 3.284 88.9491 4.244 88.4091C5.216 87.8571 6.302 87.5811 7.502 87.5811C8.906 87.5811 10.136 87.9411 11.192 88.6611C12.248 89.3811 12.986 90.3771 13.406 91.6491H10.508C10.22 91.0491 9.812 90.5991 9.284 90.2991C8.768 89.9991 8.168 89.8491 7.484 89.8491C6.752 89.8491 6.098 90.0231 5.522 90.3711C4.958 90.7071 4.514 91.1871 4.19 91.8111C3.878 92.4351 3.722 93.1671 3.722 94.0071C3.722 94.8351 3.878 95.5671 4.19 96.2031C4.514 96.8271 4.958 97.3131 5.522 97.6611C6.098 97.9971 6.752 98.1651 7.484 98.1651C8.168 98.1651 8.768 98.0151 9.284 97.7151C9.812 97.4031 10.22 96.9471 10.508 96.3471H13.406C12.986 97.6311 12.248 98.6331 11.192 99.3531C10.148 100.061 8.918 100.415 7.502 100.415C6.302 100.415 5.216 100.145 4.244 99.6051C3.284 99.0531 2.522 98.2911 1.958 97.3191C1.406 96.3471 1.13 95.2431 1.13 94.0071ZM21.1744 90.1911C21.9304 90.1911 22.6024 90.3591 23.1904 90.6951C23.7784 91.0191 24.2344 91.5051 24.5584 92.1531C24.8944 92.7891 25.0624 93.5571 25.0624 94.4571V100.307H22.5424V94.7991C22.5424 94.0071 22.3444 93.4011 21.9484 92.9811C21.5524 92.5491 21.0124 92.3331 20.3284 92.3331C19.6324 92.3331 19.0804 92.5491 18.6724 92.9811C18.2764 93.4011 18.0784 94.0071 18.0784 94.7991V100.307H15.5584V86.9871H18.0784V91.5771C18.4024 91.1451 18.8344 90.8091 19.3744 90.5691C19.9144 90.3171 20.5144 90.1911 21.1744 90.1911ZM29.9788 91.8831C30.3028 91.3551 30.7228 90.9411 31.2388 90.6411C31.7668 90.3411 32.3668 90.1911 33.0388 90.1911V92.8371H32.3728C31.5808 92.8371 30.9808 93.0231 30.5728 93.3951C30.1768 93.7671 29.9788 94.4151 29.9788 95.3391V100.307H27.4588V90.3351H29.9788V91.8831ZM39.1641 100.469C38.2041 100.469 37.3401 100.259 36.5721 99.8391C35.8041 99.4071 35.1981 98.8011 34.7541 98.0211C34.3221 97.2411 34.1061 96.3411 34.1061 95.3211C34.1061 94.3011 34.3281 93.4011 34.7721 92.6211C35.2281 91.8411 35.8461 91.2411 36.6261 90.8211C37.4061 90.3891 38.2761 90.1731 39.2361 90.1731C40.1961 90.1731 41.0661 90.3891 41.8461 90.8211C42.6261 91.2411 43.2381 91.8411 43.6821 92.6211C44.1381 93.4011 44.3661 94.3011 44.3661 95.3211C44.3661 96.3411 44.1321 97.2411 43.6641 98.0211C43.2081 98.8011 42.5841 99.4071 41.7921 99.8391C41.0121 100.259 40.1361 100.469 39.1641 100.469ZM39.1641 98.2731C39.6201 98.2731 40.0461 98.1651 40.4421 97.9491C40.8501 97.7211 41.1741 97.3851 41.4141 96.9411C41.6541 96.4971 41.7741 95.9571 41.7741 95.3211C41.7741 94.3731 41.5221 93.6471 41.0181 93.1431C40.5261 92.6271 39.9201 92.3691 39.2001 92.3691C38.4801 92.3691 37.8741 92.6271 37.3821 93.1431C36.9021 93.6471 36.6621 94.3731 36.6621 95.3211C36.6621 96.2691 36.8961 97.0011 37.3641 97.5171C37.8441 98.0211 38.4441 98.2731 39.1641 98.2731ZM58.5987 90.1911C59.8227 90.1911 60.8067 90.5691 61.5507 91.3251C62.3067 92.0691 62.6847 93.1131 62.6847 94.4571V100.307H60.1647V94.7991C60.1647 94.0191 59.9667 93.4251 59.5707 93.0171C59.1747 92.5971 58.6347 92.3871 57.9507 92.3871C57.2667 92.3871 56.7207 92.5971 56.3127 93.0171C55.9167 93.4251 55.7187 94.0191 55.7187 94.7991V100.307H53.1987V94.7991C53.1987 94.0191 53.0007 93.4251 52.6047 93.0171C52.2087 92.5971 51.6687 92.3871 50.9847 92.3871C50.2887 92.3871 49.7367 92.5971 49.3287 93.0171C48.9327 93.4251 48.7347 94.0191 48.7347 94.7991V100.307H46.2147V90.3351H48.7347V91.5411C49.0587 91.1211 49.4727 90.7911 49.9767 90.5511C50.4927 90.3111 51.0567 90.1911 51.6687 90.1911C52.4487 90.1911 53.1447 90.3591 53.7567 90.6951C54.3687 91.0191 54.8427 91.4871 55.1787 92.0991C55.5027 91.5231 55.9707 91.0611 56.5827 90.7131C57.2067 90.3651 57.8787 90.1911 58.5987 90.1911ZM64.428 95.2851C64.428 94.2771 64.626 93.3831 65.022 92.6031C65.43 91.8231 65.976 91.2231 66.66 90.8031C67.356 90.3831 68.13 90.1731 68.982 90.1731C69.726 90.1731 70.374 90.3231 70.926 90.6231C71.49 90.9231 71.94 91.3011 72.276 91.7571V90.3351H74.814V100.307H72.276V98.8491C71.952 99.3171 71.502 99.7071 70.926 100.019C70.362 100.319 69.708 100.469 68.964 100.469C68.124 100.469 67.356 100.253 66.66 99.8211C65.976 99.3891 65.43 98.7831 65.022 98.0031C64.626 97.2111 64.428 96.3051 64.428 95.2851ZM72.276 95.3211C72.276 94.7091 72.156 94.1871 71.916 93.7551C71.676 93.3111 71.352 92.9751 70.944 92.7471C70.536 92.5071 70.098 92.3871 69.63 92.3871C69.162 92.3871 68.73 92.5011 68.334 92.7291C67.938 92.9571 67.614 93.2931 67.362 93.7371C67.122 94.1691 67.002 94.6851 67.002 95.2851C67.002 95.8851 67.122 96.4131 67.362 96.8691C67.614 97.3131 67.938 97.6551 68.334 97.8951C68.742 98.1351 69.174 98.2551 69.63 98.2551C70.098 98.2551 70.536 98.1411 70.944 97.9131C71.352 97.6731 71.676 97.3371 71.916 96.9051C72.156 96.4611 72.276 95.9331 72.276 95.3211ZM80.2092 92.4051V97.2291C80.2092 97.5651 80.2872 97.8111 80.4432 97.9671C80.6112 98.1111 80.8872 98.1831 81.2712 98.1831H82.4412V100.307H80.8572C78.7332 100.307 77.6712 99.2751 77.6712 97.2111V92.4051H76.4832V90.3351H77.6712V87.8691H80.2092V90.3351H82.4412V92.4051H80.2092ZM85.5317 89.1471C85.0877 89.1471 84.7157 89.0091 84.4157 88.7331C84.1277 88.4451 83.9837 88.0911 83.9837 87.6711C83.9837 87.2511 84.1277 86.9031 84.4157 86.6271C84.7157 86.3391 85.0877 86.1951 85.5317 86.1951C85.9757 86.1951 86.3417 86.3391 86.6297 86.6271C86.9297 86.9031 87.0797 87.2511 87.0797 87.6711C87.0797 88.0911 86.9297 88.4451 86.6297 88.7331C86.3417 89.0091 85.9757 89.1471 85.5317 89.1471ZM86.7737 90.3351V100.307H84.2537V90.3351H86.7737ZM88.6155 95.3211C88.6155 94.2891 88.8255 93.3891 89.2455 92.6211C89.6655 91.8411 90.2475 91.2411 90.9915 90.8211C91.7355 90.3891 92.5875 90.1731 93.5475 90.1731C94.7835 90.1731 95.8035 90.4851 96.6075 91.1091C97.4235 91.7211 97.9695 92.5851 98.2455 93.7011H95.5275C95.3835 93.2691 95.1375 92.9331 94.7895 92.6931C94.4535 92.4411 94.0335 92.3151 93.5295 92.3151C92.8095 92.3151 92.2395 92.5791 91.8195 93.1071C91.3995 93.6231 91.1895 94.3611 91.1895 95.3211C91.1895 96.2691 91.3995 97.0071 91.8195 97.5351C92.2395 98.0511 92.8095 98.3091 93.5295 98.3091C94.5495 98.3091 95.2155 97.8531 95.5275 96.9411H98.2455C97.9695 98.0211 97.4235 98.8791 96.6075 99.5151C95.7915 100.151 94.7715 100.469 93.5475 100.469C92.5875 100.469 91.7355 100.259 90.9915 99.8391C90.2475 99.4071 89.6655 98.8071 89.2455 98.0391C88.8255 97.2591 88.6155 96.3531 88.6155 95.3211Z" fill="#333333"/>
<path d="M235.97 11.1913L236.236 4.84528L241.676 4.50928L241.92 10.9693C241.924 11.0728 241.891 11.1743 241.826 11.2553C241.791 11.2992 241.747 11.3356 241.698 11.3624C241.649 11.3892 241.594 11.4058 241.538 11.4112C241.482 11.4166 241.426 11.4107 241.372 11.3939C241.319 11.3771 241.269 11.3497 241.226 11.3133L239.126 9.67328L236.64 11.5413C236.596 11.5759 236.545 11.6014 236.49 11.6161C236.436 11.6309 236.379 11.6347 236.323 11.6272C236.267 11.6198 236.214 11.6013 236.165 11.5728C236.116 11.5443 236.074 11.5064 236.04 11.4613C235.986 11.3822 235.961 11.2867 235.97 11.1913Z" fill="white"/>
<path d="M236.236 4.84302L235.97 11.191C235.966 11.2884 235.996 11.384 236.056 11.461C236.09 11.5061 236.132 11.544 236.181 11.5725C236.23 11.601 236.283 11.6195 236.339 11.627C236.395 11.6344 236.452 11.6306 236.506 11.6159C236.561 11.6011 236.612 11.5757 236.656 11.541L239.142 9.67302L241.242 11.313C241.285 11.3494 241.335 11.3768 241.388 11.3936C241.442 11.4105 241.498 11.4163 241.554 11.4109C241.61 11.4055 241.665 11.3889 241.714 11.3622C241.763 11.3354 241.807 11.2989 241.842 11.255C241.907 11.174 241.94 11.0725 241.936 10.969L241.676 4.50702L244.808 4.30702C245.179 4.28232 245.552 4.3311 245.904 4.45057C246.257 4.57004 246.582 4.75786 246.862 5.00327C247.142 5.24867 247.37 5.54685 247.535 5.88073C247.699 6.21461 247.796 6.57764 247.82 6.94902V57.491C247.817 58.2393 247.517 58.9559 246.987 59.4837C246.456 60.0115 245.738 60.3076 244.99 60.307H244.858L206.962 58.619C206.252 58.59 205.579 58.2948 205.077 57.7923C204.575 57.2899 204.281 56.6168 204.252 55.907L202.5 9.68702C202.475 8.94987 202.739 8.23209 203.236 7.68717C203.733 7.14224 204.424 6.81342 205.16 6.77102L236.234 4.84502L236.236 4.84302Z" fill="#FF4785"/>
<path d="M229.006 25.415C229.006 26.509 236.446 25.985 237.446 25.215C237.446 17.755 233.41 13.835 226.018 13.835C218.626 13.835 214.486 17.815 214.486 23.787C214.486 34.187 228.64 34.387 228.64 40.059C228.687 40.4014 228.654 40.7499 228.544 41.0776C228.435 41.4053 228.251 41.7035 228.008 41.949C227.765 42.1945 227.468 42.3808 227.142 42.4935C226.815 42.6062 226.467 42.6423 226.124 42.599C223.87 42.599 222.978 41.455 223.084 37.575C223.084 36.733 214.484 36.469 214.224 37.575C213.556 46.975 219.466 49.695 226.224 49.695C232.776 49.695 237.914 46.229 237.914 39.959C237.914 28.813 223.55 29.113 223.55 23.589C223.52 23.2362 223.57 22.8811 223.696 22.5502C223.821 22.2192 224.02 21.9208 224.277 21.6771C224.534 21.4333 224.842 21.2505 225.179 21.1421C225.516 21.0337 225.873 21.0026 226.224 21.051C227.276 21.051 229.164 21.235 229.006 25.415Z" fill="white"/>
<path d="M185.08 100.433C184.204 100.433 183.412 100.283 182.704 99.9831C182.008 99.6831 181.456 99.2511 181.048 98.6871C180.64 98.1231 180.43 97.4571 180.418 96.6891H183.118C183.154 97.2051 183.334 97.6131 183.658 97.9131C183.994 98.2131 184.45 98.3631 185.026 98.3631C185.614 98.3631 186.076 98.2251 186.412 97.9491C186.748 97.6611 186.916 97.2891 186.916 96.8331C186.916 96.4611 186.802 96.1551 186.574 95.9151C186.346 95.6751 186.058 95.4891 185.71 95.3571C185.374 95.2131 184.906 95.0571 184.306 94.8891C183.49 94.6491 182.824 94.4151 182.308 94.1871C181.804 93.9471 181.366 93.5931 180.994 93.1251C180.634 92.6451 180.454 92.0091 180.454 91.2171C180.454 90.4731 180.64 89.8251 181.012 89.2731C181.384 88.7211 181.906 88.3011 182.578 88.0131C183.25 87.7131 184.018 87.5631 184.882 87.5631C186.178 87.5631 187.228 87.8811 188.032 88.5171C188.848 89.1411 189.298 90.0171 189.382 91.1451H186.61C186.586 90.7131 186.4 90.3591 186.052 90.0831C185.716 89.7951 185.266 89.6511 184.702 89.6511C184.21 89.6511 183.814 89.7771 183.514 90.0291C183.226 90.2811 183.082 90.6471 183.082 91.1271C183.082 91.4631 183.19 91.7451 183.406 91.9731C183.634 92.1891 183.91 92.3691 184.234 92.5131C184.57 92.6451 185.038 92.8011 185.638 92.9811C186.454 93.2211 187.12 93.4611 187.636 93.7011C188.152 93.9411 188.596 94.3011 188.968 94.7811C189.34 95.2611 189.526 95.8911 189.526 96.6711C189.526 97.3431 189.352 97.9671 189.004 98.5431C188.656 99.1191 188.146 99.5811 187.474 99.9291C186.802 100.265 186.004 100.433 185.08 100.433ZM194.645 92.4051V97.2291C194.645 97.5651 194.723 97.8111 194.879 97.9671C195.047 98.1111 195.323 98.1831 195.707 98.1831H196.877V100.307H195.293C193.169 100.307 192.107 99.2751 192.107 97.2111V92.4051H190.919V90.3351H192.107V87.8691H194.645V90.3351H196.877V92.4051H194.645ZM203.117 100.469C202.157 100.469 201.293 100.259 200.525 99.8391C199.757 99.4071 199.151 98.8011 198.707 98.0211C198.275 97.2411 198.059 96.3411 198.059 95.3211C198.059 94.3011 198.281 93.4011 198.725 92.6211C199.181 91.8411 199.799 91.2411 200.579 90.8211C201.359 90.3891 202.229 90.1731 203.189 90.1731C204.149 90.1731 205.019 90.3891 205.799 90.8211C206.579 91.2411 207.191 91.8411 207.635 92.6211C208.091 93.4011 208.319 94.3011 208.319 95.3211C208.319 96.3411 208.085 97.2411 207.617 98.0211C207.161 98.8011 206.537 99.4071 205.745 99.8391C204.965 100.259 204.089 100.469 203.117 100.469ZM203.117 98.2731C203.573 98.2731 203.999 98.1651 204.395 97.9491C204.803 97.7211 205.127 97.3851 205.367 96.9411C205.607 96.4971 205.727 95.9571 205.727 95.3211C205.727 94.3731 205.475 93.6471 204.971 93.1431C204.479 92.6271 203.873 92.3691 203.153 92.3691C202.433 92.3691 201.827 92.6271 201.335 93.1431C200.855 93.6471 200.615 94.3731 200.615 95.3211C200.615 96.2691 200.849 97.0011 201.317 97.5171C201.797 98.0211 202.397 98.2731 203.117 98.2731ZM212.688 91.8831C213.012 91.3551 213.432 90.9411 213.948 90.6411C214.476 90.3411 215.076 90.1911 215.748 90.1911V92.8371H215.082C214.29 92.8371 213.69 93.0231 213.282 93.3951C212.886 93.7671 212.688 94.4151 212.688 95.3391V100.307H210.168V90.3351H212.688V91.8831ZM226.985 90.3351L220.811 105.023H218.129L220.289 100.055L216.293 90.3351H219.119L221.693 97.3011L224.303 90.3351H226.985ZM230.864 91.7931C231.188 91.3131 231.632 90.9231 232.196 90.6231C232.772 90.3231 233.426 90.1731 234.158 90.1731C235.01 90.1731 235.778 90.3831 236.462 90.8031C237.158 91.2231 237.704 91.8231 238.1 92.6031C238.508 93.3711 238.712 94.2651 238.712 95.2851C238.712 96.3051 238.508 97.2111 238.1 98.0031C237.704 98.7831 237.158 99.3891 236.462 99.8211C235.778 100.253 235.01 100.469 234.158 100.469C233.414 100.469 232.76 100.325 232.196 100.037C231.644 99.7371 231.2 99.3531 230.864 98.8851V100.307H228.344V86.9871H230.864V91.7931ZM236.138 95.2851C236.138 94.6851 236.012 94.1691 235.76 93.7371C235.52 93.2931 235.196 92.9571 234.788 92.7291C234.392 92.5011 233.96 92.3871 233.492 92.3871C233.036 92.3871 232.604 92.5071 232.196 92.7471C231.8 92.9751 231.476 93.3111 231.224 93.7551C230.984 94.1991 230.864 94.7211 230.864 95.3211C230.864 95.9211 230.984 96.4431 231.224 96.8871C231.476 97.3311 231.8 97.6731 232.196 97.9131C232.604 98.1411 233.036 98.2551 233.492 98.2551C233.96 98.2551 234.392 98.1351 234.788 97.8951C235.196 97.6551 235.52 97.3131 235.76 96.8691C236.012 96.4251 236.138 95.8971 236.138 95.2851ZM244.971 100.469C244.011 100.469 243.147 100.259 242.379 99.8391C241.611 99.4071 241.005 98.8011 240.561 98.0211C240.129 97.2411 239.913 96.3411 239.913 95.3211C239.913 94.3011 240.135 93.4011 240.579 92.6211C241.035 91.8411 241.653 91.2411 242.433 90.8211C243.213 90.3891 244.083 90.1731 245.043 90.1731C246.003 90.1731 246.873 90.3891 247.653 90.8211C248.433 91.2411 249.045 91.8411 249.489 92.6211C249.945 93.4011 250.173 94.3011 250.173 95.3211C250.173 96.3411 249.939 97.2411 249.471 98.0211C249.015 98.8011 248.391 99.4071 247.599 99.8391C246.819 100.259 245.943 100.469 244.971 100.469ZM244.971 98.2731C245.427 98.2731 245.853 98.1651 246.249 97.9491C246.657 97.7211 246.981 97.3851 247.221 96.9411C247.461 96.4971 247.581 95.9571 247.581 95.3211C247.581 94.3731 247.329 93.6471 246.825 93.1431C246.333 92.6271 245.727 92.3691 245.007 92.3691C244.287 92.3691 243.681 92.6271 243.189 93.1431C242.709 93.6471 242.469 94.3731 242.469 95.3211C242.469 96.2691 242.703 97.0011 243.171 97.5171C243.651 98.0211 244.251 98.2731 244.971 98.2731ZM256.449 100.469C255.489 100.469 254.625 100.259 253.857 99.8391C253.089 99.4071 252.483 98.8011 252.039 98.0211C251.607 97.2411 251.391 96.3411 251.391 95.3211C251.391 94.3011 251.613 93.4011 252.057 92.6211C252.513 91.8411 253.131 91.2411 253.911 90.8211C254.691 90.3891 255.561 90.1731 256.521 90.1731C257.481 90.1731 258.351 90.3891 259.131 90.8211C259.911 91.2411 260.523 91.8411 260.967 92.6211C261.423 93.4011 261.651 94.3011 261.651 95.3211C261.651 96.3411 261.417 97.2411 260.949 98.0211C260.493 98.8011 259.869 99.4071 259.077 99.8391C258.297 100.259 257.421 100.469 256.449 100.469ZM256.449 98.2731C256.905 98.2731 257.331 98.1651 257.727 97.9491C258.135 97.7211 258.459 97.3851 258.699 96.9411C258.939 96.4971 259.059 95.9571 259.059 95.3211C259.059 94.3731 258.807 93.6471 258.303 93.1431C257.811 92.6271 257.205 92.3691 256.485 92.3691C255.765 92.3691 255.159 92.6271 254.667 93.1431C254.187 93.6471 253.947 94.3731 253.947 95.3211C253.947 96.2691 254.181 97.0011 254.649 97.5171C255.129 98.0211 255.729 98.2731 256.449 98.2731ZM269.404 100.307L266.02 96.0591V100.307H263.5V86.9871H266.02V94.5651L269.368 90.3351H272.644L268.252 95.3391L272.68 100.307H269.404Z" fill="#333333"/>
<defs>
<clipPath id="clip0_307_5652">
<rect width="64" height="64" fill="white" transform="translate(18 0.307129)"/>
</clipPath>
</defs>
</svg>
